<svg id="图层_1" data-name="图层 1" xmlns="http://www.w3.org/2000/svg" xmlns:xlink="http://www.w3.org/1999/xlink" viewBox="0 0 200 151.23" width="100%" height="64px"><defs><style>.cls-1{fill:none;}.cls-2{fill:#3e3a39;fill-rule:evenodd;}.cls-3{clip-path:url(#clip-path);}.cls-4{fill:url(#linear-gradient);}.cls-5{clip-path:url(#clip-path-2);}.cls-6{fill:url(#linear-gradient-2);}.cls-7{clip-path:url(#clip-path-3);}.cls-8{fill:url(#linear-gradient-3);}.cls-9{clip-path:url(#clip-path-4);}.cls-10{fill:url(#linear-gradient-4);}.cls-11{clip-path:url(#clip-path-5);}.cls-12{fill:url(#linear-gradient-5);}.cls-13{clip-path:url(#clip-path-6);}.cls-14{fill:url(#linear-gradient-6);}.cls-15{clip-path:url(#clip-path-7);}.cls-16{fill:url(#linear-gradient-7);}</style><clipPath id="clip-path" transform="translate(0.15 -24.67)"><polygon class="cls-1" points="145.33 160.49 145.33 125.73 145.33 70.51 145.33 31.59 54.38 31.59 54.39 70.51 54.38 70.51 54.39 160.49 145.33 160.49"/></clipPath><linearGradient id="linear-gradient" x1="-261.18" y1="396.87" x2="-260.03" y2="396.87" gradientTransform="matrix(82.35, 0, 0, -82.35, 21555.71, 32753.05)" gradientUnits="userSpaceOnUse"><stop offset="0" stop-color="#231815"/><stop offset="0.19" stop-color="#9e9e9f"/><stop offset="0.4" stop-color="#e8e9e9"/><stop offset="0.68" stop-color="#9e9e9f"/><stop offset="1" stop-color="#484545"/></linearGradient><clipPath id="clip-path-2" transform="translate(0.15 -24.67)"><path class="cls-1" d="M40.81,121.37H54a273.82,273.82,0,0,1,91,0h39.52v-91H15.27v91Z"/></clipPath><linearGradient id="linear-gradient-2" x1="-258.18" y1="400.1" x2="-257.03" y2="400.1" gradientTransform="matrix(0, -82.35, -82.35, 0, 33049.47, -21159.05)" xlink:href="#linear-gradient"/><clipPath id="clip-path-3" transform="translate(0.15 -24.67)"><polygon class="cls-1" points="150.53 175.26 150.53 171.65 150.53 169.91 150.53 160.5 49.19 160.5 49.19 169.91 49.18 169.91 49.19 175.26 150.53 175.26"/></clipPath><linearGradient id="linear-gradient-3" x1="-260.84" y1="396.78" x2="-259.69" y2="396.78" gradientTransform="matrix(92.47, 0, 0, -92.47, 24159.58, 36833.22)" gradientUnits="userSpaceOnUse"><stop offset="0" stop-color="#2b2320"/><stop offset="0.24" stop-color="#9c9c9d"/><stop offset="0.51" stop-color="#f5f5f5"/><stop offset="0.72" stop-color="#9c9c9d"/><stop offset="1" stop-color="#4e4b4a"/></linearGradient><clipPath id="clip-path-4" transform="translate(0.15 -24.67)"><rect class="cls-1" x="112.66" y="159.49" width="5.36" height="0.14"/></clipPath><linearGradient id="linear-gradient-4" x1="-310.12" y1="393.07" x2="-308.97" y2="393.07" gradientTransform="matrix(4.86, 0, 0, -4.86, 1619.13, 2044.63)" gradientUnits="userSpaceOnUse"><stop offset="0" stop-color="#565454"/><stop offset="0.19" stop-color="#999a9a"/><stop offset="0.4" stop-color="#c8c9ca"/><stop offset="0.68" stop-color="#989898"/><stop offset="1" stop-color="#6b6a6a"/></linearGradient><clipPath id="clip-path-5" transform="translate(0.15 -24.67)"><polygon class="cls-1" points="5.85 126.57 15.26 126.58 15.26 25.23 5.85 25.23 4.1 25.23 0.49 25.23 0.49 126.57 5.85 126.58 5.85 126.57"/></clipPath><linearGradient id="linear-gradient-5" x1="-258.18" y1="399.89" x2="-257.03" y2="399.89" gradientTransform="matrix(0, -92.47, -92.47, 0, 36984.99, -23761.59)" xlink:href="#linear-gradient-3"/><clipPath id="clip-path-6" transform="translate(0.15 -24.67)"><rect class="cls-1" x="16.12" y="87.91" width="0.14" height="5.37"/></clipPath><linearGradient id="linear-gradient-6" x1="-260.12" y1="451.78" x2="-258.97" y2="451.78" gradientTransform="matrix(0, -4.86, -4.86, 0, 2212.41, -1195.41)" gradientUnits="userSpaceOnUse"><stop offset="0" stop-color="#6b6a6a"/><stop offset="0.19" stop-color="#a5a5a6"/><stop offset="0.4" stop-color="#cececf"/><stop offset="0.68" stop-color="#a3a4a4"/><stop offset="1" stop-color="#7b7b7b"/></linearGradient><clipPath id="clip-path-7" transform="translate(0.15 -24.67)"><polygon class="cls-1" points="193.86 126.57 193.86 126.58 199.22 126.57 199.22 25.23 195.61 25.23 193.86 25.23 184.45 25.23 184.45 126.58 193.86 126.57"/></clipPath><linearGradient id="linear-gradient-7" x1="-258.18" y1="399.63" x2="-257.03" y2="399.63" gradientTransform="matrix(0, -92.47, -92.47, 0, 37145.05, -23761.59)" xlink:href="#linear-gradient-3"/></defs><title>垂直弯头4</title><path class="cls-2" d="M162.11,29.9H185v92H162.11a16.3,16.3,0,0,0-16.26,16.26V161h-92V138.15A16.29,16.29,0,0,0,37.6,121.89H14.74v-92H162.11Z" transform="translate(0.15 -24.67)"/><path class="cls-2" d="M162.11,30.42h22.34v91H162.11a16.81,16.81,0,0,0-16.78,16.78v22.34H54.38V138.15A16.81,16.81,0,0,0,37.6,121.37H15.27v-91H162.11Z" transform="translate(0.15 -24.67)"/><g class="cls-3"><rect class="cls-4" x="54.53" y="6.92" width="90.95" height="128.9"/></g><g class="cls-5"><rect class="cls-6" x="15.41" y="5.75" width="169.18" height="90.95"/></g><polygon class="cls-2" points="151.23 135.19 151.23 151.23 48.78 151.23 48.78 145.24 48.78 135.19 151.23 135.19"/><g class="cls-7"><rect class="cls-8" x="49.33" y="135.83" width="101.35" height="14.76"/></g><g class="cls-9"><rect class="cls-10" x="112.8" y="134.82" width="5.36" height="0.14"/></g><polygon class="cls-2" points="16.04 0 0 0 0 102.45 5.99 102.45 16.04 102.45 16.04 0"/><g class="cls-11"><rect class="cls-12" x="0.64" y="0.56" width="14.76" height="101.35"/></g><g class="cls-13"><rect class="cls-14" x="16.26" y="63.24" width="0.14" height="5.37"/></g><polygon class="cls-2" points="183.96 0 200 0 200 102.45 194.01 102.45 183.96 102.45 183.96 0"/><g class="cls-15"><rect class="cls-16" x="184.6" y="0.56" width="14.77" height="101.35"/></g></svg>