<svg id="图层_1" data-name="图层 1" xmlns="http://www.w3.org/2000/svg" xmlns:xlink="http://www.w3.org/1999/xlink" viewBox="0 0 199.82 200" width="100%" height="64px"><defs><style>.cls-1{fill:none;}.cls-2{fill:#3e3a39;fill-rule:evenodd;}.cls-3{clip-path:url(#clip-path);}.cls-4{fill:url(#linear-gradient);}.cls-5{clip-path:url(#clip-path-2);}.cls-6{fill:url(#linear-gradient-2);}.cls-7{clip-path:url(#clip-path-3);}.cls-8{fill:url(#linear-gradient-3);}.cls-9{clip-path:url(#clip-path-4);}.cls-10{fill:url(#linear-gradient-4);}.cls-11{clip-path:url(#clip-path-5);}.cls-12{fill:url(#linear-gradient-5);}.cls-13{clip-path:url(#clip-path-6);}.cls-14{fill:url(#linear-gradient-6);}</style><clipPath id="clip-path" transform="translate(-0.23 -0.17)"><polygon class="cls-1" points="54.77 15.57 54.77 61.2 54.77 133.68 54.77 184.76 145.72 184.76 145.72 133.68 145.72 133.68 145.72 15.57 54.77 15.57"/></clipPath><linearGradient id="linear-gradient" x1="-259.31" y1="395.27" x2="-258.16" y2="395.27" gradientTransform="matrix(-82.35, 0, 0, 82.35, -21201.92, -32450.41)" gradientUnits="userSpaceOnUse"><stop offset="0" stop-color="#231815"/><stop offset="0.19" stop-color="#9e9e9f"/><stop offset="0.4" stop-color="#e8e9e9"/><stop offset="0.68" stop-color="#9e9e9f"/><stop offset="1" stop-color="#484545"/></linearGradient><clipPath id="clip-path-2" transform="translate(-0.23 -0.17)"><path class="cls-1" d="M159.3,54.7H146.15a274,274,0,0,1-91,0H15.66v90.94H54.57c30.43-7.88,60.86-7,91.29,0h39v-91H159.3"/></clipPath><linearGradient id="linear-gradient-2" x1="-259.82" y1="398.23" x2="-258.67" y2="398.23" gradientTransform="matrix(0, 82.35, 82.35, 0, -32695.05, 21444.32)" xlink:href="#linear-gradient"/><clipPath id="clip-path-3" transform="translate(-0.23 -0.17)"><polygon class="cls-1" points="49.57 0.8 49.57 4.42 49.57 6.16 49.57 15.57 150.92 15.57 150.92 6.16 150.92 6.16 150.92 0.8 49.57 0.8"/></clipPath><linearGradient id="linear-gradient-3" x1="-259.18" y1="395.33" x2="-258.03" y2="395.33" gradientTransform="matrix(-92.47, 0, 0, 92.47, -23805.37, -36547.3)" gradientUnits="userSpaceOnUse"><stop offset="0" stop-color="#2b2320"/><stop offset="0.24" stop-color="#9c9c9d"/><stop offset="0.51" stop-color="#f5f5f5"/><stop offset="0.72" stop-color="#9c9c9d"/><stop offset="1" stop-color="#4e4b4a"/></linearGradient><clipPath id="clip-path-4" transform="translate(-0.23 -0.17)"><polygon class="cls-1" points="49.57 184.76 49.57 194.18 49.57 195.92 49.57 199.53 150.92 199.53 150.92 194.18 150.92 194.18 150.92 184.76 49.57 184.76"/></clipPath><linearGradient id="linear-gradient-4" x1="-259.18" y1="395.59" x2="-258.03" y2="395.59" gradientTransform="matrix(-92.47, 0, 0, 92.47, -23805.57, -36387.51)" xlink:href="#linear-gradient-3"/><clipPath id="clip-path-5" transform="translate(-0.23 -0.17)"><polygon class="cls-1" points="6.22 49.18 0.86 49.18 0.86 150.53 4.47 150.53 6.22 150.53 15.63 150.53 15.63 49.18 6.22 49.18"/></clipPath><linearGradient id="linear-gradient-5" x1="-259.63" y1="397.96" x2="-258.48" y2="397.96" gradientTransform="matrix(0, 92.47, 92.47, 0, -36791.06, 24046.95)" xlink:href="#linear-gradient-3"/><clipPath id="clip-path-6" transform="translate(-0.23 -0.17)"><polygon class="cls-1" points="194.06 49.18 184.65 49.18 184.65 150.53 194.06 150.53 195.8 150.53 199.41 150.53 199.41 49.18 194.06 49.18"/></clipPath><linearGradient id="linear-gradient-6" x1="-259.63" y1="398.22" x2="-258.48" y2="398.22" gradientTransform="matrix(0, 92.47, 92.47, 0, -36631.11, 24046.95)" xlink:href="#linear-gradient-3"/></defs><title>十字弯头1</title><path class="cls-2" d="M38,146.17H15.13v-92H38A16.29,16.29,0,0,0,54.25,37.91V15.06h92V37.91A16.29,16.29,0,0,0,162.5,54.17h22.86v92H162.5a16.29,16.29,0,0,0-16.26,16.26v22.86h-92V162.43A16.29,16.29,0,0,0,38,146.17" transform="translate(-0.23 -0.17)"/><path class="cls-2" d="M38,145.65H15.65V54.7H38A16.81,16.81,0,0,0,54.77,37.91V15.58h90.95V37.91A16.81,16.81,0,0,0,162.5,54.69h22.33v91H162.5a16.81,16.81,0,0,0-16.78,16.78v22.34H54.77V162.43A16.81,16.81,0,0,0,38,145.65" transform="translate(-0.23 -0.17)"/><g class="cls-3"><rect class="cls-4" x="54.54" y="15.41" width="90.95" height="169.19"/></g><g class="cls-5"><rect class="cls-6" x="15.43" y="54.53" width="169.18" height="90.95"/></g><polygon class="cls-2" points="48.79 16.04 48.79 0 151.25 0 151.25 5.99 151.25 16.04 48.79 16.04"/><g class="cls-7"><rect class="cls-8" x="49.34" y="0.64" width="101.35" height="14.77"/></g><polygon class="cls-2" points="48.79 183.96 48.79 200 151.25 200 151.25 194.01 151.25 183.96 48.79 183.96"/><g class="cls-9"><rect class="cls-10" x="49.34" y="184.6" width="101.35" height="14.76"/></g><polygon class="cls-2" points="16.04 150.91 0 150.91 0 48.47 5.99 48.47 16.04 48.47 16.04 150.91"/><g class="cls-11"><rect class="cls-12" x="0.64" y="49.01" width="14.77" height="101.35"/></g><polygon class="cls-2" points="183.78 150.91 199.82 150.91 199.82 48.47 193.83 48.47 183.78 48.47 183.78 150.91"/><g class="cls-13"><rect class="cls-14" x="184.42" y="49.01" width="14.76" height="101.35"/></g></svg>