<svg id="图层_1" data-name="图层 1" xmlns="http://www.w3.org/2000/svg" xmlns:xlink="http://www.w3.org/1999/xlink" viewBox="0 0 200 198.26"  width="100%" height="64px"><defs><style>.cls-1{fill:none;}.cls-2{fill:#3e3a39;fill-rule:evenodd;}.cls-3{clip-path:url(#clip-path);}.cls-4{fill:url(#radial-gradient);}.cls-5{clip-path:url(#clip-path-2);}.cls-6{fill:url(#linear-gradient);}.cls-7{clip-path:url(#clip-path-3);}.cls-8{fill:url(#linear-gradient-2);}</style><clipPath id="clip-path" transform="translate(-0.38 -1.01)"><path class="cls-1" d="M200.36,193.3V84A82.92,82.92,0,0,1,117.45,1.11H8.17c0,106.13,86.06,192.19,192.19,192.19"/></clipPath><radialGradient id="radial-gradient" cx="-257.23" cy="395.17" r="1.4" gradientTransform="matrix(-174.06, 0, 0, 174.06, -44547.29, -68815.34)" gradientUnits="userSpaceOnUse"><stop offset="0" stop-color="#484545"/><stop offset="0.17" stop-color="#484545"/><stop offset="0.52" stop-color="#4e4b4a"/><stop offset="0.61" stop-color="#888"/><stop offset="0.79" stop-color="#e5e5e6"/><stop offset="0.96" stop-color="#231815"/><stop offset="1" stop-color="#231815"/></radialGradient><clipPath id="clip-path-2" transform="translate(-0.38 -1.01)"><polygon class="cls-1" points="1.05 8.32 1.05 19.79 124.55 19.79 124.55 8.32 124.55 6.19 124.55 1.8 1.05 1.8 1.05 8.32 1.05 8.32"/></clipPath><linearGradient id="linear-gradient" x1="-260.19" y1="400.32" x2="-258.79" y2="400.32" gradientTransform="matrix(92.47, 0, 0, -92.47, 24047.97, 37026.71)" gradientUnits="userSpaceOnUse"><stop offset="0" stop-color="#2b2320"/><stop offset="0.24" stop-color="#9c9c9d"/><stop offset="0.51" stop-color="#f5f5f5"/><stop offset="0.72" stop-color="#9c9c9d"/><stop offset="1" stop-color="#4e4b4a"/></linearGradient><clipPath id="clip-path-3" transform="translate(-0.38 -1.01)"><polygon class="cls-1" points="181.6 198.6 193.08 198.6 193.08 198.6 199.6 198.6 199.6 75.1 195.2 75.1 193.08 75.1 181.6 75.1 181.6 198.6"/></clipPath><linearGradient id="linear-gradient-2" x1="-255.3" y1="398.56" x2="-253.9" y2="398.56" gradientTransform="matrix(0, -92.47, -92.47, 0, 37044.27, -23397.46)" xlink:href="#linear-gradient"/></defs><title>拐弯弯头2</title><path class="cls-2" d="M200.36,83.39V193.94C94.41,193.94,7.53,107.06,7.53,1.11H118.09c0,45,37.27,82.28,82.27,82.28" transform="translate(-0.38 -1.01)"/><g class="cls-3"><rect class="cls-4" x="7.79" y="0.1" width="192.19" height="192.19"/></g><polygon class="cls-2" points="124.85 19.55 124.84 0 0 0 0 7.31 0 19.55 124.85 19.55"/><g class="cls-5"><rect class="cls-6" x="0.67" y="0.78" width="123.5" height="17.99"/></g><polygon class="cls-2" points="180.45 73.42 200 73.42 200 198.26 192.7 198.26 180.45 198.26 180.45 73.42"/><g class="cls-7"><rect class="cls-8" x="181.22" y="74.09" width="17.99" height="123.5"/></g></svg>