<svg id="图层_1" data-name="图层 1" xmlns="http://www.w3.org/2000/svg" xmlns:xlink="http://www.w3.org/1999/xlink" viewBox="0 0 198.26 200" width="100%" height="64px"><defs><style>.cls-1{fill:none;}.cls-2{fill:#3e3a39;fill-rule:evenodd;}.cls-3{clip-path:url(#clip-path);}.cls-4{fill:url(#radial-gradient);}.cls-5{clip-path:url(#clip-path-2);}.cls-6{fill:url(#linear-gradient);}.cls-7{clip-path:url(#clip-path-3);}.cls-8{fill:url(#linear-gradient-2);}</style><clipPath id="clip-path" transform="translate(-1.25 -0.14)"><path class="cls-1" d="M193.53.16H84.26A82.92,82.92,0,0,1,1.35,83.07V192.35c106.13,0,192.19-86.06,192.19-192.19"/></clipPath><radialGradient id="radial-gradient" cx="-257.23" cy="395.17" r="1.4" gradientTransform="matrix(0, 174.06, 174.06, 0, -68815.34, 44747.29)" gradientUnits="userSpaceOnUse"><stop offset="0" stop-color="#484545"/><stop offset="0.17" stop-color="#484545"/><stop offset="0.52" stop-color="#4e4b4a"/><stop offset="0.61" stop-color="#888"/><stop offset="0.79" stop-color="#e5e5e6"/><stop offset="0.96" stop-color="#231815"/><stop offset="1" stop-color="#231815"/></radialGradient><clipPath id="clip-path-2" transform="translate(-1.25 -0.14)"><polygon class="cls-1" points="8.56 199.47 20.02 199.47 20.02 75.97 8.56 75.97 6.43 75.97 2.03 75.97 2.03 199.47 8.56 199.47 8.56 199.47"/></clipPath><linearGradient id="linear-gradient" x1="-260.19" y1="400.32" x2="-258.79" y2="400.32" gradientTransform="matrix(0, -92.47, -92.47, 0, 37026.71, -23847.97)" gradientUnits="userSpaceOnUse"><stop offset="0" stop-color="#2b2320"/><stop offset="0.24" stop-color="#9c9c9d"/><stop offset="0.51" stop-color="#f5f5f5"/><stop offset="0.72" stop-color="#9c9c9d"/><stop offset="1" stop-color="#4e4b4a"/></linearGradient><clipPath id="clip-path-3" transform="translate(-1.25 -0.14)"><polygon class="cls-1" points="198.84 18.92 198.84 7.44 198.84 7.44 198.84 0.92 75.34 0.92 75.34 5.32 75.34 7.44 75.34 18.92 198.84 18.92"/></clipPath><linearGradient id="linear-gradient-2" x1="-255.3" y1="398.56" x2="-253.9" y2="398.56" gradientTransform="matrix(-92.47, 0, 0, 92.47, -23397.46, -36844.27)" xlink:href="#linear-gradient"/></defs><title>拐弯弯头3</title><path class="cls-2" d="M83.62.16H194.18C194.18,106.11,107.29,193,1.35,193V82.43c45,0,82.28-37.27,82.28-82.27" transform="translate(-1.25 -0.14)"/><g class="cls-3"><rect class="cls-4" x="0.1" y="0.02" width="192.19" height="192.19"/></g><polygon class="cls-2" points="19.55 75.15 0 75.16 0 200 7.31 200 19.55 200 19.55 75.15"/><g class="cls-5"><rect class="cls-6" x="0.78" y="75.83" width="17.99" height="123.5"/></g><polygon class="cls-2" points="73.42 19.55 73.42 0 198.26 0 198.26 7.3 198.26 19.55 73.42 19.55"/><g class="cls-7"><rect class="cls-8" x="74.09" y="0.78" width="123.5" height="17.99"/></g></svg>