<svg id="图层_1" data-name="图层 1" xmlns="http://www.w3.org/2000/svg" xmlns:xlink="http://www.w3.org/1999/xlink" viewBox="0 0 200 198.26" width="100%" height="64px"><defs><style>.cls-1{fill:none;}.cls-2{fill:#3e3a39;fill-rule:evenodd;}.cls-3{clip-path:url(#clip-path);}.cls-4{fill:url(#radial-gradient);}.cls-5{clip-path:url(#clip-path-2);}.cls-6{fill:url(#linear-gradient);}.cls-7{clip-path:url(#clip-path-3);}.cls-8{fill:url(#linear-gradient-2);}</style><clipPath id="clip-path" transform="translate(-0.38 -1.01)"><path class="cls-1" d="M.4,7V116.26a82.92,82.92,0,0,1,82.91,82.91H192.58C192.58,93,106.52,7,.4,7"/></clipPath><radialGradient id="radial-gradient" cx="-257.23" cy="395.17" r="1.4" gradientTransform="matrix(174.06, 0, 0, -174.06, 44747.29, 69013.6)" gradientUnits="userSpaceOnUse"><stop offset="0" stop-color="#484545"/><stop offset="0.17" stop-color="#484545"/><stop offset="0.52" stop-color="#4e4b4a"/><stop offset="0.61" stop-color="#888"/><stop offset="0.79" stop-color="#e5e5e6"/><stop offset="0.96" stop-color="#231815"/><stop offset="1" stop-color="#231815"/></radialGradient><clipPath id="clip-path-2" transform="translate(-0.38 -1.01)"><polygon class="cls-1" points="199.71 191.96 199.71 180.5 76.21 180.5 76.21 191.96 76.21 194.09 76.21 198.49 199.71 198.49 199.71 191.96 199.71 191.96"/></clipPath><linearGradient id="linear-gradient" x1="-260.19" y1="400.32" x2="-258.79" y2="400.32" gradientTransform="matrix(-92.47, 0, 0, 92.47, -23847.97, -36828.45)" gradientUnits="userSpaceOnUse"><stop offset="0" stop-color="#2b2320"/><stop offset="0.24" stop-color="#9c9c9d"/><stop offset="0.51" stop-color="#f5f5f5"/><stop offset="0.72" stop-color="#9c9c9d"/><stop offset="1" stop-color="#4e4b4a"/></linearGradient><clipPath id="clip-path-3" transform="translate(-0.38 -1.01)"><polygon class="cls-1" points="19.15 1.69 7.68 1.69 7.68 1.68 1.16 1.69 1.16 125.18 5.56 125.18 7.68 125.18 19.15 125.18 19.15 1.69"/></clipPath><linearGradient id="linear-gradient-2" x1="-255.3" y1="398.56" x2="-253.9" y2="398.56" gradientTransform="matrix(0, 92.47, 92.47, 0, -36844.27, 23595.72)" xlink:href="#linear-gradient"/></defs><title>拐弯弯头4</title><path class="cls-2" d="M.4,116.9V6.35c105.95,0,192.83,86.88,192.83,192.83H82.67c0-45-37.27-82.28-82.27-82.28" transform="translate(-0.38 -1.01)"/><g class="cls-3"><rect class="cls-4" x="0.02" y="5.98" width="192.19" height="192.19"/></g><polygon class="cls-2" points="75.15 178.71 75.16 198.26 200 198.26 200 190.95 200 178.71 75.15 178.71"/><g class="cls-5"><rect class="cls-6" x="75.83" y="179.48" width="123.5" height="17.99"/></g><polygon class="cls-2" points="19.55 124.84 0 124.84 0 0 7.3 0 19.55 0 19.55 124.84"/><g class="cls-7"><rect class="cls-8" x="0.78" y="0.67" width="17.99" height="123.5"/></g></svg>