<svg id="图层_1" data-name="图层 1" xmlns="http://www.w3.org/2000/svg" viewBox="0 0 512 266" width="512px" height="266px"><defs><style>.cls-1{fill:#eaae07;}</style></defs><title>34</title><g id="_编组_" data-name="&lt;编组&gt;"><path id="_复合路径_" data-name="&lt;复合路径&gt;" class="cls-1" d="M468.67,266H43.33a42.89,42.89,0,0,1-30.61-12.85A43.34,43.34,0,0,1,0,222.45V43.26A43.35,43.35,0,0,1,43.33,0H468.71A43.37,43.37,0,0,1,512,43.29V222.5A43.65,43.65,0,0,1,468.67,266ZM43.33,19.18A24.15,24.15,0,0,0,19.17,43.26V222.45c0,13.21,11.07,24.37,24.17,24.37H468.67c13.1,0,24.17-11.14,24.17-24.32V43.26a24.2,24.2,0,0,0-24.12-24.08Z" transform="translate(0)"/><rect id="_路径_" data-name="&lt;路径&gt;" class="cls-1" x="58.63" y="194.71" width="394.79" height="18.22"/><rect id="_路径_2" data-name="&lt;路径&gt;" class="cls-1" x="58.63" y="145.63" width="394.79" height="18.22"/><path id="_复合路径_2" data-name="&lt;复合路径&gt;" class="cls-1" d="M427.39,88.08a28.05,28.05,0,1,1,28-28.05A27.87,27.87,0,0,1,427.39,88.08Zm0-36.93A8.88,8.88,0,0,0,418.52,60a8.71,8.71,0,0,0,2.56,6.25,8.87,8.87,0,1,0,6.31-15.12Z" transform="translate(0)"/><path id="_复合路径_3" data-name="&lt;复合路径&gt;" class="cls-1" d="M373,93.52H262.19a16.23,16.23,0,0,1-16-16V52.83c0-8.86,7.32-16.34,16-16.34H373c8.51,0,15.7,7.48,15.7,16.34V77.47A15.9,15.9,0,0,1,373,93.52ZM265.37,74.34H369.54V55.67H265.37Z" transform="translate(0)"/></g></svg>