<svg id="图层_1" data-name="图层 1" 
    xmlns="http://www.w3.org/2000/svg" viewBox="0 0 64 64" width="64px" height="64px">
    <defs>
        <style></style>
    </defs>
    <title>电池</title>
  <path class="canChangeFill"  style="fill:#586e7c;" d="M27.62.12,2.61.26A2.63,2.63,0,0,0,0,2.9l.13,25a2.55,2.55,0,0,0,1.22,2.18l4.18,4.13,0,0c.15.18.3.35.47.51l27.28,27A7.61,7.61,0,0,0,44,61.64l17.78-18a7.61,7.61,0,0,0-.06-10.73l-27.28-27c-.17-.16-.34-.32-.52-.46l0,0L29.81,1.32A2.55,2.55,0,0,0,27.62.12Zm13.6,49.64a2.53,2.53,0,0,1-3.58,0l-18-17.71a2.53,2.53,0,0,1,3.54-3.61l18,17.71A2.53,2.53,0,0,1,41.22,49.76ZM13,13.16A3.79,3.79,0,1,1,13,7.8,3.79,3.79,0,0,1,13,13.16ZM51.23,40a2.53,2.53,0,0,1-3.58,0l-18-17.71a2.53,2.53,0,0,1,3.54-3.61l18,17.71A2.53,2.53,0,0,1,51.23,40Z"/>
</svg>