<svg id="图层_1" data-name="图层 1" 
    xmlns="http://www.w3.org/2000/svg" viewBox="0 0 64 64" width="64px" height="64px">
    <defs>
        <style></style>
    </defs>
    <title>蓝牙</title>
    <path  class="canChangeFill" style="fill:#586e7c;" d="M52.75,15.93,29.9.25a1.39,1.39,0,0,0-2.17,1.14V28.11l-11.58-12a2.68,2.68,0,0,0-3.79-.06l-.45.43a2.68,2.68,0,0,0-.06,3.79l11.65,12L11.46,44a2.68,2.68,0,0,0-.06,3.79l.43.45a2.68,2.68,0,0,0,3.79.06l12-11.65.07.07V62.61a1.39,1.39,0,0,0,2.18,1.13L52.15,48.1a1.39,1.39,0,0,0,0-2.27L32.59,32.06,52.75,18.22A1.39,1.39,0,0,0,52.75,15.93Z"/>
</svg>