<svg id="图层_1" data-name="图层 1" xmlns="http://www.w3.org/2000/svg" viewBox="0 0 426 512" width="426px" height="512px"><defs><style>.cls-1{fill:#72e800;}</style></defs><title>36</title><g id="_编组_" data-name="&lt;编组&gt;"><path id="_复合路径_" data-name="&lt;复合路径&gt;" class="cls-1" d="M376.46,488.37h0l-29.76.12-72-71.93C362.23,390.14,426,308.92,426,212.8,426,95.28,330.64,0,213,0S0,95.28,0,212.8c0,99.1,67.8,182.38,159.59,206.06L93,485.39a11.08,11.08,0,0,0-2.61,4.13l-35.92.14a11.17,11.17,0,0,0,0,22.34h0l321.93-1.3a11.17,11.17,0,0,0,0-22.34ZM138.8,388.31a191.51,191.51,0,1,1,74.2,15A190.07,190.07,0,0,1,138.8,388.31ZM120.61,489.4l65.53-65.47a215.5,215.5,0,0,0,62.92-1.36l66.11,66Z"/><path id="_复合路径_2" data-name="&lt;复合路径&gt;" class="cls-1" d="M336,229.56A123,123,0,1,0,213,352.41,122.91,122.91,0,0,0,336,229.56ZM213,330.07a100.56,100.56,0,1,1,71.14-29.44A100,100,0,0,1,213,330.07Z"/><path id="_路径_" data-name="&lt;路径&gt;" class="cls-1" d="M213.86,86.41A21.78,21.78,0,1,0,198.45,80,22.06,22.06,0,0,0,213.86,86.41Z"/></g></svg>