<svg id="图层_1" data-name="图层 1" 
    xmlns="http://www.w3.org/2000/svg" viewBox="0 0 64 64" width="64px" height="64px">
    <defs>
        <style></style>
    </defs>
    <title>组件</title>
    <path  class="canChangeFill" style="fill:#586e7c;" d="M56.62,6.15H7.38A7.41,7.41,0,0,0,0,13.54V50.46a7.41,7.41,0,0,0,7.38,7.38H56.62A7.41,7.41,0,0,0,64,50.46V13.54A7.41,7.41,0,0,0,56.62,6.15ZM18.77,29.85a2.47,2.47,0,0,1-2.46,2.46V46.77a2.46,2.46,0,0,1-4.92,0V32.31a2.47,2.47,0,0,1-2.46-2.46V24.92a2.47,2.47,0,0,1,2.46-2.46V17.23a2.46,2.46,0,0,1,4.92,0v5.23a2.47,2.47,0,0,1,2.46,2.46ZM36.62,40.92a2.46,2.46,0,0,1-2.15,2.43v3.42a2.46,2.46,0,1,1-4.92,0V43.38h-.31a2.47,2.47,0,0,1-2.46-2.46V36a2.47,2.47,0,0,1,2.46-2.46h.31V17.23a2.46,2.46,0,0,1,4.92,0V33.57A2.46,2.46,0,0,1,36.62,36ZM53.85,28.62a2.47,2.47,0,0,1-2.46,2.46V46.77a2.46,2.46,0,1,1-4.92,0V31.08A2.47,2.47,0,0,1,44,28.62V23.69a2.47,2.47,0,0,1,2.46-2.46v-4a2.46,2.46,0,1,1,4.92,0v4a2.47,2.47,0,0,1,2.46,2.46Z"/>
</svg>