<svg id="图层_1" data-name="图层 1" xmlns="http://www.w3.org/2000/svg" viewBox="0 0 410 512" width="410px" height="512px"><defs><style>.cls-1{fill:#33adff;}</style></defs><title>27</title><g id="_编组_" data-name="&lt;编组&gt;"><path id="_路径_" data-name="&lt;路径&gt;" class="cls-1" d="M58.1,306.85A15,15,0,0,0,76,295.35a152.26,152.26,0,0,1,17.56-44.78,14.94,14.94,0,0,0,1.65-2.77c.37-.79,36-77.83,130.67-207,7.89,11.22,15.64,22.4,23.15,33.38a15.06,15.06,0,0,0,24.88-17C262.56,40.5,250.63,23.42,238.5,6.38a15.4,15.4,0,0,0-1-1.24l0,0-.35-.38-.2-.21-.17-.17a15.07,15.07,0,0,0-2.85-2.22l-.09-.05-.52-.3-.24-.12-.39-.2-.37-.17-.27-.12L231.58,1l-.17-.06-.56-.2-.1,0-.62-.18-.07,0-.64-.16-.07,0-.62-.12-.11,0-.58-.08-.17,0-.51,0-.25,0-.43,0h-1.35l-.53,0h-.15l-.6.07H224l-.64.11h-.06l-.65.14h-.06l-.63.17-.09,0-.57.19-.16.06-.49.18-.26.11-.38.16-.39.18-.24.12-.53.28-.1.06a15,15,0,0,0-2.9,2.15l-.17.16-.2.2-.36.37,0,0a15.49,15.49,0,0,0-1,1.22C114.94,139,74.59,221,68.59,233.67l-.08.12a182.32,182.32,0,0,0-21.92,55.14A15.06,15.06,0,0,0,58.1,306.85Z"/><path id="_路径_2" data-name="&lt;路径&gt;" class="cls-1" d="M410,328.28a183.38,183.38,0,0,0-26.15-94.49q-.21-.35-.44-.69c-.66-1.25-1.73-3.25-3.21-6a15.07,15.07,0,0,0-26.48,14.39c2.42,4.45,3.65,6.82,3.7,6.92a15.51,15.51,0,0,0,1.33,2.12,153.3,153.3,0,0,1,21.11,77.73c0,1.61,0,3.21-.08,4.81a40.44,40.44,0,0,1-80.72-.05c0-.8,0-1.61,0-2.41A15.06,15.06,0,0,0,284,315.57h-.13a15.06,15.06,0,0,0-15.07,15.06c0,.78,0,1.57,0,2.34a39.15,39.15,0,0,1-12.61,25.95,43.2,43.2,0,0,1-55.18,4,15.06,15.06,0,1,0-17.34,24.64,73.57,73.57,0,0,0,42.47,13.57,74.52,74.52,0,0,0,57.34-27.46,70.56,70.56,0,0,0,80.22,23.12,153.86,153.86,0,0,1-223.23,59,15.06,15.06,0,1,0-16.81,25A183.81,183.81,0,0,0,409.87,334.78c.08-1.38.13-2.76.13-4.16,0-.26,0-.51,0-.76C410,329.34,410,328.81,410,328.28Z"/><path id="_路径_3" data-name="&lt;路径&gt;" class="cls-1" d="M405.59,57.42a15.07,15.07,0,0,0-21.31,0L4.41,437.08a15.06,15.06,0,0,0,21.31,21.29L405.59,78.71A15.06,15.06,0,0,0,405.59,57.42Z"/></g></svg>