<svg id="图层_1" data-name="图层 1" 
    xmlns="http://www.w3.org/2000/svg" viewBox="0 0 64 64" width="64px" height="64px">
    <defs>
        <style></style>
    </defs>
    <title>编辑</title>
    <path class="canChangeFill" style="fill:#586e7c;" d="M58,11.83,43.34.85c-2.69-2-7.4-.31-10.46,3.78L30.38,8,54.74,26.44l2.62-3.5C60.42,18.84,60.72,13.84,58,11.83Z"/>
    <path class="canChangeFill" style="fill:#586e7c;" d="M6.73,41.13a1.63,1.63,0,0,0-2.58,1.55l3,19.94A1.63,1.63,0,0,0,9,64l20-2.73a1.63,1.63,0,0,0,.75-2.92Z"/>
    <path class="canChangeFill" style="fill:#586e7c;" d="M6.9,39.38l24.49,18.3,22.41-30L29.43,9.24Zm36.19-14a2.68,2.68,0,0,1,.54,3.74L30.84,46.2A2.67,2.67,0,1,1,26.56,43L39.35,25.89A2.68,2.68,0,0,1,43.09,25.35Zm-9.35-6.68a2.68,2.68,0,0,1,.54,3.74L21.49,39.52a2.67,2.67,0,0,1-4.28-3.2L30,19.21A2.68,2.68,0,0,1,33.74,18.67Z"/>
</svg>