<svg id="图层_1" data-name="图层 1" xmlns="http://www.w3.org/2000/svg" viewBox="0 0 512 442" width="512px" height="442px"><defs><style>.cls-1{fill:#33adff;}</style></defs><title>2</title><path class="cls-1" d="M425,442a17,17,0,0,1-12-29.06A222,222,0,1,0,99.05,99.05a222,222,0,0,0,0,313.9A17,17,0,1,1,75,437a256.14,256.14,0,1,1,362,0A17,17,0,0,1,425,442Z" transform="translate(0 0)"/><path class="cls-1" d="M316.8,342.78H295.08l-9.55-31.27H226.47L216,342.78h-20l47.77-141.57H269.9Zm-36.48-48.64L256,218.58l-24.32,75.56Z" transform="translate(0 0)"/></svg>