<svg id="图层_1" data-name="图层 1" 
    xmlns="http://www.w3.org/2000/svg" viewBox="0 0 64 64" width="64px" height="64px">
    <defs>
        <style></style>
    </defs>
    <title>导出</title>
    <path class="canChangeFill" style="fill:#586e7c;" d="M32,0A32,32,0,1,0,64,32,32,32,0,0,0,32,0ZM22.35,17l7.26-7.17A3.06,3.06,0,0,1,32.19,9a3,3,0,0,1,2.54.87l7.17,7.26a3.08,3.08,0,0,1,0,4.34h0a3.06,3.06,0,0,1-4.32,0l-2.8-2.84L34.57,42a2.67,2.67,0,0,1-5.33,0l.18-23.35-2.75,2.72A3.06,3.06,0,0,1,22.35,17ZM43.86,51.62h-24a1.33,1.33,0,0,1,0-2.67h24a1.33,1.33,0,0,1,0,2.67Z"/>
</svg>