<svg id="图层_1" data-name="图层 1" 
    xmlns="http://www.w3.org/2000/svg" viewBox="0 0 64 64" width="64px" height="64px">
    <defs>
        <style></style>
    </defs>
    <title>文件</title>
    <path class="canChangeFill" style="fill:#586e7c;" d="M64,19.69H0s0,.06,0,.09V53.55c0,3.71,3.32,6.75,7.38,6.75H56.62c4.06,0,7.38-3,7.38-6.75V19.79S64,19.72,64,19.69Z"/>
    <path class="canChangeFill" style="fill:#586e7c;" d="M11.08,16H28.31a4.89,4.89,0,0,0,1-.1H64a7.4,7.4,0,0,0-7.38-7.28H33.23a4.94,4.94,0,0,0-4.92-4.92H11.08A4.94,4.94,0,0,0,6.15,8.62v.11A7.41,7.41,0,0,0,0,15.9H10.08A4.89,4.89,0,0,0,11.08,16Z"/>
</svg>