<svg id="图层_1" data-name="图层 1" 
    xmlns="http://www.w3.org/2000/svg" viewBox="0 0 64 64" width="64px" height="64px">
    <defs>
        <style></style>
    </defs>
    <title>图库</title>
    <path class="canChangeFill" style="fill:#586e7c;" d="M56.62,6.31H7.38A7.41,7.41,0,0,0,0,13.69V50.62A7.41,7.41,0,0,0,7.38,58H56.62A7.41,7.41,0,0,0,64,50.62V13.69A7.41,7.41,0,0,0,56.62,6.31ZM9.85,12.46a3.69,3.69,0,1,1-3.69,3.69A3.69,3.69,0,0,1,9.85,12.46ZM60,49.28H4.59A1.3,1.3,0,0,1,3.78,47L16,37.27a1.3,1.3,0,0,1,1.61,0l9.27,7.34L41.84,27.48a1.28,1.28,0,0,1,1.92,0L60.94,47.16A1.28,1.28,0,0,1,60,49.28Z"/>
</svg>