<svg id="图层_1" data-name="图层 1" xmlns="http://www.w3.org/2000/svg" viewBox="0 0 512 512" width="512px" height="512px"><defs><style>.cls-1{fill:#eaae07;}</style></defs><title>16</title><path id="_复合路径_" data-name="&lt;复合路径&gt;" class="cls-1" d="M256,390.88a134.88,134.88,0,1,1,95.38-39.51A134,134,0,0,1,256,390.88Zm0-242.24A107.35,107.35,0,1,0,363.35,256,107.48,107.48,0,0,0,256,148.65Zm0,0"/><path id="_复合路径_2" data-name="&lt;复合路径&gt;" class="cls-1" d="M256,93.59a13.76,13.76,0,0,1-13.76-13.76V13.76a13.76,13.76,0,0,1,27.53,0V79.83A13.76,13.76,0,0,1,256,93.59Zm0,0"/><path id="_复合路径_3" data-name="&lt;复合路径&gt;" class="cls-1" d="M256,512a13.76,13.76,0,0,1-13.76-13.77V432.17a13.76,13.76,0,1,1,27.53,0v66.06A13.77,13.77,0,0,1,256,512Zm0,0"/><path id="_复合路径_4" data-name="&lt;复合路径&gt;" class="cls-1" d="M498.24,269.76H432.17a13.76,13.76,0,0,1,0-27.53h66.06a13.76,13.76,0,0,1,0,27.53Zm0,0"/><path id="_复合路径_5" data-name="&lt;复合路径&gt;" class="cls-1" d="M79.83,269.76H13.76a13.76,13.76,0,0,1,0-27.53H79.83a13.76,13.76,0,0,1,0,27.53Zm0,0"/><path id="_复合路径_6" data-name="&lt;复合路径&gt;" class="cls-1" d="M381.05,144.71a13.76,13.76,0,0,1-9.73-23.5L418,74.5A13.76,13.76,0,0,1,437.5,94l-46.72,46.71a13.72,13.72,0,0,1-9.73,4Zm0,0"/><path id="_复合路径_7" data-name="&lt;复合路径&gt;" class="cls-1" d="M85.19,440.57a13.76,13.76,0,0,1-9.73-23.5l46.72-46.72a13.76,13.76,0,0,1,19.46,19.46L94.92,436.54a13.72,13.72,0,0,1-9.73,4Zm0,0"/><path id="_复合路径_8" data-name="&lt;复合路径&gt;" class="cls-1" d="M427.77,440.57a13.73,13.73,0,0,1-9.73-4l-46.71-46.72a13.76,13.76,0,0,1,19.46-19.46l46.72,46.72a13.76,13.76,0,0,1-9.73,23.5Zm0,0"/><path id="_复合路径_9" data-name="&lt;复合路径&gt;" class="cls-1" d="M131.91,144.71a13.72,13.72,0,0,1-9.73-4L75.46,94A13.76,13.76,0,1,1,94.92,74.5l46.72,46.72a13.76,13.76,0,0,1-9.73,23.5Zm0,0"/></svg>