<svg id="图层_1" data-name="图层 1" xmlns="http://www.w3.org/2000/svg" viewBox="0 0 506 512" width="506px" height="512px"><defs><style>.cls-1{fill:#eaae07;}</style></defs><title>35</title><g id="_编组_" data-name="&lt;编组&gt;"><rect id="_路径_" data-name="&lt;路径&gt;" class="cls-1" x="242.72" y="440.05" width="20.68" height="71.95" rx="10.34" ry="10.34"/><path id="_路径_2" data-name="&lt;路径&gt;" class="cls-1" d="M431.91,438h0a10.33,10.33,0,0,0,0-14.61L395.61,387.1a10.35,10.35,0,0,0-14.62,0h0a10.33,10.33,0,0,0,0,14.61L417.28,438A10.35,10.35,0,0,0,431.91,438Z"/><path id="_路径_3" data-name="&lt;路径&gt;" class="cls-1" d="M74.17,438h0a10.35,10.35,0,0,0,14.62,0l36.29-36.27a10.33,10.33,0,0,0,0-14.61h0a10.35,10.35,0,0,0-14.62,0L74.17,423.37A10.33,10.33,0,0,0,74.17,438Z"/><rect id="_路径_4" data-name="&lt;路径&gt;" class="cls-1" y="243.02" width="72.04" height="20.66" rx="10.33" ry="10.33"/><rect id="_路径_5" data-name="&lt;路径&gt;" class="cls-1" x="433.96" y="243.02" width="72.04" height="20.66" rx="10.33" ry="10.33"/><path class="cls-1" d="M253.09,404.44c-41.3,0-79-15.3-106.09-43.07s-41.85-66-41.85-108c0-49.44,22.67-89,42.68-123.88l.1-.17c9.67-16.9,21.71-38,21.71-48.16V24.8A24.84,24.84,0,0,1,194.45,0h98.46A25.21,25.21,0,0,1,318.1,25.17V80.91a9.65,9.65,0,0,1-9.66,9.65H210.52a9.65,9.65,0,1,1,0-19.3h88.27V25.17a5.88,5.88,0,0,0-5.88-5.87H194.45a5.51,5.51,0,0,0-5.51,5.5V81.14c0,15.32-11.79,35.93-24.27,57.75l-.1.18c-18.8,32.79-40.11,70-40.11,114.27,0,36.95,12.91,70.53,36.36,94.55s56.21,37.25,92.27,37.25,68.81-13.23,92.25-37.25,36.36-57.6,36.36-94.55C381.68,214,363.58,183,346.08,153c-2-3.5-4.16-7.12-6.19-10.67-1.75-3.05-3.91-6.5-6.21-10.14-3.42-5.44-7-11.07-9.47-16a9.65,9.65,0,0,1,17.22-8.74c2.11,4.16,5.41,9.41,8.61,14.48,2.29,3.65,4.67,7.42,6.61,10.82s4.09,7.07,6.11,10.53C380.67,173.94,401,208.73,401,253.34c0,42-14.86,80.38-41.85,108S294.38,404.44,253.09,404.44Z"/></g></svg>