<svg id="图层_1" data-name="图层 1" xmlns="http://www.w3.org/2000/svg" viewBox="0 0 512 512" width="512px" height="512px"><defs><style>.cls-1{fill:#33adff;}</style></defs><title>12</title><ellipse class="cls-1" cx="254.82" cy="259.51" rx="57.27" ry="57.37"/><path class="cls-1" d="M254.82,389.15c-71.36,0-129.41-58.16-129.41-129.64s58.05-129.64,129.41-129.64S384.23,188,384.23,259.51,326.18,389.15,254.82,389.15Zm0-236c-58.52,0-106.13,47.7-106.13,106.32S196.3,365.83,254.82,365.83,361,318.14,361,259.51,313.34,153.19,254.82,153.19Z" transform="translate(0)"/><path class="cls-1" d="M335.64,512a38.05,38.05,0,0,1-37-28.81L269.15,365.52l11.33-2.82a107,107,0,0,0,77.69-78.89l2.66-11.39L481.6,301.09a38.16,38.16,0,0,1,26.82,50.64,270.15,270.15,0,0,1-159.69,158A38.2,38.2,0,0,1,335.64,512ZM297.29,382l24,95.5a14.82,14.82,0,0,0,19.5,10.28A246,246,0,0,0,486.64,343.47a14.83,14.83,0,0,0-10.41-19.69l-98.56-23.4A129.83,129.83,0,0,1,297.29,382Z" transform="translate(0)"/><path class="cls-1" d="M360.63,245.09l-2.82-11.34A107,107,0,0,0,279.13,156l-11.36-2.67,29.34-124a38.1,38.1,0,0,1,50-27.08,270.13,270.13,0,0,1,162.7,162.2,38.09,38.09,0,0,1-26.57,49.8Zm-65-108.62a129.82,129.82,0,0,1,81.39,80.44l100.44-25.3a14.71,14.71,0,0,0,9.51-7.46,14.4,14.4,0,0,0,.85-11.78A245.4,245.4,0,0,0,339.24,24.19a14.78,14.78,0,0,0-12.19.93,14.57,14.57,0,0,0-7.3,9.56Z" transform="translate(0)"/><path class="cls-1" d="M148.84,246.44,29.26,218A38.08,38.08,0,0,1,4.73,199.36a38.46,38.46,0,0,1-2.64-31A270.17,270.17,0,0,1,159,4.9a38.07,38.07,0,0,1,50.78,26.22L240.53,153.5l-11.33,2.81a107.06,107.06,0,0,0-77.69,78.75ZM172.91,25.6a14.91,14.91,0,0,0-5.43,1A245.8,245.8,0,0,0,24.1,176a14.87,14.87,0,0,0,1,12.13,14.56,14.56,0,0,0,9.51,7.24L132,218.48A129.83,129.83,0,0,1,212.39,137L187.24,36.81A14.85,14.85,0,0,0,172.91,25.6Z" transform="translate(0)"/><path class="cls-1" d="M177.14,511.84A38,38,0,0,1,164,509.51,269.64,269.64,0,0,1,5.73,354.08a38.15,38.15,0,0,1,26.19-50.84L149,273.76l2.81,11.36A107,107,0,0,0,230.48,363l11.36,2.67L214.2,482.51a38.07,38.07,0,0,1-37.06,29.33ZM132.52,302,37.59,325.86a14.83,14.83,0,0,0-10.17,19.76A246.33,246.33,0,0,0,172,487.62a14.8,14.8,0,0,0,19.51-10.49l22.38-94.59A129.82,129.82,0,0,1,132.52,302Z" transform="translate(0)"/></svg>