<svg id="图层_1" data-name="图层 1" 
    xmlns="http://www.w3.org/2000/svg" viewBox="0 0 64 64" width="64px" height="64px">
    <defs>
        <style></style>
    </defs>
    <title>列表</title>
    <path class="canChangeFill" style="fill:#586e7c;" d="M56.62,6.15H7.38A7.41,7.41,0,0,0,0,13.54V50.46a7.41,7.41,0,0,0,7.38,7.38H56.62A7.41,7.41,0,0,0,64,50.46V13.54A7.41,7.41,0,0,0,56.62,6.15ZM12.55,48A3.69,3.69,0,1,1,16,44.06,3.69,3.69,0,0,1,12.55,48Zm0-12.31A3.69,3.69,0,1,1,16,31.75,3.69,3.69,0,0,1,12.55,35.68Zm0-11.08A3.69,3.69,0,1,1,16,20.68,3.69,3.69,0,0,1,12.55,24.61ZM50.46,46.77H25.85a2.46,2.46,0,1,1,0-4.92H50.46a2.46,2.46,0,0,1,0,4.92Zm0-12.31H25.85a2.46,2.46,0,1,1,0-4.92H50.46a2.46,2.46,0,0,1,0,4.92Zm0-11.08H25.85a2.46,2.46,0,1,1,0-4.92H50.46a2.46,2.46,0,0,1,0,4.92Z"/>
</svg>