<svg id="图层_1" data-name="图层 1" xmlns="http://www.w3.org/2000/svg" viewBox="0 0 512 442" width="512px" height="442px"><defs><style>.cls-1{fill:#5050ff;}</style></defs><title>5</title><path class="cls-1" d="M425,442a17,17,0,0,1-12-29.06A222,222,0,0,0,99.05,99.05a222,222,0,0,0,0,313.89A17,17,0,1,1,75,437a256.14,256.14,0,1,1,362,0A17,17,0,0,1,425,442Z"/><path class="cls-1" d="M259.15,369.17h-.35a10.21,10.21,0,0,1-9.6-7.87L215.54,218.21,184.66,314.7a10.21,10.21,0,0,1-19.29.47L152.07,279.7H101.25a10.21,10.21,0,1,1,0-20.43h57.9a10.21,10.21,0,0,1,9.56,6.63l5.46,14.57,33.14-103.57a10.21,10.21,0,0,1,19.67.77L260.46,320l31-100.85a10.21,10.21,0,0,1,19.45-.23l13.46,40.39h50.54a10.21,10.21,0,1,1,0,20.43H317a10.21,10.21,0,0,1-9.69-7l-5.71-17.14L268.91,362A10.21,10.21,0,0,1,259.15,369.17Z"/><path class="cls-1" d="M427.57,279.7H417a10.21,10.21,0,1,1,0-20.43h10.53a10.21,10.21,0,1,1,0,20.43Z"/></svg>