<svg id="图层_1" data-name="图层 1" xmlns="http://www.w3.org/2000/svg" viewBox="0 0 512 492" width="512px" height="492px"><defs><style>.cls-1{fill:#72e800;}</style></defs><title>30</title><g id="_编组_" data-name="&lt;编组&gt;"><path id="_复合路径_" data-name="&lt;复合路径&gt;" class="cls-1" d="M245.11,110.76c99.83,0,181.05,81.21,181.05,181S344.95,472.84,245.11,472.84,64.06,391.62,64.06,291.79s81.22-181,181.05-181m0-19.16C134.71,91.6,44.9,181.39,44.9,291.79S134.71,492,245.11,492s200.21-89.83,200.21-200.21S355.5,91.6,245.11,91.6Z"/><path id="_路径_" data-name="&lt;路径&gt;" class="cls-1" d="M74.52,159.8a53.89,53.89,0,1,0-20.62,4.1A54.06,54.06,0,0,0,74.52,159.8Z"/><path id="_路径_2" data-name="&lt;路径&gt;" class="cls-1" d="M425,56.12a41.2,41.2,0,0,0-29.14,70.34,41.2,41.2,0,1,0,58.27-58.27A41.7,41.7,0,0,0,425,56.12Z"/><path id="_路径_3" data-name="&lt;路径&gt;" class="cls-1" d="M504.44,7.56a25.82,25.82,0,0,0-44.08,18.26,25.82,25.82,0,0,0,51.65,0A26.13,26.13,0,0,0,504.44,7.56Z"/><path id="_路径_4" data-name="&lt;路径&gt;" class="cls-1" d="M155,56.14a20.21,20.21,0,0,0,14.29-34.5,20.21,20.21,0,1,0-28.58,28.58A20.46,20.46,0,0,0,155,56.14Z"/><path id="_复合路径_2" data-name="&lt;复合路径&gt;" class="cls-1" d="M187.47,207.15q-37.59,0-58.63,21T107.79,287q0,27,10.63,45t27.74,26.33q17.1,8.27,43.21,8.3,25.68,0,42.9-9.63a65.3,65.3,0,0,0,26.31-26.94q9.09-17.33,9.1-44.37,0-37.27-20.85-57.94T187.47,207.15ZM211.57,321q-8.44,10-23.78,10-15,0-23.62-10.22t-8.69-33.58q0-23.55,8.75-33.78t23.16-10.22q15,0,23.85,10.06t8.8,31.85Q220,311,211.57,321Z"/><path id="_路径_5" data-name="&lt;路径&gt;" class="cls-1" d="M339.16,263.7c-5.56-2.28-13.33-3.44-23.3-3.44-9.58,0-17.06,1.18-22.48,3.57a28.13,28.13,0,0,0-12.56,10.31q-4.45,6.69-6.12,18.7l28.42,2.31c.78-5.75,2.33-9.79,4.62-12.07a13.17,13.17,0,0,1,17.57-.11,10.67,10.67,0,0,1,3.44,8c0,2.87-1.16,5.93-3.47,9.12s-7.65,7.88-16,14c-13.61,10.11-22.88,17.57-27.83,24.93s-7.91,22.46-8.88,22.46h77.74v-18H313.43c2.57,0,4.83-5.95,6.76-7.51s5.75-5,11.46-8.94c9.61-6.77,16.24-13.31,19.89-19a33.1,33.1,0,0,0,5.47-18,27.91,27.91,0,0,0-4.77-15.92A28.31,28.31,0,0,0,339.16,263.7Z"/></g></svg>