<svg id="图层_1" data-name="图层 1" xmlns="http://www.w3.org/2000/svg" viewBox="0 0 428 512" width="428px" height="512px"><defs><style>.cls-1{fill:#5050ff;}</style></defs><title>10</title><path class="cls-1" d="M322.68,134.93H105.32a18.5,18.5,0,0,1-18.49-18.47V75a18.5,18.5,0,0,1,18.49-18.47H322.68A18.5,18.5,0,0,1,341.18,75v41.5A18.5,18.5,0,0,1,322.68,134.93ZM108.44,113.34H319.56V78.08H108.44Z"/><path class="cls-1" d="M297.94,67.64H276.33V42.82a21.27,21.27,0,0,0-21.26-21.23H172.93a21.27,21.27,0,0,0-21.26,21.23V67.64H130.06V42.82A42.89,42.89,0,0,1,172.93,0h82.14a42.89,42.89,0,0,1,42.87,42.82Z"/><path class="cls-1" d="M317.28,326.7H110.72a18.14,18.14,0,0,1-18.13-18.11V266.37a18.14,18.14,0,0,1,18.13-18.11H317.28a18.14,18.14,0,0,1,18.13,18.11v42.22A18.14,18.14,0,0,1,317.28,326.7ZM114.21,305.11H313.79V269.85H114.21Z"/><rect class="cls-1" x="108.44" y="124.13" width="21.62" height="134.93"/><rect class="cls-1" x="155.82" y="124.13" width="21.62" height="134.93"/><rect class="cls-1" x="203.19" y="124.13" width="21.62" height="134.93"/><rect class="cls-1" x="250.57" y="124.13" width="21.62" height="134.93"/><rect class="cls-1" x="297.94" y="124.13" width="21.62" height="134.93"/><path class="cls-1" d="M330.47,241.07H298v-95h32.42a40.37,40.37,0,0,1,40.35,40.3v14.39A40.37,40.37,0,0,1,330.47,241.07Zm-10.81-21.59h10.81a18.74,18.74,0,0,0,18.73-18.71V186.38a18.74,18.74,0,0,0-18.73-18.71H319.66Z"/><path class="cls-1" d="M306.23,473.5H121.77A10.8,10.8,0,0,1,111,462.71v-48a19.7,19.7,0,0,1,19.69-19.67H297.34A19.7,19.7,0,0,1,317,414.73v48A10.8,10.8,0,0,1,306.23,473.5ZM132.58,451.91H295.42V416.65H132.58Z"/><rect class="cls-1" x="140.87" y="315.91" width="21.62" height="89.95"/><rect class="cls-1" x="265.52" y="316.27" width="21.62" height="89.95"/><path class="cls-1" d="M417.19,473.5H10.81a10.79,10.79,0,1,1,0-21.59H417.19a10.79,10.79,0,1,1,0,21.59Z"/><path class="cls-1" d="M72.16,512a10.8,10.8,0,0,1-10.81-10.79v-77a10.81,10.81,0,0,1,21.62,0v77A10.8,10.8,0,0,1,72.16,512Z"/><path class="cls-1" d="M357.49,512a10.8,10.8,0,0,1-10.81-10.79v-77a10.81,10.81,0,0,1,21.62,0v77A10.8,10.8,0,0,1,357.49,512Z"/></svg>