<svg id="图层_1" data-name="图层 1" xmlns="http://www.w3.org/2000/svg" viewBox="0 0 450 512" width="450px" height="512px"><defs><style>.cls-1{fill:#33adff;}</style></defs><title>17</title><g id="_编组_" data-name="&lt;编组&gt;"><path id="_复合路径_" data-name="&lt;复合路径&gt;" class="cls-1" d="M448.06,281.93a13.77,13.77,0,0,0-18.87-4.77l-66.75,39.79L256.8,256l105.64-61,65.81,38A13.76,13.76,0,1,0,442,209.14l-52-30,44.94-25.94a13.76,13.76,0,1,0-13.77-23.84L376,155.4l-.87-62.31a13.77,13.77,0,0,0-27.53.39l1.09,77.69L241.84,232.82V107.71l65.8-38a13.76,13.76,0,1,0-13.77-23.84l-52,30V13.76a13.77,13.77,0,0,0-27.53,0V76.19L159.9,45.79a13.76,13.76,0,1,0-13.43,24l67.84,37.9V231.45L105.53,168.66v-76A13.77,13.77,0,0,0,78,92.7v60.07l-57.34-33.1A13.76,13.76,0,1,0,6.89,143.51l57.57,33.23L10.92,208.65A13.76,13.76,0,0,0,25,232.29l66.75-39.79,110,63.47-110,63.48L26,281.47a13.76,13.76,0,1,0-13.77,23.84l52,30L17.64,362.23a13.77,13.77,0,1,0,13.77,23.84l46.82-27,.87,62.31a13.77,13.77,0,0,0,13.76,13.57h.19a13.77,13.77,0,0,0,13.57-14l-1.09-77.69L214.31,280.5V404.29l-65.81,38a13.76,13.76,0,1,0,13.77,23.84l52-30v62.16a13.77,13.77,0,0,0,27.53,0V435.81l54.41,30.4a13.76,13.76,0,1,0,13.43-24l-67.84-37.9V279.13l106.83,61.66v76a13.77,13.77,0,0,0,27.53,0V356.68l47.54,27.44a13.76,13.76,0,1,0,13.77-23.84l-47.77-27.58,53.54-31.91a13.76,13.76,0,0,0,4.77-18.87Zm0,0" transform="translate(0)"/></g></svg>