<svg id="图层_1" data-name="图层 1" xmlns="http://www.w3.org/2000/svg" viewBox="0 0 512 466" width="512px" height="466px"><defs><style>.cls-1{fill:#33adff;}</style></defs><title>24</title><path class="cls-1" d="M392.36,466H119.64a11.28,11.28,0,0,1-10.95-8.61L.33,14a11.27,11.27,0,1,1,21.9-5.37L128.49,443.41h255L489.77,8.61A11.27,11.27,0,1,1,511.67,14L403.31,457.39A11.28,11.28,0,0,1,392.36,466Z"/><path class="cls-1" d="M393.72,137.53c-35.37,0-82.94-6.44-136.1-30.9-47.8-22-97.85-24-148.76-5.89-38.14,13.55-62.06,33.59-62.29,33.79L32,117.27c1.1-.93,27.34-22.91,69.31-37.83A226.31,226.31,0,0,1,176,66,213.72,213.72,0,0,1,267,86.1C383,139.47,470.64,102.41,471.52,102l9,20.71c-1,.44-25.14,10.81-64.75,13.93C409.1,137.2,401.72,137.53,393.72,137.53Z"/><path class="cls-1" d="M393.28,203.61q-5.65,0-11.59-.23c-41.63-1.64-83.37-12-124.07-30.7-88.89-40.91-166.92-1.44-196.35,17.43l-12.15-19A251.51,251.51,0,0,1,134,136.41c45.6-9.18,90.35-3.88,133,15.74,85.48,39.34,154.82,30.11,188.55,21.11l5.8,21.83A266,266,0,0,1,393.28,203.61Z"/><path class="cls-1" d="M188.72,372.65a38.75,38.75,0,1,1,38.67-38.75A38.75,38.75,0,0,1,188.72,372.65Zm0-62.44a23.69,23.69,0,1,0,23.64,23.69A23.69,23.69,0,0,0,188.72,310.21Z"/><path class="cls-1" d="M329.15,371.74a30.15,30.15,0,1,1,30.09-30.15A30.16,30.16,0,0,1,329.15,371.74Zm0-45.25a15.09,15.09,0,1,0,15.06,15.09A15.09,15.09,0,0,0,329.15,326.5Z"/><path class="cls-1" d="M271.35,323.78a30.15,30.15,0,1,1,30.09-30.15A30.16,30.16,0,0,1,271.35,323.78Zm0-45.25a15.09,15.09,0,1,0,15.06,15.09A15.09,15.09,0,0,0,271.35,278.54Z"/><path class="cls-1" d="M202.72,276.73a22,22,0,1,1,22-22A22,22,0,0,1,202.72,276.73Zm0-29a6.95,6.95,0,1,0,6.93,6.95A6.95,6.95,0,0,0,202.72,247.77Z"/></svg>