<svg id="图层_1" data-name="图层 1" 
    xmlns="http://www.w3.org/2000/svg" viewBox="0 0 64 64" width="64px" height="64px">
    <defs>
        <style></style>
    </defs>
    <title>设置</title>
    <path class="canChangeFill" style="fill:#586e7c;" d="M62.93,40.05A32,32,0,0,0,64,32c0-.24,0-.47,0-.71l-6.38-2.52a25.84,25.84,0,0,0-.81-3.37l4.91-5.31a31.9,31.9,0,0,0-4.23-7.42L50,14.55a26.11,26.11,0,0,0-2.37-2l.93-7.89A31.77,31.77,0,0,0,41,1.28l-5.2,6.29a26.12,26.12,0,0,0-2.94-.26l-4-7.16a31.74,31.74,0,0,0-8.08,1.92l-.5,8a26,26,0,0,0-2.65,1.53L10.47,8.35A32.11,32.11,0,0,0,5,14.83l4,6.3a25.89,25.89,0,0,0-1.35,3.06l-7,1.39A32.14,32.14,0,0,0,0,32c0,.79.06,1.57.12,2.34l6.14,2.43A25.86,25.86,0,0,0,7,40.41L2.78,45a32,32,0,0,0,4.81,7.66l5.62-1.44a26.11,26.11,0,0,0,3,2.71l-.65,5.5A31.76,31.76,0,0,0,24.13,63l3.4-4.11a26.08,26.08,0,0,0,4.21.4l2.58,4.61a31.79,31.79,0,0,0,9.06-2l.34-5.4a26,26,0,0,0,3.53-2.16l5.12,2.36a32.18,32.18,0,0,0,6.13-6.73l-3.23-5.09a25.77,25.77,0,0,0,1.47-3.56ZM32,48.54A15.52,15.52,0,1,1,47.52,33,15.52,15.52,0,0,1,32,48.54Z"/>
</svg>