<svg id="图层_1" data-name="图层 1" xmlns="http://www.w3.org/2000/svg" viewBox="0 0 484 512" width="484px" height="512px"><defs><style>.cls-1{fill:#33adff;}</style></defs><title>6</title><path class="cls-1" d="M39.7,512A12.09,12.09,0,0,1,30,507.11C28.75,505.46,0,466,0,407.35c0-19,13-40.93,26.8-64.16,13.3-22.4,28.36-47.79,28.36-66.93,0-21.8-10.48-41.67-21.57-62.72-12-22.76-24.4-46.29-24.4-74.15,0-30.05,14.46-55.7,27.21-78.34,9.65-17.12,18.76-33.28,18.76-47,0-.17,0-.34,0-.52,0-.41,0-.82,0-1.23a12.11,12.11,0,1,1,24.21-.49c0,.17,0,.34,0,.5,0,.57.05,1.15.05,1.73C79.38,34.15,68.75,53,57.5,73c-11.84,21-24.09,42.74-24.09,66.43,0,21.86,10.49,41.76,21.6,62.84,12,22.73,24.37,46.23,24.37,74,0,25.79-16.15,53-31.76,79.3C36.11,375,24.21,395,24.21,407.35c0,50.77,24.94,85,25.2,85.3A12.12,12.12,0,0,1,39.7,512Z"/><path class="cls-1" d="M174.57,512a12.09,12.09,0,0,1-9.73-4.89c-1.22-1.65-30-41.06-30-99.75,0-19,13-40.93,26.8-64.16C175,320.8,190,295.41,190,276.27c0-21.8-10.48-41.67-21.57-62.72-12-22.76-24.4-46.29-24.4-74.15,0-30.05,14.46-55.7,27.21-78.34C180.93,44,190,27.79,190,14.11c0-.17,0-.34,0-.52,0-.41,0-.81,0-1.22a12.11,12.11,0,1,1,24.21-.5c0,.17,0,.34,0,.5,0,.58.05,1.15.05,1.74,0,20-10.63,38.91-21.88,58.87-11.84,21-24.09,42.74-24.09,66.43,0,21.86,10.49,41.76,21.6,62.84,12,22.73,24.37,46.23,24.37,74,0,25.79-16.15,53-31.76,79.3C171,375,159.09,395,159.09,407.35c0,50.77,24.94,85,25.2,85.3A12.12,12.12,0,0,1,174.57,512Z"/><path class="cls-1" d="M309.45,512a12.09,12.09,0,0,1-9.73-4.89c-1.22-1.65-30-41.06-30-99.75,0-19,13-40.93,26.8-64.16,13.3-22.4,28.36-47.79,28.36-66.93,0-21.8-10.48-41.67-21.57-62.72-12-22.76-24.4-46.29-24.4-74.15,0-30.05,14.46-55.7,27.21-78.34,9.65-17.12,18.76-33.28,18.76-47,0-.17,0-.34,0-.52,0-.41,0-.81,0-1.22a12.11,12.11,0,1,1,24.21-.5c0,.17,0,.34,0,.5,0,.58.05,1.15.05,1.74,0,20-10.63,38.91-21.88,58.87-11.84,21-24.09,42.74-24.09,66.43,0,21.86,10.49,41.76,21.6,62.84,12,22.73,24.37,46.23,24.37,74,0,25.79-16.15,53-31.76,79.3C305.86,375,294,395,294,407.35c0,50.77,24.94,85,25.2,85.3A12.12,12.12,0,0,1,309.45,512Z"/><path class="cls-1" d="M444.32,512a12.09,12.09,0,0,1-9.73-4.89c-1.22-1.65-30-41.06-30-99.75,0-19,13-40.93,26.8-64.16,13.3-22.4,28.36-47.79,28.36-66.93,0-21.8-10.48-41.67-21.57-62.72-12-22.76-24.4-46.29-24.4-74.15,0-30.05,14.46-55.7,27.21-78.34,9.65-17.12,18.76-33.28,18.76-47,0-.17,0-.34,0-.52,0-.41,0-.81,0-1.22a12.11,12.11,0,1,1,24.21-.5c0,.17,0,.34,0,.5,0,.58.05,1.15.05,1.74,0,20-10.63,38.91-21.88,58.87C450.27,94,438,115.72,438,139.41c0,21.86,10.49,41.76,21.6,62.84,12,22.73,24.37,46.23,24.37,74,0,25.79-16.15,53-31.76,79.3C440.73,375,428.83,395,428.83,407.35c0,50.77,24.94,85,25.2,85.3A12.12,12.12,0,0,1,444.32,512Z"/></svg>