<svg id="图层_1" data-name="图层 1" xmlns="http://www.w3.org/2000/svg" viewBox="0 0 512 444" width="512px" height="444px"><defs><style>.cls-1{fill:#33adff;}</style></defs><title>37</title><g id="_编组_" data-name="&lt;编组&gt;"><path id="_复合路径_" data-name="&lt;复合路径&gt;" class="cls-1" d="M258,258.4A450.62,450.62,0,0,1,136.84,242l-.29-.09c-3.34-1-81.93-26.08-93.62-77.6l-.26-1.15V70H0V0H512V70H470v93.38l-.19,1c-.41,2.12-10.92,52.25-92.89,77.52-2.61.88-29,9.55-70.78,14A455.88,455.88,0,0,1,258,258.4ZM142.66,221.82c64.68,18.08,123,17.18,160.62,13.24,40.91-4.29,66.79-13,67-13.11l.32-.1c36.4-11.2,55.87-27.44,65.79-39.1,8.85-10.4,11.86-19.08,12.62-21.68V49h42V21H21V49H63.65V160.74C72,193.06,123.21,215.7,142.66,221.82Z" transform="translate(0 0)"/><path id="_复合路径_2" data-name="&lt;复合路径&gt;" class="cls-1" d="M413.33,139.46H333.05V49.36h80.28Zm-59.29-21h38.31V70.36H354Z" transform="translate(0 0)"/><path id="_复合路径_3" data-name="&lt;复合路径&gt;" class="cls-1" d="M295.36,139.46H215.08V49.36h80.28Zm-59.29-21h38.31V70.36H236.06Z" transform="translate(0 0)"/><path id="_复合路径_4" data-name="&lt;复合路径&gt;" class="cls-1" d="M176.77,139.46H96.5V49.36h80.28Zm-59.29-21h38.31V70.36H117.48Z" transform="translate(0 0)"/><g id="_编组_2" data-name="&lt;编组&gt;"><path id="_路径_" data-name="&lt;路径&gt;" class="cls-1" d="M102.11,443.11A10.49,10.49,0,0,1,89,439c-3.31-5.34-7.41-10.67-11.66-16.2-11.13-14.49-22.64-29.47-22.64-48.34,0-20.53,13.65-37.23,25.69-51.9,5.8-7.07,11.75-14.22,14.5-20.3a10.43,10.43,0,0,1,9.51-6.12h.13A10.47,10.47,0,0,1,114,310.94c-3.86,8.55-10.53,16.52-17.44,24.94C86.28,348.4,75.64,361.4,75.64,374.4c0,11.73,8.88,23.32,18.29,35.56,4.45,5.79,9,11.71,12.89,18a10.48,10.48,0,0,1-4.65,15.12Z" transform="translate(0 0)"/><path id="_路径_2" data-name="&lt;路径&gt;" class="cls-1" d="M215.42,443.11A10.49,10.49,0,0,1,202.26,439c-3.31-5.34-7.41-10.67-11.66-16.2C179.48,408.29,168,393.31,168,374.44c0-20.53,13.65-37.23,25.69-51.9,5.8-7.07,11.75-14.22,14.5-20.3a10.43,10.43,0,0,1,9.51-6.12h.13a10.47,10.47,0,0,1,9.51,14.81c-3.86,8.55-10.53,16.52-17.44,24.94C199.59,348.4,189,361.4,189,374.4c0,11.73,8.88,23.32,18.29,35.56,4.45,5.79,9,11.71,12.89,18a10.48,10.48,0,0,1-4.65,15.12Z" transform="translate(0 0)"/><path id="_路径_3" data-name="&lt;路径&gt;" class="cls-1" d="M328.73,443.11A10.49,10.49,0,0,1,315.58,439c-3.31-5.34-7.41-10.67-11.66-16.2-11.13-14.49-22.64-29.47-22.64-48.34,0-20.53,13.65-37.23,25.69-51.9,5.8-7.07,11.75-14.22,14.5-20.3a10.43,10.43,0,0,1,9.51-6.12h.13a10.47,10.47,0,0,1,9.51,14.81c-3.86,8.55-10.53,16.52-17.44,24.94-10.29,12.53-20.92,25.52-20.92,38.52,0,11.73,8.88,23.32,18.29,35.56,4.45,5.79,9,11.71,12.89,18a10.48,10.48,0,0,1-4.65,15.12Z" transform="translate(0 0)"/><path id="_路径_4" data-name="&lt;路径&gt;" class="cls-1" d="M442,443.11A10.49,10.49,0,0,1,428.89,439c-3.31-5.34-7.41-10.67-11.66-16.2-11.13-14.49-22.64-29.47-22.64-48.34,0-20.53,13.65-37.23,25.69-51.9,5.8-7.07,11.75-14.22,14.5-20.3a10.43,10.43,0,0,1,9.51-6.12h.13a10.47,10.47,0,0,1,9.51,14.81c-3.86,8.55-10.53,16.52-17.44,24.94-10.29,12.53-20.92,25.52-20.92,38.52,0,11.73,8.88,23.32,18.29,35.56,4.45,5.79,9,11.71,12.89,18a10.48,10.48,0,0,1-4.65,15.12Z" transform="translate(0 0)"/></g></g></svg>