<svg id="图层_1" data-name="图层 1" 
    xmlns="http://www.w3.org/2000/svg" viewBox="0 0 64 64"  width="64px" height="64px">
    <defs>
        <style></style>
    </defs>
    <title>解锁</title>
    <path class="canChangeFill"  style="fill:#586e7c;" d="M50.64,23H23.3V11.18A3.73,3.73,0,0,1,27,7.46H37a3.73,3.73,0,0,1,3.73,3.73v5.07a3.73,3.73,0,0,0,7.46,0V11.18A11.2,11.2,0,0,0,37,0H27A11.2,11.2,0,0,0,15.84,11.18V23H13.36A7.48,7.48,0,0,0,5.9,30.45v26.1A7.48,7.48,0,0,0,13.36,64H50.64a7.48,7.48,0,0,0,7.46-7.46V30.45A7.48,7.48,0,0,0,50.64,23ZM33.2,40.17a1.18,1.18,0,0,1,0,.21v5a1.24,1.24,0,0,1-2.49,0v-5a1.18,1.18,0,0,1,0-.2,3.75,3.75,0,1,1,2.4,0Z"/>
</svg>