<?xml version="1.0" encoding="utf-8"?>
<!-- Generator: Adobe Illustrator 21.0.0, SVG Export Plug-In . SVG Version: 6.00 Build 0)  -->
<svg version="1.1" id="图层_1" xmlns="http://www.w3.org/2000/svg" xmlns:xlink="http://www.w3.org/1999/xlink" x="0px" y="0px"
	 viewBox="0 0 512 512" width="512px" height="512px"  style="enable-background:new 0 0 512 512;" xml:space="preserve">
<style type="text/css">
	.st0{fill:#D0D2D3;}
	.st1{fill:url(#SVGID_1_);}
	.st2{fill:url(#SVGID_2_);}
	.st3{fill:url(#SVGID_3_);}
	.st4{fill:url(#SVGID_4_);}
	.st5{fill:#BBBDBF;}
	.st6{fill:url(#SVGID_5_);}
	.st7{fill:url(#SVGID_6_);}
	.st8{fill:url(#SVGID_7_);}
	.st9{fill:url(#SVGID_8_);}
	.st10{fill:url(#SVGID_9_);}
	.st11{fill:url(#SVGID_10_);}
	.st12{fill:url(#SVGID_11_);}
	.st13{fill:url(#SVGID_12_);}
	.st14{fill:url(#SVGID_13_);}
	.st15{fill:url(#SVGID_14_);}
	.st16{fill:url(#SVGID_15_);}
	.st17{fill:url(#SVGID_16_);}
	.st18{fill:url(#SVGID_17_);}
	.st19{fill:url(#SVGID_18_);}
	.st20{fill:url(#SVGID_19_);}
	.st21{fill:url(#SVGID_20_);}
	.st22{fill:url(#SVGID_21_);}
	.st23{fill:url(#SVGID_22_);}
	.st24{fill:url(#SVGID_23_);}
	.st25{fill:url(#SVGID_24_);}
	.st26{fill:url(#SVGID_25_);}
	.st27{fill:url(#SVGID_26_);}
	.st28{fill:url(#SVGID_27_);}
	.st29{fill:url(#SVGID_28_);}
	.st30{fill:url(#SVGID_29_);}
	.st31{fill:url(#SVGID_30_);}
	.st32{fill:url(#SVGID_31_);}
	.st33{fill:url(#SVGID_32_);}
	.st34{fill:url(#SVGID_33_);}
	.st35{fill:url(#SVGID_34_);}
	.st36{fill:url(#SVGID_35_);}
	.st37{fill:url(#SVGID_36_);}
	.st38{fill:url(#SVGID_37_);}
	.st39{fill:url(#SVGID_38_);}
	.st40{fill:url(#SVGID_39_);}
	.st41{fill:url(#SVGID_40_);}
	.st42{fill:url(#SVGID_41_);}
	.st43{fill:url(#SVGID_42_);}
	.st44{fill:url(#SVGID_43_);}
	.st45{fill:url(#SVGID_44_);}
	.st46{fill:url(#SVGID_45_);}
	.st47{fill:url(#SVGID_46_);}
	.st48{fill:url(#SVGID_47_);}
	.st49{fill:url(#SVGID_48_);}
	.st50{fill:url(#SVGID_49_);}
	.st51{fill:url(#SVGID_50_);}
	.st52{fill:url(#SVGID_51_);}
	.st53{fill:url(#SVGID_52_);}
</style>
<g>
	<path class="st0" d="M511.6,365.1c0,81.1-65.8,146.9-146.9,146.9H155C73.9,512,8.1,446.2,8.1,365.1V155.4
		C8.1,74.3,73.9,8.5,155,8.5h209.7c81.1,0,146.9,65.8,146.9,146.9V365.1z"/>
	<linearGradient id="SVGID_1_" gradientUnits="userSpaceOnUse" x1="0.3868" y1="251.7409" x2="503.87" y2="251.7409">
		<stop  offset="0" style="stop-color:#D0D2D3"/>
		<stop  offset="7.134328e-02" style="stop-color:#DDDEDF"/>
		<stop  offset="0.1829" style="stop-color:#E8E9EA"/>
		<stop  offset="0.34" style="stop-color:#EFEFF0"/>
		<stop  offset="0.7762" style="stop-color:#F1F1F2"/>
	</linearGradient>
	<path class="st1" d="M503.9,356.6c0,81.1-65.8,146.9-146.9,146.9H147.3c-81.1,0-146.9-65.8-146.9-146.9V146.9
		C0.4,65.8,66.1,0,147.3,0H357c81.1,0,146.9,65.8,146.9,146.9V356.6z"/>
	
		<linearGradient id="SVGID_2_" gradientUnits="userSpaceOnUse" x1="3819.7456" y1="785.0949" x2="4204.5088" y2="785.0949" gradientTransform="matrix(-1 0 0 -1 4264.2539 1032.1898)">
		<stop  offset="0" style="stop-color:#A6A8AB"/>
		<stop  offset="1" style="stop-color:#BBBDBF"/>
	</linearGradient>
	<path class="st2" d="M59.7,167C59.7,105,110,54.7,172,54.7h160.3c62,0,112.3,50.3,112.3,112.3v160.3c0,62-50.3,112.3-112.3,112.3
		H172c-62,0-112.2-50.3-112.2-112.3V167z"/>
	
		<linearGradient id="SVGID_3_" gradientUnits="userSpaceOnUse" x1="3823.876" y1="785.097" x2="4200.3809" y2="785.097" gradientTransform="matrix(-1 0 0 -1 4264.2539 1032.1898)">
		<stop  offset="0.2238" style="stop-color:#F1F1F2"/>
		<stop  offset="0.66" style="stop-color:#EFEFF0"/>
		<stop  offset="0.8171" style="stop-color:#E8E9EA"/>
		<stop  offset="0.9287" style="stop-color:#DDDEDF"/>
		<stop  offset="1" style="stop-color:#D0D2D3"/>
	</linearGradient>
	<path class="st3" d="M63.9,168.7c0-60.7,49.2-109.8,109.8-109.8h156.8c60.7,0,109.8,49.2,109.8,109.8v156.8
		c0,60.7-49.2,109.8-109.8,109.8H173.7c-60.7,0-109.8-49.2-109.8-109.8V168.7z"/>
	<g>
		
			<linearGradient id="SVGID_4_" gradientUnits="userSpaceOnUse" x1="3823.876" y1="908.3636" x2="4200.3809" y2="908.3636" gradientTransform="matrix(-1 0 0 -1 4264.2539 1032.1898)">
			<stop  offset="0" style="stop-color:#D0D2D3"/>
			<stop  offset="9.525896e-02" style="stop-color:#D7D9DA"/>
			<stop  offset="0.3217" style="stop-color:#E2E3E4"/>
			<stop  offset="0.5667" style="stop-color:#E6E7E8"/>
			<stop  offset="1" style="stop-color:#D0D2D3"/>
		</linearGradient>
		<path class="st4" d="M173.7,79h156.8c60.7,0,109.8,49.2,109.8,109.8v-20.1c0-60.7-49.2-109.8-109.8-109.8H173.7
			c-60.7,0-109.8,49.2-109.8,109.8v20.1C63.9,128.1,113.1,79,173.7,79z"/>
	</g>
	<path class="st5" d="M210.6,123.8c0-9.4,7.6-17,17-17h45.9c9.4,0,17,7.6,17,17l0,0c0,9.4-7.6,17-17,17h-45.9
		C218.2,140.9,210.6,133.2,210.6,123.8L210.6,123.8z"/>
	<path class="st5" d="M209.9,123.9c0-9.6,7.7-17.3,17.3-17.3h46.7c9.6,0,17.3,7.7,17.3,17.3l0,0c0,9.6-7.7,17.3-17.3,17.3h-46.7
		C217.7,141.2,209.9,133.4,209.9,123.9L209.9,123.9z"/>
	<g>
		<path class="st5" d="M291.1,124.1c0,9.6-7.7,17.3-17.3,17.3h-46.7c-9.6,0-17.3-7.7-17.3-17.3l0,0c0-9.6,7.7-17.3,17.3-17.3h46.7
			C283.3,106.8,291.1,114.6,291.1,124.1L291.1,124.1z"/>
		<g>
			<linearGradient id="SVGID_5_" gradientUnits="userSpaceOnUse" x1="211.0095" y1="124.1233" x2="289.6048" y2="124.1233">
				<stop  offset="0" style="stop-color:#F05A28"/>
				<stop  offset="9.705277e-02" style="stop-color:#F26F24"/>
				<stop  offset="0.2189" style="stop-color:#F48321"/>
				<stop  offset="0.343" style="stop-color:#F68E1F"/>
				<stop  offset="0.4714" style="stop-color:#F6921E"/>
				<stop  offset="0.7511" style="stop-color:#F37820"/>
				<stop  offset="0.9952" style="stop-color:#F16522"/>
			</linearGradient>
			<rect x="235" y="108" class="st6" width="2.1" height="32.2"/>
			<linearGradient id="SVGID_6_" gradientUnits="userSpaceOnUse" x1="210.9646" y1="124.1233" x2="289.673" y2="124.1233">
				<stop  offset="0" style="stop-color:#F05A28"/>
				<stop  offset="9.705277e-02" style="stop-color:#F26F24"/>
				<stop  offset="0.2189" style="stop-color:#F48321"/>
				<stop  offset="0.343" style="stop-color:#F68E1F"/>
				<stop  offset="0.4714" style="stop-color:#F6921E"/>
				<stop  offset="0.7511" style="stop-color:#F37820"/>
				<stop  offset="0.9952" style="stop-color:#F16522"/>
			</linearGradient>
			<rect x="248.4" y="108" class="st7" width="2.1" height="32.2"/>
			<linearGradient id="SVGID_7_" gradientUnits="userSpaceOnUse" x1="211.0286" y1="124.1233" x2="289.6255" y2="124.1233">
				<stop  offset="0" style="stop-color:#F05A28"/>
				<stop  offset="9.705277e-02" style="stop-color:#F26F24"/>
				<stop  offset="0.2189" style="stop-color:#F48321"/>
				<stop  offset="0.343" style="stop-color:#F68E1F"/>
				<stop  offset="0.4714" style="stop-color:#F6921E"/>
				<stop  offset="0.7511" style="stop-color:#F37820"/>
				<stop  offset="0.9952" style="stop-color:#F16522"/>
			</linearGradient>
			<rect x="265.4" y="108" class="st8" width="1.8" height="32.2"/>
			<linearGradient id="SVGID_8_" gradientUnits="userSpaceOnUse" x1="211.0377" y1="124.1233" x2="289.6302" y2="124.1233">
				<stop  offset="0" style="stop-color:#F05A28"/>
				<stop  offset="9.705277e-02" style="stop-color:#F26F24"/>
				<stop  offset="0.2189" style="stop-color:#F48321"/>
				<stop  offset="0.343" style="stop-color:#F68E1F"/>
				<stop  offset="0.4714" style="stop-color:#F6921E"/>
				<stop  offset="0.7511" style="stop-color:#F37820"/>
				<stop  offset="0.9952" style="stop-color:#F16522"/>
			</linearGradient>
			<path class="st9" d="M272.9,108h-0.9v32.2h0.9c0.3,0,0.5-0.1,0.8-0.1v-32.1C273.4,108.1,273.2,108,272.9,108z"/>
			<linearGradient id="SVGID_9_" gradientUnits="userSpaceOnUse" x1="211.0133" y1="124.1233" x2="289.6058" y2="124.1233">
				<stop  offset="0" style="stop-color:#F05A28"/>
				<stop  offset="9.705277e-02" style="stop-color:#F26F24"/>
				<stop  offset="0.2189" style="stop-color:#F48321"/>
				<stop  offset="0.343" style="stop-color:#F68E1F"/>
				<stop  offset="0.4714" style="stop-color:#F6921E"/>
				<stop  offset="0.7511" style="stop-color:#F37820"/>
				<stop  offset="0.9952" style="stop-color:#F16522"/>
			</linearGradient>
			<rect x="238.6" y="108" class="st10" width="1.8" height="32.2"/>
			<linearGradient id="SVGID_10_" gradientUnits="userSpaceOnUse" x1="210.9893" y1="124.1233" x2="289.6519" y2="124.1233">
				<stop  offset="0" style="stop-color:#F05A28"/>
				<stop  offset="9.705277e-02" style="stop-color:#F26F24"/>
				<stop  offset="0.2189" style="stop-color:#F48321"/>
				<stop  offset="0.343" style="stop-color:#F68E1F"/>
				<stop  offset="0.4714" style="stop-color:#F6921E"/>
				<stop  offset="0.7511" style="stop-color:#F37820"/>
				<stop  offset="0.9952" style="stop-color:#F16522"/>
			</linearGradient>
			<rect x="228.7" y="108" class="st11" width="1.7" height="32.2"/>
			<linearGradient id="SVGID_11_" gradientUnits="userSpaceOnUse" x1="211.007" y1="124.1233" x2="289.6004" y2="124.1233">
				<stop  offset="0" style="stop-color:#F05A28"/>
				<stop  offset="9.705277e-02" style="stop-color:#F26F24"/>
				<stop  offset="0.2189" style="stop-color:#F48321"/>
				<stop  offset="0.343" style="stop-color:#F68E1F"/>
				<stop  offset="0.4714" style="stop-color:#F6921E"/>
				<stop  offset="0.7511" style="stop-color:#F37820"/>
				<stop  offset="0.9952" style="stop-color:#F16522"/>
			</linearGradient>
			<rect x="231.9" y="108" class="st12" width="1.5" height="32.2"/>
			<linearGradient id="SVGID_12_" gradientUnits="userSpaceOnUse" x1="210.9322" y1="124.1233" x2="289.6645" y2="124.1233">
				<stop  offset="0" style="stop-color:#F05A28"/>
				<stop  offset="9.705277e-02" style="stop-color:#F26F24"/>
				<stop  offset="0.2189" style="stop-color:#F48321"/>
				<stop  offset="0.343" style="stop-color:#F68E1F"/>
				<stop  offset="0.4714" style="stop-color:#F6921E"/>
				<stop  offset="0.7511" style="stop-color:#F37820"/>
				<stop  offset="0.9952" style="stop-color:#F16522"/>
			</linearGradient>
			<rect x="268.7" y="108" class="st13" width="1.7" height="32.2"/>
			<linearGradient id="SVGID_13_" gradientUnits="userSpaceOnUse" x1="211.0137" y1="124.1233" x2="289.6123" y2="124.1233">
				<stop  offset="0" style="stop-color:#F05A28"/>
				<stop  offset="9.705277e-02" style="stop-color:#F26F24"/>
				<stop  offset="0.2189" style="stop-color:#F48321"/>
				<stop  offset="0.343" style="stop-color:#F68E1F"/>
				<stop  offset="0.4714" style="stop-color:#F6921E"/>
				<stop  offset="0.7511" style="stop-color:#F37820"/>
				<stop  offset="0.9952" style="stop-color:#F16522"/>
			</linearGradient>
			<rect x="245.2" y="108" class="st14" width="1.6" height="32.2"/>
			<linearGradient id="SVGID_14_" gradientUnits="userSpaceOnUse" x1="210.954" y1="124.1233" x2="289.6786" y2="124.1233">
				<stop  offset="0" style="stop-color:#F05A28"/>
				<stop  offset="9.705277e-02" style="stop-color:#F26F24"/>
				<stop  offset="0.2189" style="stop-color:#F48321"/>
				<stop  offset="0.343" style="stop-color:#F68E1F"/>
				<stop  offset="0.4714" style="stop-color:#F6921E"/>
				<stop  offset="0.7511" style="stop-color:#F37820"/>
				<stop  offset="0.9952" style="stop-color:#F16522"/>
			</linearGradient>
			<rect x="252" y="108" class="st15" width="1.8" height="32.2"/>
			<linearGradient id="SVGID_15_" gradientUnits="userSpaceOnUse" x1="211.0253" y1="124.1233" x2="289.6182" y2="124.1233">
				<stop  offset="0" style="stop-color:#F05A28"/>
				<stop  offset="9.705277e-02" style="stop-color:#F26F24"/>
				<stop  offset="0.2189" style="stop-color:#F48321"/>
				<stop  offset="0.343" style="stop-color:#F68E1F"/>
				<stop  offset="0.4714" style="stop-color:#F6921E"/>
				<stop  offset="0.7511" style="stop-color:#F37820"/>
				<stop  offset="0.9952" style="stop-color:#F16522"/>
			</linearGradient>
			<rect x="255.3" y="108" class="st16" width="1.7" height="32.2"/>
			<linearGradient id="SVGID_16_" gradientUnits="userSpaceOnUse" x1="211.0995" y1="124.1233" x2="289.5862" y2="124.1233">
				<stop  offset="0" style="stop-color:#F05A28"/>
				<stop  offset="9.705277e-02" style="stop-color:#F26F24"/>
				<stop  offset="0.2189" style="stop-color:#F48321"/>
				<stop  offset="0.343" style="stop-color:#F68E1F"/>
				<stop  offset="0.4714" style="stop-color:#F6921E"/>
				<stop  offset="0.7511" style="stop-color:#F37820"/>
				<stop  offset="0.9952" style="stop-color:#F16522"/>
			</linearGradient>
			<rect x="261.7" y="108" class="st17" width="2.1" height="32.2"/>
			<linearGradient id="SVGID_17_" gradientUnits="userSpaceOnUse" x1="211.0143" y1="124.1233" x2="289.6118" y2="124.1233">
				<stop  offset="0" style="stop-color:#F05A28"/>
				<stop  offset="9.705277e-02" style="stop-color:#F26F24"/>
				<stop  offset="0.2189" style="stop-color:#F48321"/>
				<stop  offset="0.343" style="stop-color:#F68E1F"/>
				<stop  offset="0.4714" style="stop-color:#F6921E"/>
				<stop  offset="0.7511" style="stop-color:#F37820"/>
				<stop  offset="0.9952" style="stop-color:#F16522"/>
			</linearGradient>
			<rect x="242" y="108" class="st18" width="1.7" height="32.2"/>
			<linearGradient id="SVGID_18_" gradientUnits="userSpaceOnUse" x1="211.0251" y1="124.1233" x2="289.6232" y2="124.1233">
				<stop  offset="0" style="stop-color:#F05A28"/>
				<stop  offset="9.705277e-02" style="stop-color:#F26F24"/>
				<stop  offset="0.2189" style="stop-color:#F48321"/>
				<stop  offset="0.343" style="stop-color:#F68E1F"/>
				<stop  offset="0.4714" style="stop-color:#F6921E"/>
				<stop  offset="0.7511" style="stop-color:#F37820"/>
				<stop  offset="0.9952" style="stop-color:#F16522"/>
			</linearGradient>
			<rect x="258.6" y="108" class="st19" width="1.6" height="32.2"/>
			<linearGradient id="SVGID_19_" gradientUnits="userSpaceOnUse" x1="211.0379" y1="124.124" x2="289.6336" y2="124.124">
				<stop  offset="0" style="stop-color:#F05A28"/>
				<stop  offset="9.705277e-02" style="stop-color:#F26F24"/>
				<stop  offset="0.2189" style="stop-color:#F48321"/>
				<stop  offset="0.343" style="stop-color:#F68E1F"/>
				<stop  offset="0.4714" style="stop-color:#F6921E"/>
				<stop  offset="0.7511" style="stop-color:#F37820"/>
				<stop  offset="0.9952" style="stop-color:#F16522"/>
			</linearGradient>
			<path class="st20" d="M275.3,108.2V140c0.7-0.1,1.4-0.2,2.1-0.4v-30.9C276.7,108.5,276,108.3,275.3,108.2z"/>
			<linearGradient id="SVGID_20_" gradientUnits="userSpaceOnUse" x1="210.9919" y1="124.124" x2="289.6502" y2="124.124">
				<stop  offset="0" style="stop-color:#F05A28"/>
				<stop  offset="9.705277e-02" style="stop-color:#F26F24"/>
				<stop  offset="0.2189" style="stop-color:#F48321"/>
				<stop  offset="0.343" style="stop-color:#F68E1F"/>
				<stop  offset="0.4714" style="stop-color:#F6921E"/>
				<stop  offset="0.7511" style="stop-color:#F37820"/>
				<stop  offset="0.9952" style="stop-color:#F16522"/>
			</linearGradient>
			<path class="st21" d="M212.2,118.3V130c0.5,1.2,1.1,2.3,1.8,3.3V115C213.2,116,212.6,117.1,212.2,118.3z"/>
			<linearGradient id="SVGID_21_" gradientUnits="userSpaceOnUse" x1="210.9178" y1="124.124" x2="289.65" y2="124.124">
				<stop  offset="0" style="stop-color:#F05A28"/>
				<stop  offset="9.705277e-02" style="stop-color:#F26F24"/>
				<stop  offset="0.2189" style="stop-color:#F48321"/>
				<stop  offset="0.343" style="stop-color:#F68E1F"/>
				<stop  offset="0.4714" style="stop-color:#F6921E"/>
				<stop  offset="0.7511" style="stop-color:#F37820"/>
				<stop  offset="0.9952" style="stop-color:#F16522"/>
			</linearGradient>
			<path class="st22" d="M282.3,110.8v26.7c0.6-0.4,1.1-0.9,1.7-1.3v-24.1C283.4,111.6,282.9,111.2,282.3,110.8z"/>
			<linearGradient id="SVGID_22_" gradientUnits="userSpaceOnUse" x1="211.046" y1="124.1233" x2="289.6395" y2="124.1233">
				<stop  offset="0" style="stop-color:#F05A28"/>
				<stop  offset="9.705277e-02" style="stop-color:#F26F24"/>
				<stop  offset="0.2189" style="stop-color:#F48321"/>
				<stop  offset="0.343" style="stop-color:#F68E1F"/>
				<stop  offset="0.4714" style="stop-color:#F6921E"/>
				<stop  offset="0.7511" style="stop-color:#F37820"/>
				<stop  offset="0.9952" style="stop-color:#F16522"/>
			</linearGradient>
			<path class="st23" d="M285.5,113.6v21c0.5-0.6,1-1.2,1.5-1.8v-17.3C286.6,114.8,286,114.2,285.5,113.6z"/>
			<linearGradient id="SVGID_23_" gradientUnits="userSpaceOnUse" x1="210.995" y1="124.124" x2="289.5883" y2="124.124">
				<stop  offset="0" style="stop-color:#F05A28"/>
				<stop  offset="9.705277e-02" style="stop-color:#F26F24"/>
				<stop  offset="0.2189" style="stop-color:#F48321"/>
				<stop  offset="0.343" style="stop-color:#F68E1F"/>
				<stop  offset="0.4714" style="stop-color:#F6921E"/>
				<stop  offset="0.7511" style="stop-color:#F37820"/>
				<stop  offset="0.9952" style="stop-color:#F16522"/>
			</linearGradient>
			<path class="st24" d="M215.5,113.2v21.9c0.5,0.5,1.1,1,1.7,1.5v-24.8C216.6,112.2,216,112.6,215.5,113.2z"/>
			<linearGradient id="SVGID_24_" gradientUnits="userSpaceOnUse" x1="211.0017" y1="124.124" x2="289.5987" y2="124.124">
				<stop  offset="0" style="stop-color:#F05A28"/>
				<stop  offset="9.705277e-02" style="stop-color:#F26F24"/>
				<stop  offset="0.2189" style="stop-color:#F48321"/>
				<stop  offset="0.343" style="stop-color:#F68E1F"/>
				<stop  offset="0.4714" style="stop-color:#F6921E"/>
				<stop  offset="0.7511" style="stop-color:#F37820"/>
				<stop  offset="0.9952" style="stop-color:#F16522"/>
			</linearGradient>
			<path class="st25" d="M225.3,108.2V140c0.6,0.1,1.2,0.1,1.8,0.2v-32.1C226.5,108.1,225.9,108.2,225.3,108.2z"/>
			<linearGradient id="SVGID_25_" gradientUnits="userSpaceOnUse" x1="211.047" y1="124.124" x2="289.6425" y2="124.124">
				<stop  offset="0" style="stop-color:#F05A28"/>
				<stop  offset="9.705277e-02" style="stop-color:#F26F24"/>
				<stop  offset="0.2189" style="stop-color:#F48321"/>
				<stop  offset="0.343" style="stop-color:#F68E1F"/>
				<stop  offset="0.4714" style="stop-color:#F6921E"/>
				<stop  offset="0.7511" style="stop-color:#F37820"/>
				<stop  offset="0.9952" style="stop-color:#F16522"/>
			</linearGradient>
			<path class="st26" d="M288.6,118.6v11.1c0.7-1.7,1.1-3.6,1.1-5.5C289.6,122.2,289.2,120.3,288.6,118.6z"/>
			<linearGradient id="SVGID_26_" gradientUnits="userSpaceOnUse" x1="210.9973" y1="124.124" x2="289.5969" y2="124.124">
				<stop  offset="0" style="stop-color:#F05A28"/>
				<stop  offset="9.705277e-02" style="stop-color:#F26F24"/>
				<stop  offset="0.2189" style="stop-color:#F48321"/>
				<stop  offset="0.343" style="stop-color:#F68E1F"/>
				<stop  offset="0.4714" style="stop-color:#F6921E"/>
				<stop  offset="0.7511" style="stop-color:#F37820"/>
				<stop  offset="0.9952" style="stop-color:#F16522"/>
			</linearGradient>
			<path class="st27" d="M218.8,110.6v27.1c0.4,0.3,0.9,0.5,1.4,0.7v-28.6C219.7,110.1,219.2,110.3,218.8,110.6z"/>
			<linearGradient id="SVGID_27_" gradientUnits="userSpaceOnUse" x1="210.9268" y1="124.1233" x2="289.6509" y2="124.1233">
				<stop  offset="0" style="stop-color:#F05A28"/>
				<stop  offset="9.705277e-02" style="stop-color:#F26F24"/>
				<stop  offset="0.2189" style="stop-color:#F48321"/>
				<stop  offset="0.343" style="stop-color:#F68E1F"/>
				<stop  offset="0.4714" style="stop-color:#F6921E"/>
				<stop  offset="0.7511" style="stop-color:#F37820"/>
				<stop  offset="0.9952" style="stop-color:#F16522"/>
			</linearGradient>
			<path class="st28" d="M278.9,109.1v30c0.6-0.2,1.2-0.5,1.8-0.8v-28.4C280.1,109.6,279.5,109.4,278.9,109.1z"/>
			<linearGradient id="SVGID_28_" gradientUnits="userSpaceOnUse" x1="210.9931" y1="124.124" x2="289.6452" y2="124.124">
				<stop  offset="0" style="stop-color:#F05A28"/>
				<stop  offset="9.705277e-02" style="stop-color:#F26F24"/>
				<stop  offset="0.2189" style="stop-color:#F48321"/>
				<stop  offset="0.343" style="stop-color:#F68E1F"/>
				<stop  offset="0.4714" style="stop-color:#F6921E"/>
				<stop  offset="0.7511" style="stop-color:#F37820"/>
				<stop  offset="0.9952" style="stop-color:#F16522"/>
			</linearGradient>
			<path class="st29" d="M221.7,109.1v30c0.7,0.2,1.4,0.5,2.1,0.6v-31.2C223.1,108.7,222.4,108.9,221.7,109.1z"/>
			<linearGradient id="SVGID_29_" gradientUnits="userSpaceOnUse" x1="233.4061" y1="124.1233" x2="234.981" y2="124.1233">
				<stop  offset="1.904760e-02" style="stop-color:#F05A28"/>
				<stop  offset="0.6" style="stop-color:#F6921E"/>
				<stop  offset="0.8021" style="stop-color:#F6901E"/>
				<stop  offset="0.8749" style="stop-color:#F58920"/>
				<stop  offset="0.9268" style="stop-color:#F47E22"/>
				<stop  offset="0.9685" style="stop-color:#F26D25"/>
				<stop  offset="1" style="stop-color:#F05A28"/>
			</linearGradient>
			<rect x="233.4" y="108" class="st30" width="1.6" height="32.2"/>
			<linearGradient id="SVGID_30_" gradientUnits="userSpaceOnUse" x1="237.0441" y1="124.1233" x2="238.6189" y2="124.1233">
				<stop  offset="1.904760e-02" style="stop-color:#F05A28"/>
				<stop  offset="0.6" style="stop-color:#F6921E"/>
				<stop  offset="0.8021" style="stop-color:#F6901E"/>
				<stop  offset="0.8749" style="stop-color:#F58920"/>
				<stop  offset="0.9268" style="stop-color:#F47E22"/>
				<stop  offset="0.9685" style="stop-color:#F26D25"/>
				<stop  offset="1" style="stop-color:#F05A28"/>
			</linearGradient>
			<rect x="237" y="108" class="st31" width="1.6" height="32.2"/>
			<linearGradient id="SVGID_31_" gradientUnits="userSpaceOnUse" x1="240.3872" y1="124.1233" x2="241.9621" y2="124.1233">
				<stop  offset="1.904760e-02" style="stop-color:#F05A28"/>
				<stop  offset="0.6" style="stop-color:#F6921E"/>
				<stop  offset="0.8021" style="stop-color:#F6901E"/>
				<stop  offset="0.8749" style="stop-color:#F58920"/>
				<stop  offset="0.9268" style="stop-color:#F47E22"/>
				<stop  offset="0.9685" style="stop-color:#F26D25"/>
				<stop  offset="1" style="stop-color:#F05A28"/>
			</linearGradient>
			<rect x="240.4" y="108" class="st32" width="1.6" height="32.2"/>
			<linearGradient id="SVGID_32_" gradientUnits="userSpaceOnUse" x1="243.6322" y1="124.1233" x2="245.2041" y2="124.1233">
				<stop  offset="1.904760e-02" style="stop-color:#F05A28"/>
				<stop  offset="0.6" style="stop-color:#F6921E"/>
				<stop  offset="0.8021" style="stop-color:#F6901E"/>
				<stop  offset="0.8749" style="stop-color:#F58920"/>
				<stop  offset="0.9268" style="stop-color:#F47E22"/>
				<stop  offset="0.9685" style="stop-color:#F26D25"/>
				<stop  offset="1" style="stop-color:#F05A28"/>
			</linearGradient>
			<rect x="243.6" y="108" class="st33" width="1.6" height="32.2"/>
			<linearGradient id="SVGID_33_" gradientUnits="userSpaceOnUse" x1="246.7761" y1="124.1233" x2="248.3508" y2="124.1233">
				<stop  offset="1.904760e-02" style="stop-color:#F05A28"/>
				<stop  offset="0.6" style="stop-color:#F6921E"/>
				<stop  offset="0.8021" style="stop-color:#F6901E"/>
				<stop  offset="0.8749" style="stop-color:#F58920"/>
				<stop  offset="0.9268" style="stop-color:#F47E22"/>
				<stop  offset="0.9685" style="stop-color:#F26D25"/>
				<stop  offset="1" style="stop-color:#F05A28"/>
			</linearGradient>
			<rect x="246.8" y="108" class="st34" width="1.6" height="32.2"/>
			<linearGradient id="SVGID_34_" gradientUnits="userSpaceOnUse" x1="250.4169" y1="124.1233" x2="251.9888" y2="124.1233">
				<stop  offset="1.904760e-02" style="stop-color:#F05A28"/>
				<stop  offset="0.6" style="stop-color:#F6921E"/>
				<stop  offset="0.8021" style="stop-color:#F6901E"/>
				<stop  offset="0.8749" style="stop-color:#F58920"/>
				<stop  offset="0.9268" style="stop-color:#F47E22"/>
				<stop  offset="0.9685" style="stop-color:#F26D25"/>
				<stop  offset="1" style="stop-color:#F05A28"/>
			</linearGradient>
			<rect x="250.4" y="108" class="st35" width="1.6" height="32.2"/>
			<linearGradient id="SVGID_35_" gradientUnits="userSpaceOnUse" x1="253.7601" y1="124.1233" x2="255.332" y2="124.1233">
				<stop  offset="1.904760e-02" style="stop-color:#F05A28"/>
				<stop  offset="0.6" style="stop-color:#F6921E"/>
				<stop  offset="0.8021" style="stop-color:#F6901E"/>
				<stop  offset="0.8749" style="stop-color:#F58920"/>
				<stop  offset="0.9268" style="stop-color:#F47E22"/>
				<stop  offset="0.9685" style="stop-color:#F26D25"/>
				<stop  offset="1" style="stop-color:#F05A28"/>
			</linearGradient>
			<rect x="253.8" y="108" class="st36" width="1.6" height="32.2"/>
			<linearGradient id="SVGID_36_" gradientUnits="userSpaceOnUse" x1="257.0021" y1="124.1233" x2="258.5769" y2="124.1233">
				<stop  offset="1.904760e-02" style="stop-color:#F05A28"/>
				<stop  offset="0.6" style="stop-color:#F6921E"/>
				<stop  offset="0.8021" style="stop-color:#F6901E"/>
				<stop  offset="0.8749" style="stop-color:#F58920"/>
				<stop  offset="0.9268" style="stop-color:#F47E22"/>
				<stop  offset="0.9685" style="stop-color:#F26D25"/>
				<stop  offset="1" style="stop-color:#F05A28"/>
			</linearGradient>
			<rect x="257" y="108" class="st37" width="1.6" height="32.2"/>
			<linearGradient id="SVGID_37_" gradientUnits="userSpaceOnUse" x1="260.1489" y1="124.1233" x2="261.7236" y2="124.1233">
				<stop  offset="1.904760e-02" style="stop-color:#F05A28"/>
				<stop  offset="0.6" style="stop-color:#F6921E"/>
				<stop  offset="0.8021" style="stop-color:#F6901E"/>
				<stop  offset="0.8749" style="stop-color:#F58920"/>
				<stop  offset="0.9268" style="stop-color:#F47E22"/>
				<stop  offset="0.9685" style="stop-color:#F26D25"/>
				<stop  offset="1" style="stop-color:#F05A28"/>
			</linearGradient>
			<rect x="260.1" y="108" class="st38" width="1.6" height="32.2"/>
			<linearGradient id="SVGID_38_" gradientUnits="userSpaceOnUse" x1="263.7839" y1="124.1233" x2="265.3587" y2="124.1233">
				<stop  offset="1.904760e-02" style="stop-color:#F05A28"/>
				<stop  offset="0.6" style="stop-color:#F6921E"/>
				<stop  offset="0.8021" style="stop-color:#F6901E"/>
				<stop  offset="0.8749" style="stop-color:#F58920"/>
				<stop  offset="0.9268" style="stop-color:#F47E22"/>
				<stop  offset="0.9685" style="stop-color:#F26D25"/>
				<stop  offset="1" style="stop-color:#F05A28"/>
			</linearGradient>
			<rect x="263.8" y="108" class="st39" width="1.6" height="32.2"/>
			<linearGradient id="SVGID_39_" gradientUnits="userSpaceOnUse" x1="267.1272" y1="124.1233" x2="268.7019" y2="124.1233">
				<stop  offset="1.904760e-02" style="stop-color:#F05A28"/>
				<stop  offset="0.6" style="stop-color:#F6921E"/>
				<stop  offset="0.8021" style="stop-color:#F6901E"/>
				<stop  offset="0.8749" style="stop-color:#F58920"/>
				<stop  offset="0.9268" style="stop-color:#F47E22"/>
				<stop  offset="0.9685" style="stop-color:#F26D25"/>
				<stop  offset="1" style="stop-color:#F05A28"/>
			</linearGradient>
			<rect x="267.1" y="108" class="st40" width="1.6" height="32.2"/>
			<linearGradient id="SVGID_40_" gradientUnits="userSpaceOnUse" x1="270.3749" y1="124.1233" x2="271.9469" y2="124.1233">
				<stop  offset="1.904760e-02" style="stop-color:#F05A28"/>
				<stop  offset="0.6" style="stop-color:#F6921E"/>
				<stop  offset="0.8021" style="stop-color:#F6901E"/>
				<stop  offset="0.8749" style="stop-color:#F58920"/>
				<stop  offset="0.9268" style="stop-color:#F47E22"/>
				<stop  offset="0.9685" style="stop-color:#F26D25"/>
				<stop  offset="1" style="stop-color:#F05A28"/>
			</linearGradient>
			<rect x="270.4" y="108" class="st41" width="1.6" height="32.2"/>
			<linearGradient id="SVGID_41_" gradientUnits="userSpaceOnUse" x1="273.7152" y1="124.124" x2="275.2901" y2="124.124">
				<stop  offset="1.904760e-02" style="stop-color:#F05A28"/>
				<stop  offset="0.6" style="stop-color:#F6921E"/>
				<stop  offset="0.8021" style="stop-color:#F6901E"/>
				<stop  offset="0.8749" style="stop-color:#F58920"/>
				<stop  offset="0.9268" style="stop-color:#F47E22"/>
				<stop  offset="0.9685" style="stop-color:#F26D25"/>
				<stop  offset="1" style="stop-color:#F05A28"/>
			</linearGradient>
			<path class="st42" d="M273.7,108.1v32.1c0.5,0,1.1-0.1,1.6-0.2v-31.8C274.8,108.2,274.2,108.1,273.7,108.1z"/>
			<linearGradient id="SVGID_42_" gradientUnits="userSpaceOnUse" x1="277.3532" y1="124.124" x2="278.9252" y2="124.124">
				<stop  offset="1.904760e-02" style="stop-color:#F05A28"/>
				<stop  offset="0.6" style="stop-color:#F6921E"/>
				<stop  offset="0.8021" style="stop-color:#F6901E"/>
				<stop  offset="0.8749" style="stop-color:#F58920"/>
				<stop  offset="0.9268" style="stop-color:#F47E22"/>
				<stop  offset="0.9685" style="stop-color:#F26D25"/>
				<stop  offset="1" style="stop-color:#F05A28"/>
			</linearGradient>
			<path class="st43" d="M277.4,108.7v30.9c0.5-0.1,1.1-0.3,1.6-0.5v-30C278.4,108.9,277.9,108.8,277.4,108.7z"/>
			<linearGradient id="SVGID_43_" gradientUnits="userSpaceOnUse" x1="280.6965" y1="124.1233" x2="282.2683" y2="124.1233">
				<stop  offset="1.904760e-02" style="stop-color:#F05A28"/>
				<stop  offset="0.6" style="stop-color:#F6921E"/>
				<stop  offset="0.8021" style="stop-color:#F6901E"/>
				<stop  offset="0.8749" style="stop-color:#F58920"/>
				<stop  offset="0.9268" style="stop-color:#F47E22"/>
				<stop  offset="0.9685" style="stop-color:#F26D25"/>
				<stop  offset="1" style="stop-color:#F05A28"/>
			</linearGradient>
			<path class="st44" d="M280.7,109.9v28.4c0.5-0.3,1.1-0.5,1.6-0.8v-26.7C281.8,110.4,281.2,110.2,280.7,109.9z"/>
			<linearGradient id="SVGID_44_" gradientUnits="userSpaceOnUse" x1="283.9414" y1="124.1247" x2="285.5133" y2="124.1247">
				<stop  offset="1.904760e-02" style="stop-color:#F05A28"/>
				<stop  offset="0.6" style="stop-color:#F6921E"/>
				<stop  offset="0.8021" style="stop-color:#F6901E"/>
				<stop  offset="0.8749" style="stop-color:#F58920"/>
				<stop  offset="0.9268" style="stop-color:#F47E22"/>
				<stop  offset="0.9685" style="stop-color:#F26D25"/>
				<stop  offset="1" style="stop-color:#F05A28"/>
			</linearGradient>
			<path class="st45" d="M283.9,112.1v24.1c0.6-0.5,1.1-1,1.6-1.5v-21C285,113.1,284.5,112.6,283.9,112.1z"/>
			<linearGradient id="SVGID_45_" gradientUnits="userSpaceOnUse" x1="220.1345" y1="124.1233" x2="221.7092" y2="124.1233">
				<stop  offset="1.904760e-02" style="stop-color:#F05A28"/>
				<stop  offset="0.6" style="stop-color:#F6921E"/>
				<stop  offset="0.8021" style="stop-color:#F6901E"/>
				<stop  offset="0.8749" style="stop-color:#F58920"/>
				<stop  offset="0.9268" style="stop-color:#F47E22"/>
				<stop  offset="0.9685" style="stop-color:#F26D25"/>
				<stop  offset="1" style="stop-color:#F05A28"/>
			</linearGradient>
			<path class="st46" d="M220.1,109.8v28.6c0.5,0.3,1,0.5,1.6,0.7v-30C221.2,109.3,220.7,109.6,220.1,109.8z"/>
			<linearGradient id="SVGID_46_" gradientUnits="userSpaceOnUse" x1="223.7738" y1="124.124" x2="225.3457" y2="124.124">
				<stop  offset="1.904760e-02" style="stop-color:#F05A28"/>
				<stop  offset="0.6" style="stop-color:#F6921E"/>
				<stop  offset="0.8021" style="stop-color:#F6901E"/>
				<stop  offset="0.8749" style="stop-color:#F58920"/>
				<stop  offset="0.9268" style="stop-color:#F47E22"/>
				<stop  offset="0.9685" style="stop-color:#F26D25"/>
				<stop  offset="1" style="stop-color:#F05A28"/>
			</linearGradient>
			<path class="st47" d="M223.8,108.5v31.2c0.5,0.1,1,0.2,1.6,0.3v-31.8C224.8,108.3,224.3,108.4,223.8,108.5z"/>
			<linearGradient id="SVGID_47_" gradientUnits="userSpaceOnUse" x1="227.1141" y1="124.1233" x2="228.6889" y2="124.1233">
				<stop  offset="1.904760e-02" style="stop-color:#F05A28"/>
				<stop  offset="0.6" style="stop-color:#F6921E"/>
				<stop  offset="0.8021" style="stop-color:#F6901E"/>
				<stop  offset="0.8749" style="stop-color:#F58920"/>
				<stop  offset="0.9268" style="stop-color:#F47E22"/>
				<stop  offset="0.9685" style="stop-color:#F26D25"/>
				<stop  offset="1" style="stop-color:#F05A28"/>
			</linearGradient>
			<path class="st48" d="M227.7,108c-0.2,0-0.4,0.1-0.6,0.1v32.1c0.2,0,0.4,0.1,0.6,0.1h0.9V108H227.7z"/>
			<linearGradient id="SVGID_48_" gradientUnits="userSpaceOnUse" x1="230.3605" y1="124.1233" x2="231.9325" y2="124.1233">
				<stop  offset="1.904760e-02" style="stop-color:#F05A28"/>
				<stop  offset="0.6" style="stop-color:#F6921E"/>
				<stop  offset="0.8021" style="stop-color:#F6901E"/>
				<stop  offset="0.8749" style="stop-color:#F58920"/>
				<stop  offset="0.9268" style="stop-color:#F47E22"/>
				<stop  offset="0.9685" style="stop-color:#F26D25"/>
				<stop  offset="1" style="stop-color:#F05A28"/>
			</linearGradient>
			<rect x="230.4" y="108" class="st49" width="1.6" height="32.2"/>
			<linearGradient id="SVGID_49_" gradientUnits="userSpaceOnUse" x1="210.9919" y1="124.1247" x2="212.1723" y2="124.1247">
				<stop  offset="1.904760e-02" style="stop-color:#F05A28"/>
				<stop  offset="0.6" style="stop-color:#F6921E"/>
				<stop  offset="0.8021" style="stop-color:#F6901E"/>
				<stop  offset="0.8749" style="stop-color:#F58920"/>
				<stop  offset="0.9268" style="stop-color:#F47E22"/>
				<stop  offset="0.9685" style="stop-color:#F26D25"/>
				<stop  offset="1" style="stop-color:#F05A28"/>
			</linearGradient>
			<path class="st50" d="M211,124.1c0,2.1,0.4,4,1.2,5.9v-11.7C211.4,120.1,211,122.1,211,124.1z"/>
			<linearGradient id="SVGID_50_" gradientUnits="userSpaceOnUse" x1="213.9421" y1="124.124" x2="215.5141" y2="124.124">
				<stop  offset="1.904760e-02" style="stop-color:#F05A28"/>
				<stop  offset="0.6" style="stop-color:#F6921E"/>
				<stop  offset="0.8021" style="stop-color:#F6901E"/>
				<stop  offset="0.8749" style="stop-color:#F58920"/>
				<stop  offset="0.9268" style="stop-color:#F47E22"/>
				<stop  offset="0.9685" style="stop-color:#F26D25"/>
				<stop  offset="1" style="stop-color:#F05A28"/>
			</linearGradient>
			<path class="st51" d="M213.9,115v18.2c0.5,0.7,1,1.3,1.6,1.8v-21.9C215,113.8,214.4,114.4,213.9,115z"/>
			<linearGradient id="SVGID_51_" gradientUnits="userSpaceOnUse" x1="217.1842" y1="124.1247" x2="218.759" y2="124.1247">
				<stop  offset="1.904760e-02" style="stop-color:#F05A28"/>
				<stop  offset="0.6" style="stop-color:#F6921E"/>
				<stop  offset="0.8021" style="stop-color:#F6901E"/>
				<stop  offset="0.8749" style="stop-color:#F58920"/>
				<stop  offset="0.9268" style="stop-color:#F47E22"/>
				<stop  offset="0.9685" style="stop-color:#F26D25"/>
				<stop  offset="1" style="stop-color:#F05A28"/>
			</linearGradient>
			<path class="st52" d="M217.2,111.7v24.8c0.5,0.4,1,0.8,1.6,1.1v-27.1C218.2,110.9,217.7,111.3,217.2,111.7z"/>
			<linearGradient id="SVGID_52_" gradientUnits="userSpaceOnUse" x1="286.987" y1="124.1247" x2="288.5618" y2="124.1247">
				<stop  offset="1.904760e-02" style="stop-color:#F05A28"/>
				<stop  offset="0.6" style="stop-color:#F6921E"/>
				<stop  offset="0.8021" style="stop-color:#F6901E"/>
				<stop  offset="0.8749" style="stop-color:#F58920"/>
				<stop  offset="0.9268" style="stop-color:#F47E22"/>
				<stop  offset="0.9685" style="stop-color:#F26D25"/>
				<stop  offset="1" style="stop-color:#F05A28"/>
			</linearGradient>
			<path class="st53" d="M287,115.5v17.3c0.6-1,1.2-2,1.6-3.1v-11.1C288.1,117.5,287.6,116.4,287,115.5z"/>
		</g>
	</g>
</g>
</svg>
