<?xml version="1.0" encoding="utf-8"?>
<!-- Generator: Adobe Illustrator 21.0.0, SVG Export Plug-In . SVG Version: 6.00 Build 0)  -->
<svg version="1.1" id="图层_1" xmlns="http://www.w3.org/2000/svg" xmlns:xlink="http://www.w3.org/1999/xlink" x="0px" y="0px"
	 viewBox="0 0 510 512" width="510px" height="512px"  style="enable-background:new 0 0 510 512;" xml:space="preserve">
<style type="text/css">
	.st0{fill:#D0D2D3;}
	.st1{fill:url(#SVGID_1_);}
	.st2{fill:url(#SVGID_2_);}
	.st3{fill:url(#SVGID_3_);}
	.st4{fill:url(#SVGID_4_);}
	.st5{fill:#BBBDBF;}
	.st6{fill:url(#SVGID_5_);}
	.st7{fill:url(#SVGID_6_);}
	.st8{fill:url(#SVGID_7_);}
	.st9{fill:url(#SVGID_8_);}
	.st10{fill:url(#SVGID_9_);}
	.st11{fill:url(#SVGID_10_);}
	.st12{fill:url(#SVGID_11_);}
	.st13{fill:url(#SVGID_12_);}
	.st14{fill:url(#SVGID_13_);}
	.st15{fill:url(#SVGID_14_);}
	.st16{fill:url(#SVGID_15_);}
	.st17{fill:url(#SVGID_16_);}
	.st18{fill:url(#SVGID_17_);}
	.st19{fill:url(#SVGID_18_);}
	.st20{fill:url(#SVGID_19_);}
	.st21{fill:url(#SVGID_20_);}
	.st22{fill:url(#SVGID_21_);}
	.st23{fill:url(#SVGID_22_);}
	.st24{fill:url(#SVGID_23_);}
	.st25{fill:url(#SVGID_24_);}
	.st26{fill:url(#SVGID_25_);}
	.st27{fill:url(#SVGID_26_);}
	.st28{fill:url(#SVGID_27_);}
	.st29{fill:url(#SVGID_28_);}
	.st30{fill:url(#SVGID_29_);}
	.st31{fill:url(#SVGID_30_);}
	.st32{fill:url(#SVGID_31_);}
	.st33{fill:url(#SVGID_32_);}
	.st34{fill:url(#SVGID_33_);}
	.st35{fill:url(#SVGID_34_);}
	.st36{fill:url(#SVGID_35_);}
	.st37{fill:url(#SVGID_36_);}
	.st38{fill:url(#SVGID_37_);}
	.st39{fill:url(#SVGID_38_);}
	.st40{fill:url(#SVGID_39_);}
	.st41{fill:url(#SVGID_40_);}
	.st42{fill:url(#SVGID_41_);}
	.st43{fill:url(#SVGID_42_);}
	.st44{fill:url(#SVGID_43_);}
	.st45{fill:url(#SVGID_44_);}
	.st46{fill:url(#SVGID_45_);}
	.st47{fill:url(#SVGID_46_);}
	.st48{fill:url(#SVGID_47_);}
	.st49{fill:url(#SVGID_48_);}
	.st50{fill:url(#SVGID_49_);}
	.st51{fill:url(#SVGID_50_);}
	.st52{fill:url(#SVGID_51_);}
	.st53{fill:url(#SVGID_52_);}
</style>
<g>
	<path class="st0" d="M510,480.5c0,17.4-14.1,31.5-31.4,31.5H38.7c-20.9,0-38.6-19.4-38.6-36.8L7.3,40.1c0-17.4,14.1-31.5,31.4-31.5
		L474.6,0C497,0,510,21,510,40.1V480.5z"/>
	
		<linearGradient id="SVGID_1_" gradientUnits="userSpaceOnUse" x1="36" y1="329.6744" x2="538.6675" y2="329.6744" gradientTransform="matrix(1 0 0 1 -36 -78)">
		<stop  offset="0" style="stop-color:#D0D2D3"/>
		<stop  offset="7.134328e-02" style="stop-color:#DDDEDF"/>
		<stop  offset="0.1829" style="stop-color:#E8E9EA"/>
		<stop  offset="0.34" style="stop-color:#EFEFF0"/>
		<stop  offset="0.7762" style="stop-color:#F1F1F2"/>
	</linearGradient>
	<path class="st1" d="M502.7,471.9c0,17.4-14.1,31.5-31.4,31.5H31.4C14.1,503.3,0,489.3,0,471.9L0,31.5C0,14.1,14.1,0,31.4,0
		l439.8,0c17.4,0,31.4,14.1,31.4,31.5V471.9z"/>
	
		<linearGradient id="SVGID_2_" gradientUnits="userSpaceOnUse" x1="2971.3345" y1="1088.2957" x2="2971.3345" y2="695.053" gradientTransform="matrix(-1 0 0 -1 3230 1152)">
		<stop  offset="0" style="stop-color:#A6A8AB"/>
		<stop  offset="1" style="stop-color:#BBBDBF"/>
	</linearGradient>
	<path class="st2" d="M62.3,88.3c0-13.6,11-24.6,24.5-24.6h343.6c13.6,0,24.5,11,24.5,24.6v344.1c0,13.6-11,24.6-24.5,24.6H86.9
		c-13.6,0-24.5-11-24.5-24.6V88.3z"/>
	
		<linearGradient id="SVGID_3_" gradientUnits="userSpaceOnUse" x1="2969.3723" y1="1082.5281" x2="2969.3723" y2="641.0505" gradientTransform="matrix(-1 0 0 -1 3230 1152)">
		<stop  offset="0.2238" style="stop-color:#F1F1F2"/>
		<stop  offset="0.66" style="stop-color:#EFEFF0"/>
		<stop  offset="0.8171" style="stop-color:#E8E9EA"/>
		<stop  offset="0.9287" style="stop-color:#DDDEDF"/>
		<stop  offset="1" style="stop-color:#D0D2D3"/>
	</linearGradient>
	<path class="st3" d="M68.1,93.5c0-13.3,10.8-24,24.1-24h337c13.3,0,24.1,10.8,24.1,24v336.7c0,13.3-10.8,24-24.1,24h-337
		c-13.3,0-24.1-10.8-24.1-24V93.5z"/>
	<g>
		
			<linearGradient id="SVGID_4_" gradientUnits="userSpaceOnUse" x1="2776.814" y1="1060.6731" x2="3161.9307" y2="1060.6731" gradientTransform="matrix(-1 0 0 -1 3230 1152)">
			<stop  offset="0" style="stop-color:#D0D2D3"/>
			<stop  offset="9.525896e-02" style="stop-color:#D7D9DA"/>
			<stop  offset="0.3217" style="stop-color:#E2E3E4"/>
			<stop  offset="0.5667" style="stop-color:#E6E7E8"/>
			<stop  offset="0.8182" style="stop-color:#DBDDDE"/>
			<stop  offset="1" style="stop-color:#D0D2D3"/>
		</linearGradient>
		<path class="st4" d="M92.1,89.1h337c13.3,0,24.1,10.8,24.1,24V93.5c0-13.3-10.8-24-24.1-24h-337c-13.3,0-24.1,10.8-24.1,24v19.7
			C68.1,99.9,78.8,89.1,92.1,89.1z"/>
	</g>
	<path class="st5" d="M221,134.9c0-9.6,7.7-17.3,17.3-17.3h46.6c9.5,0,17.3,7.7,17.3,17.3l0,0c0,9.6-7.7,17.3-17.3,17.3h-46.6
		C228.7,152.2,221,144.4,221,134.9L221,134.9z"/>
	<g>
		<path class="st5" d="M303,135.1c0,9.6-7.7,17.3-17.3,17.3h-46.6c-9.5,0-17.3-7.7-17.3-17.3l0,0c0-9.6,7.7-17.3,17.3-17.3h46.6
			C295.3,117.8,303,125.6,303,135.1L303,135.1z"/>
		<g>
			<linearGradient id="SVGID_5_" gradientUnits="userSpaceOnUse" x1="223.0527" y1="135.1233" x2="301.5417" y2="135.1233">
				<stop  offset="0" style="stop-color:#F05A28"/>
				<stop  offset="9.705277e-02" style="stop-color:#F26F24"/>
				<stop  offset="0.2189" style="stop-color:#F48321"/>
				<stop  offset="0.343" style="stop-color:#F68E1F"/>
				<stop  offset="0.4714" style="stop-color:#F6921E"/>
				<stop  offset="0.7511" style="stop-color:#F37820"/>
				<stop  offset="0.9952" style="stop-color:#F16522"/>
			</linearGradient>
			<rect x="247" y="119" class="st6" width="2.1" height="32.2"/>
			<linearGradient id="SVGID_6_" gradientUnits="userSpaceOnUse" x1="223.0079" y1="135.1233" x2="301.6098" y2="135.1233">
				<stop  offset="0" style="stop-color:#F05A28"/>
				<stop  offset="9.705277e-02" style="stop-color:#F26F24"/>
				<stop  offset="0.2189" style="stop-color:#F48321"/>
				<stop  offset="0.343" style="stop-color:#F68E1F"/>
				<stop  offset="0.4714" style="stop-color:#F6921E"/>
				<stop  offset="0.7511" style="stop-color:#F37820"/>
				<stop  offset="0.9952" style="stop-color:#F16522"/>
			</linearGradient>
			<rect x="260.3" y="119" class="st7" width="2.1" height="32.2"/>
			<linearGradient id="SVGID_7_" gradientUnits="userSpaceOnUse" x1="223.0719" y1="135.1233" x2="301.5624" y2="135.1233">
				<stop  offset="0" style="stop-color:#F05A28"/>
				<stop  offset="9.705277e-02" style="stop-color:#F26F24"/>
				<stop  offset="0.2189" style="stop-color:#F48321"/>
				<stop  offset="0.343" style="stop-color:#F68E1F"/>
				<stop  offset="0.4714" style="stop-color:#F6921E"/>
				<stop  offset="0.7511" style="stop-color:#F37820"/>
				<stop  offset="0.9952" style="stop-color:#F16522"/>
			</linearGradient>
			<rect x="277.3" y="119" class="st8" width="1.8" height="32.2"/>
			<linearGradient id="SVGID_8_" gradientUnits="userSpaceOnUse" x1="223.0809" y1="135.1233" x2="301.5671" y2="135.1233">
				<stop  offset="0" style="stop-color:#F05A28"/>
				<stop  offset="9.705277e-02" style="stop-color:#F26F24"/>
				<stop  offset="0.2189" style="stop-color:#F48321"/>
				<stop  offset="0.343" style="stop-color:#F68E1F"/>
				<stop  offset="0.4714" style="stop-color:#F6921E"/>
				<stop  offset="0.7511" style="stop-color:#F37820"/>
				<stop  offset="0.9952" style="stop-color:#F16522"/>
			</linearGradient>
			<path class="st9" d="M284.9,119h-0.9v32.2h0.9c0.3,0,0.5-0.1,0.8-0.1v-32.1C285.4,119.1,285.1,119,284.9,119z"/>
			<linearGradient id="SVGID_9_" gradientUnits="userSpaceOnUse" x1="223.0565" y1="135.1233" x2="301.5427" y2="135.1233">
				<stop  offset="0" style="stop-color:#F05A28"/>
				<stop  offset="9.705277e-02" style="stop-color:#F26F24"/>
				<stop  offset="0.2189" style="stop-color:#F48321"/>
				<stop  offset="0.343" style="stop-color:#F68E1F"/>
				<stop  offset="0.4714" style="stop-color:#F6921E"/>
				<stop  offset="0.7511" style="stop-color:#F37820"/>
				<stop  offset="0.9952" style="stop-color:#F16522"/>
			</linearGradient>
			<rect x="250.6" y="119" class="st10" width="1.8" height="32.2"/>
			<linearGradient id="SVGID_10_" gradientUnits="userSpaceOnUse" x1="223.0326" y1="135.1233" x2="301.5888" y2="135.1233">
				<stop  offset="0" style="stop-color:#F05A28"/>
				<stop  offset="9.705277e-02" style="stop-color:#F26F24"/>
				<stop  offset="0.2189" style="stop-color:#F48321"/>
				<stop  offset="0.343" style="stop-color:#F68E1F"/>
				<stop  offset="0.4714" style="stop-color:#F6921E"/>
				<stop  offset="0.7511" style="stop-color:#F37820"/>
				<stop  offset="0.9952" style="stop-color:#F16522"/>
			</linearGradient>
			<rect x="240.7" y="119" class="st11" width="1.7" height="32.2"/>
			<linearGradient id="SVGID_11_" gradientUnits="userSpaceOnUse" x1="223.0503" y1="135.1233" x2="301.5374" y2="135.1233">
				<stop  offset="0" style="stop-color:#F05A28"/>
				<stop  offset="9.705277e-02" style="stop-color:#F26F24"/>
				<stop  offset="0.2189" style="stop-color:#F48321"/>
				<stop  offset="0.343" style="stop-color:#F68E1F"/>
				<stop  offset="0.4714" style="stop-color:#F6921E"/>
				<stop  offset="0.7511" style="stop-color:#F37820"/>
				<stop  offset="0.9952" style="stop-color:#F16522"/>
			</linearGradient>
			<rect x="243.9" y="119" class="st12" width="1.5" height="32.2"/>
			<linearGradient id="SVGID_12_" gradientUnits="userSpaceOnUse" x1="222.9756" y1="135.1233" x2="301.6013" y2="135.1233">
				<stop  offset="0" style="stop-color:#F05A28"/>
				<stop  offset="9.705277e-02" style="stop-color:#F26F24"/>
				<stop  offset="0.2189" style="stop-color:#F48321"/>
				<stop  offset="0.343" style="stop-color:#F68E1F"/>
				<stop  offset="0.4714" style="stop-color:#F6921E"/>
				<stop  offset="0.7511" style="stop-color:#F37820"/>
				<stop  offset="0.9952" style="stop-color:#F16522"/>
			</linearGradient>
			<rect x="280.7" y="119" class="st13" width="1.7" height="32.2"/>
			<linearGradient id="SVGID_13_" gradientUnits="userSpaceOnUse" x1="223.057" y1="135.1233" x2="301.5493" y2="135.1233">
				<stop  offset="0" style="stop-color:#F05A28"/>
				<stop  offset="9.705277e-02" style="stop-color:#F26F24"/>
				<stop  offset="0.2189" style="stop-color:#F48321"/>
				<stop  offset="0.343" style="stop-color:#F68E1F"/>
				<stop  offset="0.4714" style="stop-color:#F6921E"/>
				<stop  offset="0.7511" style="stop-color:#F37820"/>
				<stop  offset="0.9952" style="stop-color:#F16522"/>
			</linearGradient>
			<rect x="257.2" y="119" class="st14" width="1.6" height="32.2"/>
			<linearGradient id="SVGID_14_" gradientUnits="userSpaceOnUse" x1="222.9974" y1="135.1233" x2="301.6154" y2="135.1233">
				<stop  offset="0" style="stop-color:#F05A28"/>
				<stop  offset="9.705277e-02" style="stop-color:#F26F24"/>
				<stop  offset="0.2189" style="stop-color:#F48321"/>
				<stop  offset="0.343" style="stop-color:#F68E1F"/>
				<stop  offset="0.4714" style="stop-color:#F6921E"/>
				<stop  offset="0.7511" style="stop-color:#F37820"/>
				<stop  offset="0.9952" style="stop-color:#F16522"/>
			</linearGradient>
			<rect x="264" y="119" class="st15" width="1.8" height="32.2"/>
			<linearGradient id="SVGID_15_" gradientUnits="userSpaceOnUse" x1="223.0686" y1="135.1233" x2="301.5551" y2="135.1233">
				<stop  offset="0" style="stop-color:#F05A28"/>
				<stop  offset="9.705277e-02" style="stop-color:#F26F24"/>
				<stop  offset="0.2189" style="stop-color:#F48321"/>
				<stop  offset="0.343" style="stop-color:#F68E1F"/>
				<stop  offset="0.4714" style="stop-color:#F6921E"/>
				<stop  offset="0.7511" style="stop-color:#F37820"/>
				<stop  offset="0.9952" style="stop-color:#F16522"/>
			</linearGradient>
			<rect x="267.3" y="119" class="st16" width="1.7" height="32.2"/>
			<linearGradient id="SVGID_16_" gradientUnits="userSpaceOnUse" x1="223.1427" y1="135.1233" x2="301.5232" y2="135.1233">
				<stop  offset="0" style="stop-color:#F05A28"/>
				<stop  offset="9.705277e-02" style="stop-color:#F26F24"/>
				<stop  offset="0.2189" style="stop-color:#F48321"/>
				<stop  offset="0.343" style="stop-color:#F68E1F"/>
				<stop  offset="0.4714" style="stop-color:#F6921E"/>
				<stop  offset="0.7511" style="stop-color:#F37820"/>
				<stop  offset="0.9952" style="stop-color:#F16522"/>
			</linearGradient>
			<rect x="273.7" y="119" class="st17" width="2.1" height="32.2"/>
			<linearGradient id="SVGID_17_" gradientUnits="userSpaceOnUse" x1="223.0576" y1="135.1233" x2="301.5487" y2="135.1233">
				<stop  offset="0" style="stop-color:#F05A28"/>
				<stop  offset="9.705277e-02" style="stop-color:#F26F24"/>
				<stop  offset="0.2189" style="stop-color:#F48321"/>
				<stop  offset="0.343" style="stop-color:#F68E1F"/>
				<stop  offset="0.4714" style="stop-color:#F6921E"/>
				<stop  offset="0.7511" style="stop-color:#F37820"/>
				<stop  offset="0.9952" style="stop-color:#F16522"/>
			</linearGradient>
			<rect x="254" y="119" class="st18" width="1.7" height="32.2"/>
			<linearGradient id="SVGID_18_" gradientUnits="userSpaceOnUse" x1="223.0684" y1="135.1233" x2="301.5601" y2="135.1233">
				<stop  offset="0" style="stop-color:#F05A28"/>
				<stop  offset="9.705277e-02" style="stop-color:#F26F24"/>
				<stop  offset="0.2189" style="stop-color:#F48321"/>
				<stop  offset="0.343" style="stop-color:#F68E1F"/>
				<stop  offset="0.4714" style="stop-color:#F6921E"/>
				<stop  offset="0.7511" style="stop-color:#F37820"/>
				<stop  offset="0.9952" style="stop-color:#F16522"/>
			</linearGradient>
			<rect x="270.6" y="119" class="st19" width="1.6" height="32.2"/>
			<linearGradient id="SVGID_19_" gradientUnits="userSpaceOnUse" x1="223.0812" y1="135.124" x2="301.5705" y2="135.124">
				<stop  offset="0" style="stop-color:#F05A28"/>
				<stop  offset="9.705277e-02" style="stop-color:#F26F24"/>
				<stop  offset="0.2189" style="stop-color:#F48321"/>
				<stop  offset="0.343" style="stop-color:#F68E1F"/>
				<stop  offset="0.4714" style="stop-color:#F6921E"/>
				<stop  offset="0.7511" style="stop-color:#F37820"/>
				<stop  offset="0.9952" style="stop-color:#F16522"/>
			</linearGradient>
			<path class="st20" d="M287.2,119.2V151c0.7-0.1,1.4-0.2,2.1-0.4v-30.9C288.6,119.5,288,119.3,287.2,119.2z"/>
			<linearGradient id="SVGID_20_" gradientUnits="userSpaceOnUse" x1="223.0353" y1="135.124" x2="301.5871" y2="135.124">
				<stop  offset="0" style="stop-color:#F05A28"/>
				<stop  offset="9.705277e-02" style="stop-color:#F26F24"/>
				<stop  offset="0.2189" style="stop-color:#F48321"/>
				<stop  offset="0.343" style="stop-color:#F68E1F"/>
				<stop  offset="0.4714" style="stop-color:#F6921E"/>
				<stop  offset="0.7511" style="stop-color:#F37820"/>
				<stop  offset="0.9952" style="stop-color:#F16522"/>
			</linearGradient>
			<path class="st21" d="M224.2,129.3V141c0.5,1.2,1,2.3,1.8,3.3V126C225.3,127,224.7,128.1,224.2,129.3z"/>
			<linearGradient id="SVGID_21_" gradientUnits="userSpaceOnUse" x1="222.9612" y1="135.124" x2="301.5869" y2="135.124">
				<stop  offset="0" style="stop-color:#F05A28"/>
				<stop  offset="9.705277e-02" style="stop-color:#F26F24"/>
				<stop  offset="0.2189" style="stop-color:#F48321"/>
				<stop  offset="0.343" style="stop-color:#F68E1F"/>
				<stop  offset="0.4714" style="stop-color:#F6921E"/>
				<stop  offset="0.7511" style="stop-color:#F37820"/>
				<stop  offset="0.9952" style="stop-color:#F16522"/>
			</linearGradient>
			<path class="st22" d="M294.2,121.8v26.7c0.6-0.4,1.1-0.9,1.7-1.3v-24.1C295.3,122.6,294.8,122.2,294.2,121.8z"/>
			<linearGradient id="SVGID_22_" gradientUnits="userSpaceOnUse" x1="223.0893" y1="135.1233" x2="301.5764" y2="135.1233">
				<stop  offset="0" style="stop-color:#F05A28"/>
				<stop  offset="9.705277e-02" style="stop-color:#F26F24"/>
				<stop  offset="0.2189" style="stop-color:#F48321"/>
				<stop  offset="0.343" style="stop-color:#F68E1F"/>
				<stop  offset="0.4714" style="stop-color:#F6921E"/>
				<stop  offset="0.7511" style="stop-color:#F37820"/>
				<stop  offset="0.9952" style="stop-color:#F16522"/>
			</linearGradient>
			<path class="st23" d="M297.5,124.6v21c0.5-0.6,1-1.2,1.5-1.8v-17.3C298.5,125.8,298,125.2,297.5,124.6z"/>
			<linearGradient id="SVGID_23_" gradientUnits="userSpaceOnUse" x1="223.0383" y1="135.124" x2="301.5252" y2="135.124">
				<stop  offset="0" style="stop-color:#F05A28"/>
				<stop  offset="9.705277e-02" style="stop-color:#F26F24"/>
				<stop  offset="0.2189" style="stop-color:#F48321"/>
				<stop  offset="0.343" style="stop-color:#F68E1F"/>
				<stop  offset="0.4714" style="stop-color:#F6921E"/>
				<stop  offset="0.7511" style="stop-color:#F37820"/>
				<stop  offset="0.9952" style="stop-color:#F16522"/>
			</linearGradient>
			<path class="st24" d="M227.6,124.2v21.9c0.5,0.5,1.1,1,1.7,1.5v-24.8C228.6,123.2,228.1,123.6,227.6,124.2z"/>
			<linearGradient id="SVGID_24_" gradientUnits="userSpaceOnUse" x1="223.045" y1="135.124" x2="301.5356" y2="135.124">
				<stop  offset="0" style="stop-color:#F05A28"/>
				<stop  offset="9.705277e-02" style="stop-color:#F26F24"/>
				<stop  offset="0.2189" style="stop-color:#F48321"/>
				<stop  offset="0.343" style="stop-color:#F68E1F"/>
				<stop  offset="0.4714" style="stop-color:#F6921E"/>
				<stop  offset="0.7511" style="stop-color:#F37820"/>
				<stop  offset="0.9952" style="stop-color:#F16522"/>
			</linearGradient>
			<path class="st25" d="M237.4,119.2V151c0.6,0.1,1.2,0.1,1.8,0.2v-32.1C238.5,119.1,238,119.2,237.4,119.2z"/>
			<linearGradient id="SVGID_25_" gradientUnits="userSpaceOnUse" x1="223.0903" y1="135.124" x2="301.5793" y2="135.124">
				<stop  offset="0" style="stop-color:#F05A28"/>
				<stop  offset="9.705277e-02" style="stop-color:#F26F24"/>
				<stop  offset="0.2189" style="stop-color:#F48321"/>
				<stop  offset="0.343" style="stop-color:#F68E1F"/>
				<stop  offset="0.4714" style="stop-color:#F6921E"/>
				<stop  offset="0.7511" style="stop-color:#F37820"/>
				<stop  offset="0.9952" style="stop-color:#F16522"/>
			</linearGradient>
			<path class="st26" d="M300.5,129.6v11.1c0.7-1.7,1.1-3.6,1.1-5.5C301.6,133.2,301.2,131.3,300.5,129.6z"/>
			<linearGradient id="SVGID_26_" gradientUnits="userSpaceOnUse" x1="223.0406" y1="135.124" x2="301.5338" y2="135.124">
				<stop  offset="0" style="stop-color:#F05A28"/>
				<stop  offset="9.705277e-02" style="stop-color:#F26F24"/>
				<stop  offset="0.2189" style="stop-color:#F48321"/>
				<stop  offset="0.343" style="stop-color:#F68E1F"/>
				<stop  offset="0.4714" style="stop-color:#F6921E"/>
				<stop  offset="0.7511" style="stop-color:#F37820"/>
				<stop  offset="0.9952" style="stop-color:#F16522"/>
			</linearGradient>
			<path class="st27" d="M230.8,121.6v27.1c0.4,0.3,0.9,0.5,1.4,0.7v-28.6C231.7,121.1,231.2,121.3,230.8,121.6z"/>
			<linearGradient id="SVGID_27_" gradientUnits="userSpaceOnUse" x1="222.9702" y1="135.1233" x2="301.5877" y2="135.1233">
				<stop  offset="0" style="stop-color:#F05A28"/>
				<stop  offset="9.705277e-02" style="stop-color:#F26F24"/>
				<stop  offset="0.2189" style="stop-color:#F48321"/>
				<stop  offset="0.343" style="stop-color:#F68E1F"/>
				<stop  offset="0.4714" style="stop-color:#F6921E"/>
				<stop  offset="0.7511" style="stop-color:#F37820"/>
				<stop  offset="0.9952" style="stop-color:#F16522"/>
			</linearGradient>
			<path class="st28" d="M290.9,120.1v30c0.6-0.2,1.2-0.5,1.8-0.8v-28.4C292.1,120.6,291.5,120.4,290.9,120.1z"/>
			<linearGradient id="SVGID_28_" gradientUnits="userSpaceOnUse" x1="223.0365" y1="135.124" x2="301.5821" y2="135.124">
				<stop  offset="0" style="stop-color:#F05A28"/>
				<stop  offset="9.705277e-02" style="stop-color:#F26F24"/>
				<stop  offset="0.2189" style="stop-color:#F48321"/>
				<stop  offset="0.343" style="stop-color:#F68E1F"/>
				<stop  offset="0.4714" style="stop-color:#F6921E"/>
				<stop  offset="0.7511" style="stop-color:#F37820"/>
				<stop  offset="0.9952" style="stop-color:#F16522"/>
			</linearGradient>
			<path class="st29" d="M233.7,120.1v30c0.7,0.2,1.4,0.5,2.1,0.6v-31.2C235.1,119.7,234.4,119.9,233.7,120.1z"/>
			<linearGradient id="SVGID_29_" gradientUnits="userSpaceOnUse" x1="245.4191" y1="135.1233" x2="246.9918" y2="135.1233">
				<stop  offset="1.904760e-02" style="stop-color:#F05A28"/>
				<stop  offset="0.6" style="stop-color:#F6921E"/>
				<stop  offset="0.8021" style="stop-color:#F6901E"/>
				<stop  offset="0.8749" style="stop-color:#F58920"/>
				<stop  offset="0.9268" style="stop-color:#F47E22"/>
				<stop  offset="0.9685" style="stop-color:#F26D25"/>
				<stop  offset="1" style="stop-color:#F05A28"/>
			</linearGradient>
			<rect x="245.4" y="119" class="st30" width="1.6" height="32.2"/>
			<linearGradient id="SVGID_30_" gradientUnits="userSpaceOnUse" x1="249.0521" y1="135.1233" x2="250.6248" y2="135.1233">
				<stop  offset="1.904760e-02" style="stop-color:#F05A28"/>
				<stop  offset="0.6" style="stop-color:#F6921E"/>
				<stop  offset="0.8021" style="stop-color:#F6901E"/>
				<stop  offset="0.8749" style="stop-color:#F58920"/>
				<stop  offset="0.9268" style="stop-color:#F47E22"/>
				<stop  offset="0.9685" style="stop-color:#F26D25"/>
				<stop  offset="1" style="stop-color:#F05A28"/>
			</linearGradient>
			<rect x="249.1" y="119" class="st31" width="1.6" height="32.2"/>
			<linearGradient id="SVGID_31_" gradientUnits="userSpaceOnUse" x1="252.3908" y1="135.1233" x2="253.9635" y2="135.1233">
				<stop  offset="1.904760e-02" style="stop-color:#F05A28"/>
				<stop  offset="0.6" style="stop-color:#F6921E"/>
				<stop  offset="0.8021" style="stop-color:#F6901E"/>
				<stop  offset="0.8749" style="stop-color:#F58920"/>
				<stop  offset="0.9268" style="stop-color:#F47E22"/>
				<stop  offset="0.9685" style="stop-color:#F26D25"/>
				<stop  offset="1" style="stop-color:#F05A28"/>
			</linearGradient>
			<rect x="252.4" y="119" class="st32" width="1.6" height="32.2"/>
			<linearGradient id="SVGID_32_" gradientUnits="userSpaceOnUse" x1="255.6314" y1="135.1233" x2="257.2011" y2="135.1233">
				<stop  offset="1.904760e-02" style="stop-color:#F05A28"/>
				<stop  offset="0.6" style="stop-color:#F6921E"/>
				<stop  offset="0.8021" style="stop-color:#F6901E"/>
				<stop  offset="0.8749" style="stop-color:#F58920"/>
				<stop  offset="0.9268" style="stop-color:#F47E22"/>
				<stop  offset="0.9685" style="stop-color:#F26D25"/>
				<stop  offset="1" style="stop-color:#F05A28"/>
			</linearGradient>
			<rect x="255.6" y="119" class="st33" width="1.6" height="32.2"/>
			<linearGradient id="SVGID_33_" gradientUnits="userSpaceOnUse" x1="258.771" y1="135.1233" x2="260.3436" y2="135.1233">
				<stop  offset="1.904760e-02" style="stop-color:#F05A28"/>
				<stop  offset="0.6" style="stop-color:#F6921E"/>
				<stop  offset="0.8021" style="stop-color:#F6901E"/>
				<stop  offset="0.8749" style="stop-color:#F58920"/>
				<stop  offset="0.9268" style="stop-color:#F47E22"/>
				<stop  offset="0.9685" style="stop-color:#F26D25"/>
				<stop  offset="1" style="stop-color:#F05A28"/>
			</linearGradient>
			<rect x="258.8" y="119" class="st34" width="1.6" height="32.2"/>
			<linearGradient id="SVGID_34_" gradientUnits="userSpaceOnUse" x1="262.4069" y1="135.1233" x2="263.9766" y2="135.1233">
				<stop  offset="1.904760e-02" style="stop-color:#F05A28"/>
				<stop  offset="0.6" style="stop-color:#F6921E"/>
				<stop  offset="0.8021" style="stop-color:#F6901E"/>
				<stop  offset="0.8749" style="stop-color:#F58920"/>
				<stop  offset="0.9268" style="stop-color:#F47E22"/>
				<stop  offset="0.9685" style="stop-color:#F26D25"/>
				<stop  offset="1" style="stop-color:#F05A28"/>
			</linearGradient>
			<rect x="262.4" y="119" class="st35" width="1.6" height="32.2"/>
			<linearGradient id="SVGID_35_" gradientUnits="userSpaceOnUse" x1="265.7455" y1="135.1233" x2="267.3153" y2="135.1233">
				<stop  offset="1.904760e-02" style="stop-color:#F05A28"/>
				<stop  offset="0.6" style="stop-color:#F6921E"/>
				<stop  offset="0.8021" style="stop-color:#F6901E"/>
				<stop  offset="0.8749" style="stop-color:#F58920"/>
				<stop  offset="0.9268" style="stop-color:#F47E22"/>
				<stop  offset="0.9685" style="stop-color:#F26D25"/>
				<stop  offset="1" style="stop-color:#F05A28"/>
			</linearGradient>
			<rect x="265.7" y="119" class="st36" width="1.6" height="32.2"/>
			<linearGradient id="SVGID_36_" gradientUnits="userSpaceOnUse" x1="268.9832" y1="135.1233" x2="270.5558" y2="135.1233">
				<stop  offset="1.904760e-02" style="stop-color:#F05A28"/>
				<stop  offset="0.6" style="stop-color:#F6921E"/>
				<stop  offset="0.8021" style="stop-color:#F6901E"/>
				<stop  offset="0.8749" style="stop-color:#F58920"/>
				<stop  offset="0.9268" style="stop-color:#F47E22"/>
				<stop  offset="0.9685" style="stop-color:#F26D25"/>
				<stop  offset="1" style="stop-color:#F05A28"/>
			</linearGradient>
			<rect x="269" y="119" class="st37" width="1.6" height="32.2"/>
			<linearGradient id="SVGID_37_" gradientUnits="userSpaceOnUse" x1="272.1257" y1="135.1233" x2="273.6983" y2="135.1233">
				<stop  offset="1.904760e-02" style="stop-color:#F05A28"/>
				<stop  offset="0.6" style="stop-color:#F6921E"/>
				<stop  offset="0.8021" style="stop-color:#F6901E"/>
				<stop  offset="0.8749" style="stop-color:#F58920"/>
				<stop  offset="0.9268" style="stop-color:#F47E22"/>
				<stop  offset="0.9685" style="stop-color:#F26D25"/>
				<stop  offset="1" style="stop-color:#F05A28"/>
			</linearGradient>
			<rect x="272.1" y="119" class="st38" width="1.6" height="32.2"/>
			<linearGradient id="SVGID_38_" gradientUnits="userSpaceOnUse" x1="275.7558" y1="135.1233" x2="277.3285" y2="135.1233">
				<stop  offset="1.904760e-02" style="stop-color:#F05A28"/>
				<stop  offset="0.6" style="stop-color:#F6921E"/>
				<stop  offset="0.8021" style="stop-color:#F6901E"/>
				<stop  offset="0.8749" style="stop-color:#F58920"/>
				<stop  offset="0.9268" style="stop-color:#F47E22"/>
				<stop  offset="0.9685" style="stop-color:#F26D25"/>
				<stop  offset="1" style="stop-color:#F05A28"/>
			</linearGradient>
			<rect x="275.8" y="119" class="st39" width="1.6" height="32.2"/>
			<linearGradient id="SVGID_39_" gradientUnits="userSpaceOnUse" x1="279.0945" y1="135.1233" x2="280.6671" y2="135.1233">
				<stop  offset="1.904760e-02" style="stop-color:#F05A28"/>
				<stop  offset="0.6" style="stop-color:#F6921E"/>
				<stop  offset="0.8021" style="stop-color:#F6901E"/>
				<stop  offset="0.8749" style="stop-color:#F58920"/>
				<stop  offset="0.9268" style="stop-color:#F47E22"/>
				<stop  offset="0.9685" style="stop-color:#F26D25"/>
				<stop  offset="1" style="stop-color:#F05A28"/>
			</linearGradient>
			<rect x="279.1" y="119" class="st40" width="1.6" height="32.2"/>
			<linearGradient id="SVGID_40_" gradientUnits="userSpaceOnUse" x1="282.3379" y1="135.1233" x2="283.9077" y2="135.1233">
				<stop  offset="1.904760e-02" style="stop-color:#F05A28"/>
				<stop  offset="0.6" style="stop-color:#F6921E"/>
				<stop  offset="0.8021" style="stop-color:#F6901E"/>
				<stop  offset="0.8749" style="stop-color:#F58920"/>
				<stop  offset="0.9268" style="stop-color:#F47E22"/>
				<stop  offset="0.9685" style="stop-color:#F26D25"/>
				<stop  offset="1" style="stop-color:#F05A28"/>
			</linearGradient>
			<rect x="282.3" y="119" class="st41" width="1.6" height="32.2"/>
			<linearGradient id="SVGID_41_" gradientUnits="userSpaceOnUse" x1="285.6737" y1="135.124" x2="287.2464" y2="135.124">
				<stop  offset="1.904760e-02" style="stop-color:#F05A28"/>
				<stop  offset="0.6" style="stop-color:#F6921E"/>
				<stop  offset="0.8021" style="stop-color:#F6901E"/>
				<stop  offset="0.8749" style="stop-color:#F58920"/>
				<stop  offset="0.9268" style="stop-color:#F47E22"/>
				<stop  offset="0.9685" style="stop-color:#F26D25"/>
				<stop  offset="1" style="stop-color:#F05A28"/>
			</linearGradient>
			<path class="st42" d="M285.7,119.1v32.1c0.5,0,1.1-0.1,1.6-0.2v-31.8C286.7,119.2,286.2,119.1,285.7,119.1z"/>
			<linearGradient id="SVGID_42_" gradientUnits="userSpaceOnUse" x1="289.3067" y1="135.124" x2="290.8766" y2="135.124">
				<stop  offset="1.904760e-02" style="stop-color:#F05A28"/>
				<stop  offset="0.6" style="stop-color:#F6921E"/>
				<stop  offset="0.8021" style="stop-color:#F6901E"/>
				<stop  offset="0.8749" style="stop-color:#F58920"/>
				<stop  offset="0.9268" style="stop-color:#F47E22"/>
				<stop  offset="0.9685" style="stop-color:#F26D25"/>
				<stop  offset="1" style="stop-color:#F05A28"/>
			</linearGradient>
			<path class="st43" d="M289.3,119.7v30.9c0.5-0.1,1.1-0.3,1.6-0.5v-30C290.4,119.9,289.8,119.8,289.3,119.7z"/>
			<linearGradient id="SVGID_43_" gradientUnits="userSpaceOnUse" x1="292.6454" y1="135.1233" x2="294.2152" y2="135.1233">
				<stop  offset="1.904760e-02" style="stop-color:#F05A28"/>
				<stop  offset="0.6" style="stop-color:#F6921E"/>
				<stop  offset="0.8021" style="stop-color:#F6901E"/>
				<stop  offset="0.8749" style="stop-color:#F58920"/>
				<stop  offset="0.9268" style="stop-color:#F47E22"/>
				<stop  offset="0.9685" style="stop-color:#F26D25"/>
				<stop  offset="1" style="stop-color:#F05A28"/>
			</linearGradient>
			<path class="st44" d="M292.6,120.9v28.4c0.5-0.3,1.1-0.5,1.6-0.8v-26.7C293.7,121.4,293.2,121.2,292.6,120.9z"/>
			<linearGradient id="SVGID_44_" gradientUnits="userSpaceOnUse" x1="295.886" y1="135.1247" x2="297.4558" y2="135.1247">
				<stop  offset="1.904760e-02" style="stop-color:#F05A28"/>
				<stop  offset="0.6" style="stop-color:#F6921E"/>
				<stop  offset="0.8021" style="stop-color:#F6901E"/>
				<stop  offset="0.8749" style="stop-color:#F58920"/>
				<stop  offset="0.9268" style="stop-color:#F47E22"/>
				<stop  offset="0.9685" style="stop-color:#F26D25"/>
				<stop  offset="1" style="stop-color:#F05A28"/>
			</linearGradient>
			<path class="st45" d="M295.9,123.1v24.1c0.6-0.5,1.1-1,1.6-1.5v-21C297,124.1,296.4,123.6,295.9,123.1z"/>
			<linearGradient id="SVGID_45_" gradientUnits="userSpaceOnUse" x1="232.1654" y1="135.1233" x2="233.738" y2="135.1233">
				<stop  offset="1.904760e-02" style="stop-color:#F05A28"/>
				<stop  offset="0.6" style="stop-color:#F6921E"/>
				<stop  offset="0.8021" style="stop-color:#F6901E"/>
				<stop  offset="0.8749" style="stop-color:#F58920"/>
				<stop  offset="0.9268" style="stop-color:#F47E22"/>
				<stop  offset="0.9685" style="stop-color:#F26D25"/>
				<stop  offset="1" style="stop-color:#F05A28"/>
			</linearGradient>
			<path class="st46" d="M232.2,120.8v28.6c0.5,0.3,1,0.5,1.6,0.7v-30C233.2,120.3,232.7,120.6,232.2,120.8z"/>
			<linearGradient id="SVGID_46_" gradientUnits="userSpaceOnUse" x1="235.7999" y1="135.124" x2="237.3696" y2="135.124">
				<stop  offset="1.904760e-02" style="stop-color:#F05A28"/>
				<stop  offset="0.6" style="stop-color:#F6921E"/>
				<stop  offset="0.8021" style="stop-color:#F6901E"/>
				<stop  offset="0.8749" style="stop-color:#F58920"/>
				<stop  offset="0.9268" style="stop-color:#F47E22"/>
				<stop  offset="0.9685" style="stop-color:#F26D25"/>
				<stop  offset="1" style="stop-color:#F05A28"/>
			</linearGradient>
			<path class="st47" d="M235.8,119.5v31.2c0.5,0.1,1,0.2,1.6,0.3v-31.8C236.8,119.3,236.3,119.4,235.8,119.5z"/>
			<linearGradient id="SVGID_47_" gradientUnits="userSpaceOnUse" x1="239.1356" y1="135.1233" x2="240.7083" y2="135.1233">
				<stop  offset="1.904760e-02" style="stop-color:#F05A28"/>
				<stop  offset="0.6" style="stop-color:#F6921E"/>
				<stop  offset="0.8021" style="stop-color:#F6901E"/>
				<stop  offset="0.8749" style="stop-color:#F58920"/>
				<stop  offset="0.9268" style="stop-color:#F47E22"/>
				<stop  offset="0.9685" style="stop-color:#F26D25"/>
				<stop  offset="1" style="stop-color:#F05A28"/>
			</linearGradient>
			<path class="st48" d="M239.8,119c-0.2,0-0.4,0.1-0.6,0.1v32.1c0.2,0,0.4,0.1,0.6,0.1h0.9V119H239.8z"/>
			<linearGradient id="SVGID_48_" gradientUnits="userSpaceOnUse" x1="242.3776" y1="135.1233" x2="243.9475" y2="135.1233">
				<stop  offset="1.904760e-02" style="stop-color:#F05A28"/>
				<stop  offset="0.6" style="stop-color:#F6921E"/>
				<stop  offset="0.8021" style="stop-color:#F6901E"/>
				<stop  offset="0.8749" style="stop-color:#F58920"/>
				<stop  offset="0.9268" style="stop-color:#F47E22"/>
				<stop  offset="0.9685" style="stop-color:#F26D25"/>
				<stop  offset="1" style="stop-color:#F05A28"/>
			</linearGradient>
			<rect x="242.4" y="119" class="st49" width="1.6" height="32.2"/>
			<linearGradient id="SVGID_49_" gradientUnits="userSpaceOnUse" x1="223.0352" y1="135.1247" x2="224.214" y2="135.1247">
				<stop  offset="1.904760e-02" style="stop-color:#F05A28"/>
				<stop  offset="0.6" style="stop-color:#F6921E"/>
				<stop  offset="0.8021" style="stop-color:#F6901E"/>
				<stop  offset="0.8749" style="stop-color:#F58920"/>
				<stop  offset="0.9268" style="stop-color:#F47E22"/>
				<stop  offset="0.9685" style="stop-color:#F26D25"/>
				<stop  offset="1" style="stop-color:#F05A28"/>
			</linearGradient>
			<path class="st50" d="M223,135.1c0,2.1,0.4,4,1.2,5.9v-11.7C223.5,131.1,223,133.1,223,135.1z"/>
			<linearGradient id="SVGID_50_" gradientUnits="userSpaceOnUse" x1="225.9814" y1="135.124" x2="227.5513" y2="135.124">
				<stop  offset="1.904760e-02" style="stop-color:#F05A28"/>
				<stop  offset="0.6" style="stop-color:#F6921E"/>
				<stop  offset="0.8021" style="stop-color:#F6901E"/>
				<stop  offset="0.8749" style="stop-color:#F58920"/>
				<stop  offset="0.9268" style="stop-color:#F47E22"/>
				<stop  offset="0.9685" style="stop-color:#F26D25"/>
				<stop  offset="1" style="stop-color:#F05A28"/>
			</linearGradient>
			<path class="st51" d="M226,126v18.2c0.5,0.7,1,1.3,1.6,1.8v-21.9C227,124.8,226.4,125.4,226,126z"/>
			<linearGradient id="SVGID_51_" gradientUnits="userSpaceOnUse" x1="229.2191" y1="135.1247" x2="230.7918" y2="135.1247">
				<stop  offset="1.904760e-02" style="stop-color:#F05A28"/>
				<stop  offset="0.6" style="stop-color:#F6921E"/>
				<stop  offset="0.8021" style="stop-color:#F6901E"/>
				<stop  offset="0.8749" style="stop-color:#F58920"/>
				<stop  offset="0.9268" style="stop-color:#F47E22"/>
				<stop  offset="0.9685" style="stop-color:#F26D25"/>
				<stop  offset="1" style="stop-color:#F05A28"/>
			</linearGradient>
			<path class="st52" d="M229.2,122.7v24.8c0.5,0.4,1,0.8,1.6,1.1v-27.1C230.2,121.9,229.7,122.3,229.2,122.7z"/>
			<linearGradient id="SVGID_52_" gradientUnits="userSpaceOnUse" x1="298.9274" y1="135.1247" x2="300.5001" y2="135.1247">
				<stop  offset="1.904760e-02" style="stop-color:#F05A28"/>
				<stop  offset="0.6" style="stop-color:#F6921E"/>
				<stop  offset="0.8021" style="stop-color:#F6901E"/>
				<stop  offset="0.8749" style="stop-color:#F58920"/>
				<stop  offset="0.9268" style="stop-color:#F47E22"/>
				<stop  offset="0.9685" style="stop-color:#F26D25"/>
				<stop  offset="1" style="stop-color:#F05A28"/>
			</linearGradient>
			<path class="st53" d="M298.9,126.5v17.3c0.6-1,1.2-2,1.6-3.1v-11.1C300.1,128.5,299.6,127.4,298.9,126.5z"/>
		</g>
	</g>
</g>
</svg>
