<?xml version="1.0" encoding="utf-8"?>
<!-- Generator: Adobe Illustrator 21.0.0, SVG Export Plug-In . SVG Version: 6.00 Build 0)  -->
<svg version="1.1" id="图层_1" xmlns="http://www.w3.org/2000/svg" xmlns:xlink="http://www.w3.org/1999/xlink" x="0px" y="0px"
	 viewBox="0 0 224 512" style="enable-background:new 0 0 224 512;"   width="224px" height="512px" preserveAspectRatio="none meet" xml:space="preserve">
<style type="text/css">
	.st0{fill-rule:evenodd;clip-rule:evenodd;fill:url(#SVGID_1_);}
	.st1{fill:url(#SVGID_2_);}
	.st2{fill-rule:evenodd;clip-rule:evenodd;fill:#111111;stroke:#363536;stroke-width:1.7966;}
	.st3{fill-rule:evenodd;clip-rule:evenodd;fill:url(#SVGID_3_);}
	.st4{fill-rule:evenodd;clip-rule:evenodd;fill:url(#SVGID_4_);}
	.st5{fill-rule:evenodd;clip-rule:evenodd;fill:url(#SVGID_5_);}
	.st6{fill:#680202;}
	.st7{fill-rule:evenodd;clip-rule:evenodd;fill:url(#SVGID_6_);}
	.st8{fill:#FFFFFF;}
	.st9{fill:#FF0000;}
</style>
<g>
	<linearGradient id="SVGID_1_" gradientUnits="userSpaceOnUse" x1="-6.6364" y1="39.2168" x2="229.6707" y2="448.5128">
		<stop  offset="0" style="stop-color:#363536"/>
		<stop  offset="0.31" style="stop-color:#DDDEE0"/>
		<stop  offset="0.53" style="stop-color:#363536"/>
		<stop  offset="0.9" style="stop-color:#535456"/>
		<stop  offset="1" style="stop-color:#363536"/>
	</linearGradient>
	<path class="st0" d="M18,1.8h188.7c8.4,0,15.6,7.2,15.6,15.6v455.7c0,8.4-7.2,15.6-15.6,15.6H18c-8.4,0-15.6-7.2-15.6-15.6V17.4
		C2.4,9,9.6,1.8,18,1.8z"/>
	<linearGradient id="SVGID_2_" gradientUnits="userSpaceOnUse" x1="293.689" y1="63.829" x2="-71.1885" y2="428.7065">
		<stop  offset="0" style="stop-color:#C5C7C9"/>
		<stop  offset="7.000000e-02" style="stop-color:#F7F7F8"/>
		<stop  offset="0.16" style="stop-color:#FFFFFF"/>
		<stop  offset="0.27" style="stop-color:#B0B3B5"/>
		<stop  offset="0.42" style="stop-color:#FFFFFF"/>
		<stop  offset="0.62" style="stop-color:#FFFFFF"/>
		<stop  offset="0.72" style="stop-color:#DDDEE0"/>
		<stop  offset="0.9" style="stop-color:#FFFFFF"/>
		<stop  offset="1" style="stop-color:#DDDEE0"/>
	</linearGradient>
	<path class="st1" d="M18,0h188.7l0,0l0,0l0,0c4.8,0,9,1.8,12.6,4.8c3,3,4.8,7.8,4.8,12.6l0,0l0,0v455.7l0,0l0,0
		c0,4.8-1.8,9.6-4.8,12.6c-3.6,3-7.8,4.8-12.6,4.8v0.6l0,0v-0.6H18v0.6l0,0v-0.6c-4.8,0-9.6-1.8-12.6-4.8c-3-3-5.4-7.8-5.4-12.6l0,0
		l0,0V17.4l0,0l0,0c0-4.8,2.4-9.6,5.4-12.6l0,0C8.4,1.8,13.2,0,18,0L18,0L18,0L18,0L18,0z M206.6,4.2H18l0,0l0,0l0,0
		c-3.6,0-7.2,1.2-9.6,3.6l0,0c-2.4,2.4-4.2,6-4.2,9.6l0,0l0,0v455.7l0,0l0,0c0,3.6,1.8,7.2,4.2,9.6c2.4,2.4,6,3.6,9.6,3.6l0,0l0,0
		l0,0h188.7l0,0l0,0l0,0c3.6,0,7.2-1.2,9.6-3.6c2.4-2.4,3.6-6,3.6-9.6l0,0l0,0V17.4l0,0l0,0c0-3.6-1.2-7.2-3.6-9.6
		C213.8,5.4,210.2,4.2,206.6,4.2L206.6,4.2L206.6,4.2L206.6,4.2z"/>
	<path class="st2" d="M47.9,65.3h128.2c6,0,10.8,5.4,10.8,11.4v337.1c0,6-4.8,11.4-10.8,11.4H47.9c-5.4,0-10.2-5.4-10.2-11.4V76.6
		C37.7,70.7,42.5,65.3,47.9,65.3z"/>
	<linearGradient id="SVGID_3_" gradientUnits="userSpaceOnUse" x1="112.2966" y1="68.9978" x2="112.2966" y2="268.408">
		<stop  offset="0" style="stop-color:#680202"/>
		<stop  offset="8.918919e-02" style="stop-color:#6C0505"/>
		<stop  offset="0.2162" style="stop-color:#881B1B"/>
		<stop  offset="0.4405" style="stop-color:#DD5D5D"/>
		<stop  offset="0.56" style="stop-color:#FF7777"/>
		<stop  offset="0.6838" style="stop-color:#FE6868"/>
		<stop  offset="0.9189" style="stop-color:#FB2626"/>
		<stop  offset="1" style="stop-color:#FC3636"/>
	</linearGradient>
	<rect x="42.5" y="71.3" class="st3" width="139.6" height="199.4"/>
	<linearGradient id="SVGID_4_" gradientUnits="userSpaceOnUse" x1="-2.7143" y1="294.931" x2="119.8718" y2="483.6971">
		<stop  offset="0" style="stop-color:#FF0000"/>
		<stop  offset="1" style="stop-color:#FF7777"/>
	</linearGradient>
	<polygon class="st4" points="42.5,270.7 77.9,431.2 77.3,512 41.9,414.4 	"/>
	<linearGradient id="SVGID_5_" gradientUnits="userSpaceOnUse" x1="122.4792" y1="268.607" x2="122.4792" y2="429.0925">
		<stop  offset="0" style="stop-color:#FF0000"/>
		<stop  offset="1" style="stop-color:#FF7777"/>
	</linearGradient>
	<polygon class="st5" points="42.5,270.7 182.7,270.7 202.4,431.2 77.3,431.2 	"/>
	<path class="st6" d="M42.5,270.1h140.2l0,0v0.6l19.8,160.5v0.6l0,0H77.3l0,0l0,0L41.9,270.7v-0.6H42.5L42.5,270.1z M182.1,271.3
		h-139l34.7,159.9l124-0.6L182.1,271.3z"/>
	<linearGradient id="SVGID_6_" gradientUnits="userSpaceOnUse" x1="139.551" y1="509.803" x2="139.551" y2="429.2763">
		<stop  offset="0" style="stop-color:#7E0707"/>
		<stop  offset="0.1162" style="stop-color:#FB2626"/>
		<stop  offset="0.5" style="stop-color:#FB2626"/>
		<stop  offset="0.8627" style="stop-color:#FF7777"/>
		<stop  offset="1" style="stop-color:#680202"/>
	</linearGradient>
	<rect x="77.3" y="431.2" class="st7" width="124.6" height="80.8"/>
	<path class="st8" d="M103.4,33.8c0-2.4,0.6-4.2,1.2-6c0.6-1.2,1.2-2.4,2.4-3.6c1.2-0.6,1.8-1.2,3-1.8c1.8-0.6,3.6-1.2,5.4-1.2
		c3.6,0,6.6,1.2,8.4,3.6c2.4,1.8,3.6,5.4,3.6,9c0,4.2-1.2,7.2-3.6,9c-1.8,2.4-4.8,3.6-8.4,3.6c-3.6,0-6.6-1.2-8.4-3
		C104.6,41,103.4,38,103.4,33.8L103.4,33.8z M108.8,33.8c0,3,0.6,4.8,1.8,6.6c1.2,1.2,3,1.8,4.8,1.8c1.8,0,3.6-0.6,4.8-1.8
		c1.2-1.8,1.8-3.6,1.8-6.6c0-3-0.6-4.8-1.8-6c-1.2-1.8-3-2.4-4.8-2.4c-1.8,0-3.6,0.6-4.8,2.4C109.4,29,108.8,30.8,108.8,33.8
		L108.8,33.8z M130.9,45.8v-24h16.8V26h-12v5.4h10.2v4.2h-10.2v10.2H130.9L130.9,45.8z M151.3,45.8v-24h16.8V26h-11.4v5.4h10.2v4.2
		h-10.2v10.2H151.3z"/>
	<circle class="st9" cx="69.6" cy="33.9" r="7.6"/>
</g>
</svg>
