<?xml version="1.0" encoding="utf-8"?>
<!-- Generator: Adobe Illustrator 19.0.0, SVG Export Plug-In . SVG Version: 6.00 Build 0)  -->
<svg version="1.1" id="button1_1" xmlns="http://www.w3.org/2000/svg" xmlns:xlink="http://www.w3.org/1999/xlink" x="0px" y="0px"  width="64px" height="64px"
	 viewBox="0 0 200 200" style="enable-background:new 0 0 200 200;" xml:space="preserve">
<style type="text/css">

</style>
<g id="XMLID_265_">
	<linearGradient id="XMLID_2_" gradientUnits="userSpaceOnUse" x1="100.4501" y1="0.7026" x2="100.4501" y2="213.4142">
		<stop  offset="0" style="stop-color:#FFFFFF"/>
		<stop  offset="0.1851" style="stop-color:#F8F8F9"/>
		<stop  offset="0.4603" style="stop-color:#E4E6E8"/>
		<stop  offset="0.7903" style="stop-color:#C3C8CD"/>
		<stop  offset="1" style="stop-color:#AAB1B9"/>
	</linearGradient>
	<linearGradient id="XMLID_3_" gradientUnits="userSpaceOnUse" x1="1.7462" y1="100.0765" x2="199.154" y2="100.0765">
		<stop  offset="0" style="stop-color:#FFFFFF"/>
		<stop  offset="8.335739e-002" style="stop-color:#F8F8F9"/>
		<stop  offset="0.2074" style="stop-color:#E4E6E8"/>
		<stop  offset="0.356" style="stop-color:#C3C8CD"/>
		<stop  offset="0.4504" style="stop-color:#AAB1B9"/>
		<stop  offset="0.9109" style="stop-color:#FBFBFB"/>
		<stop  offset="0.9338" style="stop-color:#F1F2F3"/>
		<stop  offset="0.9727" style="stop-color:#D6D9DD"/>
		<stop  offset="1" style="stop-color:#BFC4CA"/>
	</linearGradient>
	<path id="XMLID_268_"  style="fill:url(#XMLID_2_);stroke:url(#XMLID_3_);stroke-width:0.5;stroke-miterlimit:10;"
        d="M100.5,1.6C46.1,1.6,2,45.7,2,100.1s44.1,98.5,98.5,98.5s98.5-44.1,98.5-98.5
		S154.8,1.6,100.5,1.6z M100.5,189.8c-49.6,0-89.8-40.2-89.8-89.8s40.2-89.8,89.8-89.8s89.8,40.2,89.8,89.8S150,189.8,100.5,189.8z"
		/>
	<linearGradient id="XMLID_4_" gradientUnits="userSpaceOnUse" x1="100.4501" y1="0.7027" x2="100.4501" y2="213.4142">
		<stop  offset="0" style="stop-color:#FFFFFF"/>
		<stop  offset="0.1851" style="stop-color:#F8F8F9"/>
		<stop  offset="0.4603" style="stop-color:#E4E6E8"/>
		<stop  offset="0.7903" style="stop-color:#C3C8CD"/>
		<stop  offset="1" style="stop-color:#AAB1B9"/>
	</linearGradient>
	<circle id="XMLID_267_" style="fill:url(#XMLID_4_);" cx="100.5" cy="100.1" r="89.8"/>
	<linearGradient id="XMLID_5_" gradientUnits="userSpaceOnUse" x1="100.4501" y1="9.4732" x2="100.4501" y2="203.4113">
		<stop  offset="0" style="stop-color:#AAB1B9"/>
		<stop  offset="0.2097" style="stop-color:#C3C8CD"/>
		<stop  offset="0.5397" style="stop-color:#E4E6E8"/>
		<stop  offset="0.8149" style="stop-color:#F8F8F9"/>
		<stop  offset="1" style="stop-color:#FFFFFF"/>
	</linearGradient>
	<circle id="XMLID_266_" style="fill:url(#XMLID_5_);" cx="100.5" cy="100.1" r="89.8"/>
</g>
<path id="XMLID_19_" class="canChangeFill" style="fill:#4DEF63;" d="M178.3,97.5c1.4,45-35.4,81.8-80.4,80.4c-40.8-1.3-74-34.5-75.3-75.3
	C21.2,57.6,58,20.8,103,22.2C143.8,23.5,177,56.7,178.3,97.5z"/>
<linearGradient id="XMLID_6_" gradientUnits="userSpaceOnUse" x1="55.0837" y1="54.7151" x2="145.7751" y2="145.4065">
	<stop  offset="0" style="stop-color:#000000;stop-opacity:0.2"/>
	<stop  offset="0.928" style="stop-color:#000000;stop-opacity:0.4784"/>
	<stop  offset="1" style="stop-color:#000000;stop-opacity:0.5"/>
</linearGradient>
<path id="XMLID_263_" style="fill:url(#XMLID_6_);" d="M164.5,98c1.2,37.1-29.1,67.4-66.2,66.2c-33.6-1.1-60.9-28.4-62-62
	C35.2,65.1,65.5,34.8,102.5,36C136.1,37,163.5,64.4,164.5,98z"/>
<linearGradient id="XMLID_7_" gradientUnits="userSpaceOnUse" x1="22.5573" y1="100.0608" x2="178.3015" y2="100.0608">
	<stop  offset="0" style="stop-color:#000000;stop-opacity:0.5"/>
	<stop  offset="7.202703e-002" style="stop-color:#000000;stop-opacity:0.4784"/>
	<stop  offset="1" style="stop-color:#000000;stop-opacity:0.2"/>
</linearGradient>
<path id="XMLID_249_" style="fill:url(#XMLID_7_);" d="M178.3,97.5c-1.3-40.8-34.5-74-75.3-75.3c-45-1.4-81.8,35.4-80.4,80.4
	c1.3,40.8,34.5,74,75.3,75.3C142.9,179.3,179.7,142.5,178.3,97.5z M98.3,164.2c-33.6-1.1-60.9-28.4-62-62
	C35.2,65.1,65.5,34.8,102.5,36c33.6,1.1,60.9,28.4,62,62C165.7,135,135.4,165.3,98.3,164.2z"/>
</svg>
