<svg id="图层_1" data-name="图层 1" xmlns="http://www.w3.org/2000/svg" viewBox="0 0 392 512" width="392px" height="512px"><defs><style>.cls-1{fill:#5050ff;}</style></defs><title>25</title><g id="_编组_" data-name="&lt;编组&gt;"><path id="_复合路径_" data-name="&lt;复合路径&gt;" class="cls-1" d="M365.79,0H25.12C13.15,0,0,7.85,0,19.82V512H392V18.73C392,6.76,377.76,0,365.79,0ZM54.44,490.21V54.47H337.56V490.21Zm318.34,2.56h-16V35.24H35.23V492.78h-16V21.15a11.92,11.92,0,0,1,5.9-1.92H365.79a15.51,15.51,0,0,1,7,1.79Z"/><path id="_路径_" data-name="&lt;路径&gt;" class="cls-1" d="M294,248.49a20.69,20.69,0,0,0,0,41.38c12,0,20.68-8.71,20.68-20.69A20.67,20.67,0,0,0,294,248.49Z"/></g></svg>