<svg id="图层_1" data-name="图层 1" 
    xmlns="http://www.w3.org/2000/svg" viewBox="0 0 64 64" width="64px" height="64px">
    <defs>
        <style></style>
    </defs>
    <title>警报_1</title>
    <path  class="canChangeFill"  style="fill:#586e7c;" d="M59.42,47.24,50.49,35.85c0-.46.07-.92.07-1.39V22.55A17.29,17.29,0,0,0,38.63,6.16V5.3A5.32,5.32,0,0,0,33.33,0H30.67a5.32,5.32,0,0,0-5.3,5.3v.86A17.29,17.29,0,0,0,13.44,22.55V34.46c0,.47,0,.93.07,1.39L4.58,47.24A3.58,3.58,0,0,0,7.4,53H56.6A3.58,3.58,0,0,0,59.42,47.24Z"/>
    <path  class="canChangeFill"  style="fill:#586e7c;" d="M32,64a9.28,9.28,0,0,0,9.23-8.33l-18.45.08A9.28,9.28,0,0,0,32,64Z"/>
</svg>