<svg id="图层_1" data-name="图层 1" xmlns="http://www.w3.org/2000/svg" viewBox="0 0 512 410" width="512px" height="410px"><defs><style>.cls-1{fill:#5050ff;}</style></defs><title>20</title><path class="cls-1" d="M391.37,406.87H30.7A30.77,30.77,0,0,1,0,376.1V30.77A30.77,30.77,0,0,1,30.7,0H391.37a30.77,30.77,0,0,1,30.7,30.77,9.79,9.79,0,1,1-19.57,0,11.16,11.16,0,0,0-11.13-11.16H30.7A11.16,11.16,0,0,0,19.57,30.77V376.1A11.16,11.16,0,0,0,30.7,387.25H391.37a11.16,11.16,0,0,0,11.13-11.16v-.33l.22-6.55a9.79,9.79,0,1,1,19.56.67l-.22,6.4A30.77,30.77,0,0,1,391.37,406.87Z" transform="translate(0)"/><path class="cls-1" d="M367,371.45H55.13A17.65,17.65,0,0,1,37.51,353.8V53.07A17.65,17.65,0,0,1,55.13,35.42H367a17.65,17.65,0,0,1,17.61,17.65v16a9.79,9.79,0,1,1-19.57,0V55H57.08v296.8H365V311.63a9.79,9.79,0,1,1,19.57,0V353.8A17.65,17.65,0,0,1,367,371.45Z" transform="translate(0)"/><rect class="cls-1" x="201.26" y="45.22" width="19.57" height="316.42"/><path class="cls-1" d="M472.59,410a39.53,39.53,0,0,1-35.39-22l-107-216.56,70.7-35.07,107,216.56a39.61,39.61,0,0,1-17.85,53A39.21,39.21,0,0,1,472.59,410Zm-17.85-30.71a19.88,19.88,0,0,0,35.62-17.67l-98.28-199L356.47,180.3Z" transform="translate(0)"/><path class="cls-1" d="M303.66,206.05,273.4,144.79,421.72,71.22,452,132.48Zm-4-52.39,12.9,26.11,113.24-56.17L412.86,97.5Z" transform="translate(0)"/><path class="cls-1" d="M285.69,232.62a22.44,22.44,0,0,1-20.09-12.5l-26.44-53.54a22.46,22.46,0,0,1,10.13-30.06l13.56-6.72a22.37,22.37,0,0,1,30,10.16l26.45,53.54a22.46,22.46,0,0,1-10.13,30.06l-13.56,6.72A22.27,22.27,0,0,1,285.69,232.62Zm-12.92-85.55a2.76,2.76,0,0,0-1.24.3L258,154.1a2.83,2.83,0,0,0-1.28,3.79l26.44,53.54a2.82,2.82,0,0,0,3.78,1.28L300.48,206a2.83,2.83,0,0,0,1.28-3.79l-26.45-53.54a2.77,2.77,0,0,0-1.62-1.42A2.85,2.85,0,0,0,272.77,147.07Z" transform="translate(0)"/><path class="cls-1" d="M451.22,151.09h-.47a19.82,19.82,0,0,1-17.05-11.4L404.93,81.42a19.82,19.82,0,0,1,1.47-20.74A16.91,16.91,0,0,1,422.9,54l60.71,7.44.25,0a20.77,20.77,0,0,1,14.22,29.9l-.25.42L466,142.48A16.94,16.94,0,0,1,451.22,151.09ZM423,73.8,450.76,130,480.92,82a2.1,2.1,0,0,0-.56-1.12Z" transform="translate(0)"/><path class="cls-1" d="M92.85,215.53a6.54,6.54,0,0,1-4.53-11.25l53.49-51.65a6.53,6.53,0,0,1,9.05,9.42L97.38,213.7A6.5,6.5,0,0,1,92.85,215.53Z" transform="translate(0)"/><path class="cls-1" d="M83.13,265.21A6.54,6.54,0,0,1,78.61,254L166,169.63A6.53,6.53,0,0,1,175,179L87.66,263.38A6.5,6.5,0,0,1,83.13,265.21Z" transform="translate(0)"/><path class="cls-1" d="M116.31,280.25A6.54,6.54,0,0,1,111.79,269L166,216.7a6.53,6.53,0,0,1,9.05,9.42l-54.17,52.3A6.5,6.5,0,0,1,116.31,280.25Z" transform="translate(0)"/></svg>