<svg id="图层_1" data-name="图层 1" 
    xmlns="http://www.w3.org/2000/svg" viewBox="0 0 64 64" width="64px" height="64px">
    <defs>
        <style></style>
    </defs>
    <title>相机</title>
    <path  class="canChangeFill" style="fill:#586e7c;" d="M40.62,30.15A7.38,7.38,0,1,0,48,37.54,7.39,7.39,0,0,0,40.62,30.15Zm0,11.08a3.69,3.69,0,1,1,3.69-3.69A3.69,3.69,0,0,1,40.62,41.23Z"/>
    <path  class="canChangeFill" style="fill:#586e7c;" d="M57.72,10.55a7.33,7.33,0,0,0,.13-1.32,7.41,7.41,0,0,0-7.38-7.38H40.62a7.41,7.41,0,0,0-7.38,7.38,7.32,7.32,0,0,0,.11,1.23H22.15a4.94,4.94,0,0,0-4.92-4.92H11.08a4.94,4.94,0,0,0-4.92,4.92v.11A7.41,7.41,0,0,0,0,17.85V54.77a7.41,7.41,0,0,0,7.38,7.38H56.62A7.41,7.41,0,0,0,64,54.77V17.85A7.41,7.41,0,0,0,57.72,10.55Zm-45.41,11A3.69,3.69,0,1,1,16,17.85,3.69,3.69,0,0,1,12.31,21.54ZM40.62,52.31A14.77,14.77,0,1,1,55.38,37.54,14.79,14.79,0,0,1,40.62,52.31Z"/>
</svg>