<?xml version="1.0" encoding="utf-8"?>
<!-- Generator: Adobe Illustrator 21.0.0, SVG Export Plug-In . SVG Version: 6.00 Build 0)  -->
<svg version="1.1" id="图层_1" xmlns="http://www.w3.org/2000/svg" xmlns:xlink="http://www.w3.org/1999/xlink" x="0px" y="0px"
	 viewBox="0 0 64 64" width="64px" height="64px" style="enable-background:new 0 0 64 64;" xml:space="preserve">
<style type="text/css">
</style>
<title>摄像头</title>
<g>
	<circle  class="canChangeFill" style="fill:#586E7C;" cx="32" cy="25.3" r="6.7"/>
	<path  class="canChangeFill" style="fill:#586E7C;" d="M51.2,61.2L35.5,57l0.1-6.7c12.3-1.7,21.8-12.3,21.8-25C57.3,11.3,46,0,32,0S6.7,11.3,6.7,25.3
		c0,12.5,9.1,22.9,21.1,24.9l-0.1,6.8l-15.6,4.2c-1.6,0.4-1.3,2.8,0.4,2.8h38.3C52.4,64,52.8,61.7,51.2,61.2z M17.3,25.3
		c0-8.1,6.6-14.7,14.7-14.7s14.7,6.6,14.7,14.7C46.7,33.4,40.1,40,32,40S17.3,33.4,17.3,25.3z"/>
</g>
</svg>
