<svg id="图层_1" data-name="图层 1" 
    xmlns="http://www.w3.org/2000/svg" viewBox="0 0 64 64"  width="64px" height="64px">
    <defs>
        <style></style>
    </defs>
    <title>收藏</title>
    <path  class="canChangeFill" style="fill:#586e7c;" d="M63.17,27.41,50.58,39.65a2.73,2.73,0,0,0-.79,2.42l2.95,17.32a2.73,2.73,0,0,1-4,2.87L33.23,54.06a2.73,2.73,0,0,0-2.54,0L15.14,62.22a2.73,2.73,0,0,1-4-2.88l3-17.31a2.73,2.73,0,0,0-.78-2.42L.82,27.33a2.73,2.73,0,0,1,1.52-4.65l17.39-2.5a2.73,2.73,0,0,0,2.06-1.49L29.58,2.94a2.73,2.73,0,0,1,4.9,0l7.75,15.76a2.73,2.73,0,0,0,2.05,1.5l17.38,2.55A2.73,2.73,0,0,1,63.17,27.41Z"/>
</svg>