<svg id="图层_1" data-name="图层 1" xmlns="http://www.w3.org/2000/svg" viewBox="0 0 64 64" width="64px" height="64px">
  <defs>
    <style></style>
  </defs>
  <title>数据</title>
  <path class="canChangeFill" style="fill:#586e7c;"  d="M56.62,6.15H7.38A7.41,7.41,0,0,0,0,13.54V50.46a7.41,7.41,0,0,0,7.38,7.38H56.62A7.41,7.41,0,0,0,64,50.46V13.54A7.41,7.41,0,0,0,56.62,6.15ZM54.15,34.46H49.23a2.47,2.47,0,0,1-2.42-2L42.92,25,35.71,37.46a2.47,2.47,0,0,1-3.36.9l-.05,0a2.43,2.43,0,0,1-1.23-1l-4.6-8-5.14,8.9a2.46,2.46,0,0,1-2.63,1.17l-.23,0H9.85a2.46,2.46,0,1,1,0-4.92H17.8L24,23.68a2.47,2.47,0,0,1,2.44-1.21,2.47,2.47,0,0,1,2.44,1.21l4.54,7.87,7.15-12.38a2.39,2.39,0,0,1,.14-.2,2.44,2.44,0,0,1,1.14-1.29,2.47,2.47,0,0,1,3.32,1l5.66,10.83h3.29a2.46,2.46,0,1,1,0,4.92Z"/>
</svg>