<svg id="图层_1" data-name="图层 1" 
    xmlns="http://www.w3.org/2000/svg" viewBox="0 0 64 64" width="64px" height="64px">
    <defs>
        <style></style>
    </defs>
    <title>删除</title>
    <path class="canChangeFill" style="fill:#586e7c;" d="M46.4,6.67H40.67V5.33A5.35,5.35,0,0,0,35.33,0H28.67a5.35,5.35,0,0,0-5.33,5.33V6.67H17.6c-5.28,0-9.6,2.16-9.6,4.8v3.2H56v-3.2C56,8.83,51.68,6.67,46.4,6.67Z"/>
    <path class="canChangeFill" style="fill:#586e7c;" d="M12,55.76A8.14,8.14,0,0,0,20,64H44a8.14,8.14,0,0,0,8-8.24V17.33H12ZM40.78,29.33a2.67,2.67,0,0,1,5.33,0V50.67a2.67,2.67,0,0,1-5.33,0Zm-11.67,0a2.67,2.67,0,0,1,5.33,0V50.67a2.67,2.67,0,0,1-5.33,0Zm-11,0a2.67,2.67,0,0,1,5.33,0V50.67a2.67,2.67,0,0,1-5.33,0Z"/>
</svg>