<svg id="图层_1" data-name="图层 1" 
    xmlns="http://www.w3.org/2000/svg" viewBox="0 0 64 64" width="64px" height="64px">
    <defs>
        <style></style>
    </defs>
    <title>文档</title>
    <path class="canChangeFill" style="fill:#586e7c;" d="M35,0H15.91C11.83,0,8.49,3.6,8.49,8V56c0,4.4,3.34,8,7.42,8H48.09c4.08,0,7.42-3.6,7.42-8V21.22ZM45.06,49.63H18.94a2.61,2.61,0,1,1,0-5.22H45.06a2.61,2.61,0,1,1,0,5.22ZM16.33,34a2.61,2.61,0,0,1,2.61-2.61H37.22a2.61,2.61,0,0,1,0,5.22H18.94A2.61,2.61,0,0,1,16.33,34ZM45.06,23.51H18.94a2.61,2.61,0,1,1,0-5.22H45.06a2.61,2.61,0,1,1,0,5.22Z"/>
</svg>