<svg id="图层_1" data-name="图层 1" 
    xmlns="http://www.w3.org/2000/svg" viewBox="0 0 64 64" width="64px" height="64px">
    <defs>
        <style></style>
    </defs>
    <title>下载</title>
    <path class="canChangeFill" style="fill:#586e7c;" d="M32,0A32,32,0,1,0,64,32,32,32,0,0,0,32,0ZM21.78,33h0a3.06,3.06,0,0,1,4.32,0l2.79,2.78V12a2.67,2.67,0,1,1,5.33,0V35.76L37,33a3.06,3.06,0,0,1,4.35,4.31l-7.21,7.23a3.06,3.06,0,0,1-2.57.86A3,3,0,0,1,29,44.54l-7.23-7.21A3.08,3.08,0,0,1,21.78,33ZM43.56,52h-24a1.33,1.33,0,1,1,0-2.67h24a1.33,1.33,0,0,1,0,2.67Z"/>
</svg>