<svg id="图层_1" data-name="图层 1" xmlns="http://www.w3.org/2000/svg" viewBox="0 0 492 512" width="492px" height="512px"><defs><style>.cls-1{fill:#33adff;}</style></defs><title>7</title><g id="_编组_" data-name="&lt;编组&gt;"><path id="_复合路径_" data-name="&lt;复合路径&gt;" class="cls-1" d="M93.93,166.72l3.27,2.1C117.36,181.75,136.41,194,143.74,218l5.62,18.4,12.19-14.89c13.51-16.51,28.54-24.54,45.94-24.54,10.51,0,21.9,2.79,34.82,8.54l11.07,4.93,3.07-11.72c9.13-34.85,10.79-63.94,5.21-91.56C251,54.55,220.74,20.65,171.71,6.34a191,191,0,0,0-21.29-4.52c-3-.51-6.07-1-9-1.63l-1-.19h-6l-.78.12c-1.3.2-2.59.43-3.89.65a73.53,73.53,0,0,1-7.54,1.06c-23.43,1.66-45.66,14.53-61,35.31s-21,45.71-15.67,68.49C52.82,136.88,75.23,154.7,93.93,166.72ZM77.8,49.35c11.74-15.92,28.46-25.76,45.83-27A90.17,90.17,0,0,0,133.3,21l2.72-.47h2.37c2.87.55,5.73,1,8.51,1.52a172.8,172.8,0,0,1,19,4c41.69,12.16,66.4,40,75.54,85.11,4.33,21.46,3.65,44.24-2.21,71a96.44,96.44,0,0,0-31.78-5.79c-18.69,0-35.63,6.76-50.51,20.12-11.46-21.12-30.32-33.21-48.66-45l-3.24-2.08C81.83,134.48,70,120,65.61,101,61.65,84,66.09,65.23,77.8,49.35Z" transform="translate(0)"/><path id="_复合路径_2" data-name="&lt;复合路径&gt;" class="cls-1" d="M490.06,270.83a87.91,87.91,0,0,0-27.73-49.29,78.21,78.21,0,0,0-51.66-19.73c-2.54,0-5.12.13-7.67.37-13,1.26-27.48,5.52-43,12.66-3.8,1.75-7.58,3.59-11.24,5.37-16.21,7.89-31.52,15.35-48.54,15.35A59.2,59.2,0,0,1,286.66,234L268,229.61l6.7,18c12.05,32.33,3.54,56-28.48,79.11l-11.58,8.36,11.6,8.33c5.48,3.93,10.78,8,15.91,11.88,11.34,8.64,22,16.81,34.08,23.51,25.7,14.3,50.69,21.56,74.27,21.56,25,0,48.76-8.11,70.54-24.11C481.9,346.18,497.94,311.71,490.06,270.83Zm-26.91,52.12c-6.89,12.79-18.12,24.8-34.31,36.7C410.66,373,391,379.76,370.49,379.76c-20,0-41.66-6.38-64.26-19-10.75-6-20.88-13.71-31.61-21.89l-5.46-4.15c13-11.25,21.75-23.11,26.67-36,5.08-13.31,6-27.38,2.77-42.66l1.68,0c21.77,0,40-8.86,57.55-17.43,3.56-1.73,7.24-3.52,10.84-5.19,13.37-6.17,25.59-9.82,36.32-10.86,1.89-.18,3.8-.28,5.67-.28a56.86,56.86,0,0,1,38,14.59,67.26,67.26,0,0,1,21.13,37.75C473.26,292.46,471.07,308.23,463.15,322.94Z" transform="translate(0)"/><path id="_复合路径_3" data-name="&lt;复合路径&gt;" class="cls-1" d="M156.24,312.08c-8.19-10.19-13.22-24.45-15.38-43.61l-1.57-14-12.84,5.72c-6,2.69-12.07,5.21-17.9,7.65C95.8,273.22,83.75,278.25,72,284.73c-35.33,19.54-59.61,49.51-68.39,84.39S2,441.46,23.65,475c14.26,22.12,44,37,74.08,37,31.43,0,57.43-15.7,71.33-43.09,8.08-15.93,10.73-34.82,12-47.66.41-4.09.74-8.21,1.05-12.19,1.72-21.85,3.35-42.48,19.17-59.64l13.07-14.18-19.06-3C177.78,329.59,165,323,156.24,312.08Zm5.36,95.37c-.31,3.87-.62,7.88-1,11.74-1.13,11.19-3.39,27.56-9.91,40.42-14.05,27.68-39.22,31.82-53,31.82-23,0-46.31-11.33-56.77-27.56-18.52-28.71-24.68-60.58-17.34-89.73S51.72,319.48,82,302.73c10.74-5.93,22.28-10.76,34.5-15.87l6-2.53c6.91,34,24.57,55.34,53.58,64.59C164.72,368,163.08,388.73,161.61,407.45Z" transform="translate(0)"/><path id="_路径_" data-name="&lt;路径&gt;" class="cls-1" d="M210.47,220.76A46.42,46.42,0,1,0,257,267.11,46,46,0,0,0,210.47,220.76Z" transform="translate(0)"/></g></svg>