<svg id="图层_1" data-name="图层 1" xmlns="http://www.w3.org/2000/svg" viewBox="0 0 240 512" width="240px" height="512px"><defs><style>.cls-1{fill:#ea4e4e;}</style></defs><title>19</title><path class="cls-1" d="M220.5,144.45V365.86h-202V144.45h202m12.67-19H5.85a6.35,6.35,0,0,0-6.34,6.33V378.53a6.35,6.35,0,0,0,6.34,6.33H233.18a6.35,6.35,0,0,0,6.34-6.33V131.79a6.35,6.35,0,0,0-6.34-6.33Z" transform="translate(0.49 0.26)"/><path class="cls-1" d="M71.76,203.37a13,13,0,1,1-13,13,13.05,13.05,0,0,1,13-13m0-12.67a25.7,25.7,0,1,0,25.71,25.7,25.71,25.71,0,0,0-25.71-25.7Z" transform="translate(0.49 0.26)"/><path class="cls-1" d="M168.9,203.37a13,13,0,1,1-13,13,13.05,13.05,0,0,1,13-13m0-12.67a25.7,25.7,0,1,0,25.71,25.7,25.71,25.71,0,0,0-25.71-25.7Z" transform="translate(0.49 0.26)"/><path class="cls-1" d="M194.79,384.84V407.1H44.24V384.84H194.79m12.67-19H31.57a6.33,6.33,0,0,0-6.34,6.33v47.59a6.35,6.35,0,0,0,6.34,6.33h175.9a6.35,6.35,0,0,0,6.34-6.33V372.17a6.33,6.33,0,0,0-6.34-6.33Z" transform="translate(0.49 0.26)"/><path class="cls-1" d="M171.93,426.08v21H67.1v-21H171.93m12.67-19H54.42a6.33,6.33,0,0,0-6.34,6.33v46.32a6.35,6.35,0,0,0,6.34,6.33H184.61a6.35,6.35,0,0,0,6.34-6.33V413.41a6.33,6.33,0,0,0-6.34-6.33Z" transform="translate(0.49 0.26)"/><path class="cls-1" d="M143.36,466v26.71H95.67V466h47.69M156,447H83a6.33,6.33,0,0,0-6.34,6.33v52A6.35,6.35,0,0,0,83,511.74h73a6.35,6.35,0,0,0,6.34-6.33v-52A6.33,6.33,0,0,0,156,447Z" transform="translate(0.49 0.26)"/><path class="cls-1" d="M194.79,103.75v21.63H44.24V103.75H194.79m12.67-19H31.57a6.35,6.35,0,0,0-6.34,6.33v47a6.34,6.34,0,0,0,6.34,6.33h175.9A6.34,6.34,0,0,0,213.8,138v-47a6.35,6.35,0,0,0-6.34-6.33Z" transform="translate(0.49 0.26)"/><path class="cls-1" d="M171.93,64.42V84.78H67.1V64.42H171.93m12.67-19H54.42a6.35,6.35,0,0,0-6.34,6.33V97.44a6.33,6.33,0,0,0,6.34,6.33H184.61a6.33,6.33,0,0,0,6.34-6.33V51.76a6.35,6.35,0,0,0-6.34-6.33Z" transform="translate(0.49 0.26)"/><path class="cls-1" d="M143.36,18.74V45.45H95.67V18.74h47.69M156-.26H83a6.35,6.35,0,0,0-6.34,6.33v52A6.33,6.33,0,0,0,83,64.45h73a6.33,6.33,0,0,0,6.34-6.33v-52A6.35,6.35,0,0,0,156-.26Z" transform="translate(0.49 0.26)"/></svg>