<svg id="图层_1" data-name="图层 1" xmlns="http://www.w3.org/2000/svg" viewBox="0 0 454 512" width="454px" height="512px"><defs><style>.cls-1{fill:#33adff;}</style></defs><title>28</title><g id="_编组_" data-name="&lt;编组&gt;"><path class="cls-1" d="M224.17,334c-50.64,0-94.11-37.39-99.13-87.21h0A94.18,94.18,0,0,1,133.77,197l-1.41-.19,8.8-12.79c17.46-25.37,34.64-51.54,42-71.06,15.19-40.15,13.36-68.15,9.14-84.6v0c-.41-1.42-.82-2.84-1.23-4.25l-7-24,21.27,13.24c1.2.74,29.64,18.63,59.2,52.43A279.31,279.31,0,0,1,306.69,129a230.77,230.77,0,0,1,22.51,86.81c1.73,31-7.43,60-25.78,81.63a103.54,103.54,0,0,1-69.57,36.11Q229,334,224.17,334ZM144.11,244.9c4.29,42.55,43.73,73.77,87.95,69.63,41.25-3.91,81.3-38.7,78-97.63-3.45-61.89-34.5-109.56-59.94-138.64a301.4,301.4,0,0,0-36-34.83c1.42,18.93-.92,44.4-13,76.25-8.22,21.72-26,48.65-42.41,72.58v.14L157,194.83a75.37,75.37,0,0,0-12.93,50.07Z" transform="translate(0)"/><path id="_路径_" data-name="&lt;路径&gt;" class="cls-1" d="M227,427.12c-28.32,0-54.63-20.27-74.89-57.4-20.23,37-46.52,57.23-74.87,57.23-29,0-55.78-21.08-76.17-59.63a9.16,9.16,0,0,1,4.2-12.55h0a9.18,9.18,0,0,1,12,4c8.22,15.55,17.44,27.74,27.48,36.31,10.52,9,21.43,13.53,32.45,13.53s21.93-4.55,32.44-13.53c11.67-10,22.23-24.82,31.4-44.15,2.27-4.78,6.39-7.64,11-7.64s8.77,2.86,11,7.64l.13.29c17.66,37.12,40.28,57.55,63.72,57.55s46.08-20.47,63.76-57.63l.1-.22c2.25-4.77,6.38-7.63,11-7.63h0c4.65,0,8.77,2.85,11,7.64,9.16,19.33,19.73,34.18,31.4,44.15,10.52,9,21.43,13.53,32.44,13.53s21.93-4.55,32.44-13.53c10-8.57,19.26-20.76,27.47-36.31a9.18,9.18,0,0,1,12-4h0a9.16,9.16,0,0,1,4.21,12.55C432.56,405.87,405.74,427,376.78,427c-28.36,0-54.66-20.21-74.88-57.24C281.63,406.85,255.32,427.12,227,427.12Z" transform="translate(0)"/><path id="_路径_2" data-name="&lt;路径&gt;" class="cls-1" d="M227,512c-28.32,0-54.63-20.27-74.89-57.4-20.22,37-46.52,57.23-74.87,57.23-29,0-55.78-21.08-76.17-59.63a9.16,9.16,0,0,1,4.2-12.55h0a9.18,9.18,0,0,1,12,4C25.52,459.2,34.74,471.39,44.79,480c10.52,9,21.43,13.53,32.45,13.53s21.93-4.55,32.44-13.53c11.67-10,22.23-24.82,31.4-44.15,2.27-4.78,6.4-7.64,11-7.64h0c4.64,0,8.76,2.84,11,7.61l.16.35c17.66,37.1,40.28,57.52,63.7,57.52s46-20.43,63.71-57.53l.16-.34c2.27-4.77,6.38-7.61,11-7.61h0c4.65,0,8.77,2.85,11,7.64,9.17,19.33,19.73,34.18,31.4,44.15,10.52,9,21.43,13.53,32.44,13.53s21.93-4.55,32.44-13.53c10-8.57,19.26-20.76,27.47-36.31a9.18,9.18,0,0,1,12-4h0a9.16,9.16,0,0,1,4.21,12.55c-20.39,38.54-47.2,59.63-76.16,59.63-28.36,0-54.66-20.21-74.88-57.24C281.63,491.73,255.32,512,227,512Z" transform="translate(0)"/></g></svg>