<svg id="图层_1" data-name="图层 1" xmlns="http://www.w3.org/2000/svg" viewBox="0 0 452 512" width="452px" height="512px"><defs><style>.cls-1{fill:#72e800;}</style></defs><title>33</title><g id="_编组_" data-name="&lt;编组&gt;"><path id="_复合路径_" data-name="&lt;复合路径&gt;" class="cls-1" d="M225.18,39.58H116.51c-17.85,0-32.36,14-32.36,31.15V184.5c0,17.13,14.51,31.28,32.36,31.28H225.18c17.86,0,32.37-14.15,32.37-31.28V70.74C257.56,53.61,243,39.58,225.18,39.58ZM238.43,184.5c0,6.57-5.93,12.12-13.25,12.12H116.51c-7.3,0-13.23-5.56-13.23-12.12V70.74c0-6.57,5.93-12,13.23-12H225.18c7.31,0,13.25,5.44,13.25,12Z"/><path id="_复合路径_2" data-name="&lt;复合路径&gt;" class="cls-1" d="M443.72,97.66C426.6,83.19,397.64,59.1,388.78,50.75c-5-4.69-16.41-7.44-24,.1-7.28,7.19-4.07,16.63,1.3,21.46,7.66,6.87,24.89,20.41,34.72,30.57-8.18,9.5-21.71,19.46-30.14,28.24a3.79,3.79,0,0,0-1,3c0,5,.25,8.62.21,10.73,0,1.84,2.26,2.64,3.28,2.64h56.28a3.69,3.69,0,0,1,3.51,2.46v261c0,35-22,42.3-40.3,42.3-12.39,0-41.3-4.19-41.3-42.95V206l0-.43A18.25,18.25,0,0,0,332.59,189h-7.47c-5.39,0-10.82,0-15.92,0V32.35c0-17.8-15.13-32.35-34-32.35H67.63C48.71,0,33.15,14.68,33.15,32.48V465.4H13.84C6,465.4,0,471.22,0,478.55V498.1A14,14,0,0,0,13.84,512H328.38a14.11,14.11,0,0,0,14-13.9V478.55c0-7.32-6.18-13.15-14-13.15h-19V208.22c4.64,0,10.44,0,15.84,0l6.91,0V410.29c0,31.85,15.47,47,28.45,54.17s26.64,7.93,31.89,7.93c12.17,0,23.07-2.59,32.2-7.7C437.1,457.74,452,442.78,452,410.94V112.07S452.42,105,443.72,97.66ZM309.39,484.55h13.83v8.3H19.13v-8.3H52.28V32.48c0-7.21,7-13.33,15.35-13.33H275.16c8.33,0,15,6,15,13.2l-.1,432.94v19.26Z"/></g></svg>