<svg id="图层_1" data-name="图层 1" xmlns="http://www.w3.org/2000/svg" viewBox="0 0 422 512" width="422px" height="512px"><defs><style>.cls-1{fill:#ea4e4e;}</style></defs><title>32</title><g id="_编组_" data-name="&lt;编组&gt;"><path id="_路径_" data-name="&lt;路径&gt;" class="cls-1" d="M118.92,353.7V68.81a13.18,13.18,0,1,0-26.36,0V354.29a51.3,51.3,0,1,0,26.36-.58Z" transform="translate(0)"/><path id="_路径_2" data-name="&lt;路径&gt;" class="cls-1" d="M310.11,169.25s43,37.41,22.61,79.22c0,0-88.15-50.58-85.88-165A138.65,138.65,0,0,0,214.36,114V304.89a149.73,149.73,0,0,1,40.36,102.75c0,.37,0,.75,0,1.12,12.31-22.89,20.45-54.72,17-98.65,0,0,74.62,52.84,6.78,151.87,0,0,107.95,27.57,137.9-101.24C443.48,244.09,366.66,175.85,310.11,169.25Z" transform="translate(0)"/><path id="_复合路径_" data-name="&lt;复合路径&gt;" class="cls-1" d="M104.2,19.39A44.6,44.6,0,0,1,148.72,64V334.67l7.49,5.82A84.92,84.92,0,1,1,19.36,407.64,85,85,0,0,1,52.2,340.48l7.49-5.82V64A44.6,44.6,0,0,1,104.2,19.39M104.2,0A64,64,0,0,0,40.32,64v261.2A104.39,104.39,0,0,0,0,407.64C0,465.18,46.75,512,104.2,512s104.22-46.82,104.22-104.36a104.38,104.38,0,0,0-40.35-82.47V64A64,64,0,0,0,104.2,0Z" transform="translate(0)"/></g></svg>