<svg id="图层_1" data-name="图层 1" xmlns="http://www.w3.org/2000/svg" viewBox="0 0 350 512" width="350px" height="512px"><defs><style>.cls-1{fill:#33adff;}</style></defs><title>22</title><path id="_复合路径_" data-name="&lt;复合路径&gt;" class="cls-1" d="M175,41.35l120.3,197.46.6,1,.7.92a155.64,155.64,0,0,1-61.93,237.62,152.55,152.55,0,0,1-119.33,0,152.9,152.9,0,0,1-48.79-33.21A156.36,156.36,0,0,1,53.4,240.72l.7-.92.6-1L175,41.35M175,0,36.32,227.63A175.72,175.72,0,0,0,0,335.36C0,432.91,78.34,512,175,512s175-79.09,175-176.64a175.8,175.8,0,0,0-36.33-107.73L175,0Z"/><path id="_复合路径_2" data-name="&lt;复合路径&gt;" class="cls-1" d="M150.83,328.49q9.58-10.81,9.58-28.17t-8.69-27.22q-8.7-9.77-24.19-9.77-16.17,0-25.7,10.62t-9.54,28.64q0,16.6,9,26.65t24.05,10.05Q141.25,339.31,150.83,328.49Zm-33.5-13.6c-.87-1-3.52-3.92-3.52-12.28,0-9.78,3-13.16,4-14.28,1.54-1.72,3.9-3.47,9.68-3.47s7.44,1.79,8.11,2.54c2.69,3,3.26,8.71,3.26,12.93,0,9.2-3.14,12.74-4.17,13.9-1.64,1.85-3.91,3.57-9.36,3.57S118.25,315.92,117.33,314.89Z"/><path id="_复合路径_3" data-name="&lt;复合路径&gt;" class="cls-1" d="M214.62,338.46q-16.07,0-25.6,10.76T179.48,378q0,16.32,9,26.51t24.1,10.19q15.6,0,25.27-10.77t9.68-28q0-17.83-8.74-27.65T214.62,338.46Zm7.21,51.1c-2,2.18-4.29,3.63-9.27,3.63s-6.71-1.49-7.94-2.89c-1.55-1.76-3.61-5-3.61-12.3,0-9.86,3.11-13.37,4.13-14.52,1.62-1.83,3.89-3.52,9.5-3.52,5.76,0,7.33,1.76,8.07,2.6,2.72,3.06,3.3,8.95,3.3,13.35C226,384,223.61,387.57,221.83,389.56Z"/><polygon id="_路径_" data-name="&lt;路径&gt;" class="cls-1" points="201.83 265.36 108.34 413.06 139.81 413.06 233.3 265.36 201.83 265.36"/></svg>