<svg id="图层_1" data-name="图层 1" xmlns="http://www.w3.org/2000/svg" viewBox="0 0 512 512" width="512px" height="512px"><defs><style>.cls-1{fill:#33adff;}</style></defs><title>11</title><path class="cls-1" d="M256,512A256.06,256.06,0,0,1,156.35,20.12a256.06,256.06,0,0,1,199.3,471.76A254.4,254.4,0,0,1,256,512Zm0-490.49C126.7,21.51,21.51,126.7,21.51,256S126.7,490.49,256,490.49,490.49,385.3,490.49,256,385.3,21.51,256,21.51Z"/><circle class="cls-1" cx="254.6" cy="258.53" r="59.25"/><path class="cls-1" d="M304.24,257l-2.64-10.41a48.29,48.29,0,0,0-35.69-35.21l-10.44-2.49L293.7,47.55,304.13,50A211.83,211.83,0,0,1,461.68,206.42l2.49,10.35Zm-23.07-63.24A69.65,69.65,0,0,1,319,231.08l119-29.91A191.58,191.58,0,0,0,309.62,73.66Z"/><path class="cls-1" d="M295.46,464.13l-39.21-156,10.38-2.65a48.89,48.89,0,0,0,35.21-36L304.28,259l159.6,37.82-2.64,10.56A211.85,211.85,0,0,1,305.82,461.63ZM282.14,322.92l28.91,115A189.12,189.12,0,0,0,437.44,312.64L319.55,284.71A69.57,69.57,0,0,1,282.14,322.92Z"/><path class="cls-1" d="M217,464.23l-10.49-2.51A211.86,211.86,0,0,1,51.28,309.44l-2.73-10.5,156.37-39.31,2.58,10.5a48.84,48.84,0,0,0,36,35.61L254,308.2ZM75.13,314.44A189.38,189.38,0,0,0,201.15,438l27.15-114.57A70.2,70.2,0,0,1,190,285.56Z"/><path class="cls-1" d="M205,257.42,47.25,220l2.32-10.36A211.84,211.84,0,0,1,202.7,51.25l10.49-2.72L253.5,208.86,243,211.43A48.9,48.9,0,0,0,207.48,247ZM73.17,204.08l116.72,27.66a69.59,69.59,0,0,1,37.67-37.82L197.69,75.1C137.81,94.47,90.41,143.57,73.17,204.08Z"/></svg>