<svg id="图层_1" data-name="图层 1" 
    xmlns="http://www.w3.org/2000/svg" viewBox="0 0 64 64" width="64px" height="64px">
    <defs>
        <style></style>
    </defs>
    <title>仪表</title>
    <path class="canChangeFill" style="fill:#586e7c;" d="M32,0A32,32,0,1,0,64,32,32,32,0,0,0,32,0ZM50.29,21.47l5.08-2.93A1.23,1.23,0,0,1,57,19l.11.18a1.23,1.23,0,0,1-.45,1.68l-5.08,2.93a1.23,1.23,0,0,1-1.68-.45l-.11-.18A1.23,1.23,0,0,1,50.29,21.47ZM42.87,13.7l2.93-5.08a1.23,1.23,0,0,1,1.68-.45l.18.11A1.23,1.23,0,0,1,48.12,10L45.18,15a1.23,1.23,0,0,1-1.68.45l-.18-.11A1.23,1.23,0,0,1,42.87,13.7Zm-13.2-10A1.23,1.23,0,0,1,30.9,2.5h3a1.23,1.23,0,0,1,1.23,1.23V8.63a1.23,1.23,0,0,1-1.23,1.23h-3a1.23,1.23,0,0,1-1.23-1.23Zm.36,25,1-12a1.38,1.38,0,0,1,2.75,0l1,12a4,4,0,1,1-4.71,0ZM16.66,8.28l.18-.11a1.23,1.23,0,0,1,1.68.45l2.93,5.08A1.23,1.23,0,0,1,21,15.38l-.18.11A1.23,1.23,0,0,1,19.14,15L16.21,10A1.23,1.23,0,0,1,16.66,8.28Zm-10.89,11,.1-.19a1.23,1.23,0,0,1,1.66-.51l5.19,2.74A1.23,1.23,0,0,1,13.22,23l-.1.19a1.23,1.23,0,0,1-1.66.51L6.28,21A1.23,1.23,0,0,1,5.77,19.31ZM5.23,35.83A1.23,1.23,0,0,1,4,34.6V31.72A1.23,1.23,0,0,1,5.23,30.5h5.87a1.23,1.23,0,0,1,1.23,1.23V34.6a1.23,1.23,0,0,1-1.23,1.23ZM32,57.95A25.09,25.09,0,0,1,12,47.87l0,0H52A25,25,0,0,1,32,57.95ZM59.09,35.83H53.23A1.23,1.23,0,0,1,52,34.6V31.72a1.23,1.23,0,0,1,1.23-1.23h5.87a1.23,1.23,0,0,1,1.23,1.23V34.6A1.23,1.23,0,0,1,59.09,35.83Z"/>
</svg>