<svg id="图层_1" data-name="图层 1" xmlns="http://www.w3.org/2000/svg" viewBox="0 0 512 470" width="512px" height="470px"><defs><style>.cls-1{fill:#33adff;}</style></defs><title>15</title><g id="_编组_" data-name="&lt;编组&gt;"><path id="_复合路径_" data-name="&lt;复合路径&gt;" class="cls-1" d="M338,312.54H14.85a14.8,14.8,0,1,0,0,29.6H338a49.13,49.13,0,1,1-45,69.14,14.84,14.84,0,0,0-27.12,12.07A79.14,79.14,0,0,0,338,470c43.56,0,79-35.32,79-78.73s-35.44-78.73-79-78.73Zm0,0"/><path id="_复合路径_2" data-name="&lt;复合路径&gt;" class="cls-1" d="M418.75,63.93a93,93,0,0,0-90.49,70.42,14.85,14.85,0,0,0,28.82,7.15,63.53,63.53,0,1,1,61.67,78.7H14.85a14.8,14.8,0,1,0,0,29.6h403.9c51.42,0,93.25-41.69,93.25-92.93s-41.83-92.93-93.25-92.93Zm0,0"/><path id="_复合路径_3" data-name="&lt;复合路径&gt;" class="cls-1" d="M14.85,157.45H209.67c.4,0,.79,0,1.19-.05s.79.05,1.19.05c43.56,0,79-35.32,79-78.73S255.61,0,212,0a79.14,79.14,0,0,0-72.16,46.65A14.84,14.84,0,0,0,167,58.72a49.26,49.26,0,1,1,45,69.14c-.4,0-.8,0-1.19.05s-.79-.05-1.19-.05H14.85a14.8,14.8,0,1,0,0,29.6Zm0,0"/></g></svg>