<svg id="图层_1" data-name="图层 1" xmlns="http://www.w3.org/2000/svg" viewBox="0 0 512 333.76" width="512px" height="337.76px"><defs><style>.cls-1{fill:#72e800;}</style></defs><title>23</title><path class="cls-1" d="M459.61,333.88a52.39,52.39,0,0,1-40.52-85.59l40.48-53.9L499.9,248c.9,1.08,1.76,2.21,2.57,3.36h0l.17.24.08.11.55.8a52.4,52.4,0,0,1-43.66,81.35Zm0-103-23.43,31.18a30.44,30.44,0,1,0,49,2.87l-.36-.53a30.81,30.81,0,0,0-1.92-2.53l-.37-.47Z" transform="translate(0 -0.12)"/><path class="cls-1" d="M117.74,194.75H24.41V333H0V.12H120.61q83.26,5.12,91.9,97.32Q211.07,193.07,117.74,194.75ZM112,25.73H24.41V169.14H112q71.78-1.68,73.23-73.41Q182.34,27.46,112,25.73Z" transform="translate(0 -0.12)"/><polygon class="cls-1" points="447.02 189.13 471.44 189.13 471.44 0 447.02 0 447.02 148.54 279.03 148.54 279.03 0 253.18 0 253.18 332.93 279.03 332.93 279.03 174.15 447.02 174.15 447.02 189.13"/></svg>