<svg id="图层_1" data-name="图层 1" xmlns="http://www.w3.org/2000/svg" viewBox="0 0 512 442" width="512px" height="442px"><defs><style>.cls-1{fill:#eaae07;}</style></defs><title>3</title><path class="cls-1" d="M425,442a17,17,0,0,1-12-29.06A222,222,0,0,0,99.05,99.05a222,222,0,0,0,0,313.89A17,17,0,1,1,75,437a256.14,256.14,0,1,1,362,0A17,17,0,0,1,425,442Z"/><path class="cls-1" d="M304.64,244.63a48.69,48.69,0,0,1-3,16.94,42.06,42.06,0,0,1-10,15.2,47.45,47.45,0,0,1-17.8,10.86q-10.87,3.91-25.62,3.91H230.81v51.24H211.7V201.21h40a90.49,90.49,0,0,1,20,2.17,47.29,47.29,0,0,1,16.94,7.38,37.9,37.9,0,0,1,11.73,13.46Q304.63,232.49,304.64,244.63Zm-20,.87q0-13.88-9.12-21.28t-24.75-7.38h-20V275h18.24q17.36,0,26.49-7.38T284.66,245.5Z"/></svg>