<svg id="图层_1" data-name="图层 1" 
    xmlns="http://www.w3.org/2000/svg" viewBox="0 0 64 64" width="64px" height="64px">
    <defs>
        <style></style>
    </defs>
    <title>刷新</title>
    <path class="canChangeFill"  style="fill:#586e7c;" d="M32,0A32,32,0,1,0,64,32,32,32,0,0,0,32,0ZM53.32,34.23,38.63,28.95a1.38,1.38,0,0,1-.36-2.41l5.63-4.19a15.41,15.41,0,0,0-2.65-2.58,15.32,15.32,0,1,0-2.31,25.9,2.67,2.67,0,1,1,2.41,4.76,20.64,20.64,0,0,1-6.52,2,21.08,21.08,0,0,1-2.88.2A20.67,20.67,0,1,1,44.47,15.52a20.76,20.76,0,0,1,3.7,3.64l3.92-2.92a1.38,1.38,0,0,1,2.2,1l.87,15.58A1.38,1.38,0,0,1,53.32,34.23Z"/>
</svg>