<svg id="图层_1" data-name="图层 1" 
    xmlns="http://www.w3.org/2000/svg" viewBox="0 0 64 64" width="64px" height="64px">
    <defs>
        <style></style>
    </defs>
    <title>维修</title>
    <path  class="canChangeFill" style="fill:#586e7c;" d="M44.47,38.72a4,4,0,0,0-5.58,0l-.38.38-3.45-3.45L41,28.4A15.15,15.15,0,0,0,63,11.34l-7.44,7.35-9.38-1.4-1.27-9.4L52.36.54a15.15,15.15,0,0,0-17.6,21.35L27.92,28.5,15.08,15.66l.2-.2V10.85L6,5.3,1.42,9.92l-.92.92L7,20.09h3.7l.2-.2L23.62,32.65l-11.38,11-9.41,10a4.22,4.22,0,0,0,.18,6l3.07,2.9a4.22,4.22,0,0,0,6-.18l9.41-10,9.81-12,3,3-.38.38a4,4,0,0,0,0,5.58L47.49,62.85a4,4,0,0,0,5.58,0l5-5a4,4,0,0,0,0-5.58ZM10.81,58.25a2.64,2.64,0,1,1-.11-3.73A2.64,2.64,0,0,1,10.81,58.25Z"/>
</svg>