<svg id="图层_1" data-name="图层 1" 
    xmlns="http://www.w3.org/2000/svg" viewBox="0 0 51.68 64" width="64px" height="64px">
    <defs>
        <style></style>
    </defs>
    <title>安全锁</title>
    <path class="canChangeFill" style="fill:#586e7c;" d="M50.46,23.38H48V11.08A11.09,11.09,0,0,0,36.92,0H27.08A11.09,11.09,0,0,0,16,11.08v12.3H13.54a7.41,7.41,0,0,0-7.38,7.38V56.62A7.41,7.41,0,0,0,13.54,64H50.46a7.41,7.41,0,0,0,7.38-7.38V30.77A7.41,7.41,0,0,0,50.46,23.38ZM33,38.83A1,1,0,0,1,33,39v4a1,1,0,0,1-2,0V39a1,1,0,0,1,0-.2,3,3,0,1,1,2,0Zm7.61-15.45H23.38V11.08a3.7,3.7,0,0,1,3.69-3.69h9.85a3.7,3.7,0,0,1,3.69,3.69Z" transform="translate(-6.16)"/>
</svg>