<svg id="图层_1" data-name="图层 1" xmlns="http://www.w3.org/2000/svg" viewBox="0 0 442 512" width="442px" height="512px"><defs><style>.cls-1{fill:#ea4e4e;}</style></defs><title>26</title><path id="_复合路径_" data-name="&lt;复合路径&gt;" class="cls-1" d="M219.28,25.35c42.85,32.28,107.63,39.48,156.84,39.48h.31c17.86,0,33.56-.92,45.22-1.9.54,18.56,1.2,47.62,1.12,78.33-.24,91.6-6.72,118-9.49,125C403,292.38,388,320.05,368.56,348.55a623.67,623.67,0,0,1-59.18,73.63c-19.71,21-39.43,39.15-57,52.38-22.06,16.59-31,18.1-31.84,18.21-.87-.08-9.72-1.24-31.48-17.51-17.39-13-36.95-31.09-56.56-52.33C86.45,373.09,49,315.79,29.63,265.71c-2.73-7.07-9.2-33.37-10.25-124.74-.36-30.65,0-59.7.37-78.26,10.55.77,24.41,1.45,40.17,1.45,50.22,0,116.18-7.08,159.37-38.81M219.42,0C182,37.44,110.82,44.93,59.91,44.93A493.69,493.69,0,0,1,1,41.6s-5.86,188.23,10.69,231C57.26,390.69,182.43,512,220.57,512c35.84,0,164.37-120.83,210.6-238.69,16.86-43,9-231.71,9-231.71a487.35,487.35,0,0,1-63.74,4h-.31c-51,0-119.72-7.92-156.7-45.6Z" transform="translate(0)"/><path id="_路径_" data-name="&lt;路径&gt;" class="cls-1" d="M325,199.36H243v-82a7,7,0,0,0-6.94-6.94H205.95a6.91,6.91,0,0,0-6.91,6.94v82H117a6.93,6.93,0,0,0-6.94,6.91v30a6.94,6.94,0,0,0,6.94,6.94h82v82a6.93,6.93,0,0,0,6.91,6.94H236a7,7,0,0,0,6.94-6.94v-82h82a7,7,0,0,0,6.94-6.94v-30A7,7,0,0,0,325,199.36Z" transform="translate(0)"/></svg>