<svg id="图层_1" data-name="图层 1" 
    xmlns="http://www.w3.org/2000/svg" viewBox="0 0 64 64" width="64px" height="64px">
    <defs>
        <style></style>
    </defs>
    <title>日程</title>
    <path class="canChangeFill" style="fill:#586e7c;" d="M56.62,8.62H52.92V6.15a2.47,2.47,0,0,0-2.46-2.46H45.54a2.47,2.47,0,0,0-2.46,2.46V8.62H22.15V6.15a2.47,2.47,0,0,0-2.46-2.46H14.77a2.47,2.47,0,0,0-2.46,2.46V8.62H7.38A7.41,7.41,0,0,0,0,16V52.92a7.41,7.41,0,0,0,7.38,7.38H56.62A7.41,7.41,0,0,0,64,52.92V16A7.41,7.41,0,0,0,56.62,8.62ZM52.92,45.54H8.62a2.46,2.46,0,1,1,0-4.92H52.92a2.46,2.46,0,0,1,0,4.92Zm0-19.69H33.23a2.46,2.46,0,0,1,0-4.92H52.92a2.46,2.46,0,0,1,0,4.92Z"/>
</svg>