<svg id="图层_1" data-name="图层 1" xmlns="http://www.w3.org/2000/svg" viewBox="0 0 512 296" width="512px" height="296px"><defs><style>.cls-1{fill:#5050ff;}</style></defs><title>18</title><path class="cls-1" d="M480.19,18.94A11.72,11.72,0,0,1,490.88,35.5L454,116.85a11.76,11.76,0,0,1-10.69,6.89H67.65A11.76,11.76,0,0,1,57,116.85L20.05,35.5A11.72,11.72,0,0,1,30.75,18.94H480.19m0-18.94H30.75a30.66,30.66,0,0,0-28,43.31l36.9,81.36a30.71,30.71,0,0,0,28,18H443.29a30.71,30.71,0,0,0,28-18l36.9-81.36A30.66,30.66,0,0,0,480.19,0Z"/><path class="cls-1" d="M400.66,142.65,357.73,257a31.17,31.17,0,0,1-29.05,20.1H182.26A31.17,31.17,0,0,1,153.21,257L110.27,142.65H400.66M428,123.71H82.89l52.55,139.9A50,50,0,0,0,182.26,296H328.68a50,50,0,0,0,46.81-32.39L428,123.71Z"/><path class="cls-1" d="M267.09,179.41v50.12H243.85V179.41h23.24m11.38-12.63h-46A1.27,1.27,0,0,0,231.2,168V240.9a1.27,1.27,0,0,0,1.26,1.26h46a1.27,1.27,0,0,0,1.26-1.26V168a1.27,1.27,0,0,0-1.26-1.26Z"/><path class="cls-1" d="M184.12,179.41l10.76,50.12H172.22l-10.76-50.12h22.67m1.47-12.63H159.21a10.82,10.82,0,0,0-10.59,13.08l11.54,53.75a10.83,10.83,0,0,0,10.59,8.55h26.38a10.82,10.82,0,0,0,10.59-13.08l-11.54-53.75a10.83,10.83,0,0,0-10.59-8.55Z"/><path class="cls-1" d="M351.28,179.41l-10.76,50.12H317.85l10.76-50.12h22.67m2.25-12.63H327.14a10.83,10.83,0,0,0-10.59,8.55L305,229.08a10.82,10.82,0,0,0,10.59,13.08H342a10.83,10.83,0,0,0,10.59-8.55l11.54-53.75a10.82,10.82,0,0,0-10.59-13.08Z"/><path class="cls-1" d="M418.16,235a6.31,6.31,0,0,1-2.74-12c19-9.07,26.63-24.53,23.43-47.27A6.32,6.32,0,0,1,451.38,174c2,14,.41,26.25-4.65,36.34s-13.81,18.31-25.84,24.07A6.31,6.31,0,0,1,418.16,235Z"/><path class="cls-1" d="M423.55,267.32A6.31,6.31,0,0,1,421,255.21c35.63-15.44,51.54-45.51,44.82-84.67a6.32,6.32,0,0,1,12.47-2.13c7.69,44.81-11.35,80.67-52.25,98.39A6.31,6.31,0,0,1,423.55,267.32Z"/><path class="cls-1" d="M428.94,294.24A6.31,6.31,0,0,1,426.85,282c52.4-18.35,78.39-61,71.32-117.09a6.32,6.32,0,0,1,12.55-1.58c4.16,33-1.79,61.59-17.69,85-13.93,20.5-35.37,36.27-62,45.59A6.33,6.33,0,0,1,428.94,294.24Z"/></svg>