<svg id="图层_1" data-name="图层 1" xmlns="http://www.w3.org/2000/svg" viewBox="0 0 498 512" width="498px" height="512px"><defs><style>.cls-1{fill:#72e800;}</style></defs><title>8</title><path class="cls-1" d="M248.75,512C111.59,512,0,400.4,0,263.22,0,151.11,75.62,52.36,183.89,23.07a12.35,12.35,0,1,1,6.45,23.84C92.81,73.3,24.7,162.24,24.7,263.22c0,123.56,100.51,224.09,224.05,224.09,123.82,0,224.55-100.53,224.55-224.09,0-102.7-69.26-192-168.44-217.21a12.35,12.35,0,1,1,6.08-23.94A248.57,248.57,0,0,1,498,263.22C498,400.4,386.19,512,248.75,512Z"/><path class="cls-1" d="M249,189.2a12.35,12.35,0,0,1-12.35-12.35V12.35a12.35,12.35,0,0,1,24.7,0v164.5A12.35,12.35,0,0,1,249,189.2Z"/></svg>