<svg id="图层_1" data-name="图层 1" xmlns="http://www.w3.org/2000/svg" viewBox="0 0 256 512" width="256px" height="512px"><defs><style>.cls-1{fill:#ea4e4e;}</style></defs><title>21</title><g id="_编组_" data-name="&lt;编组&gt;"><path id="_复合路径_" data-name="&lt;复合路径&gt;" class="cls-1" d="M211.83,319.59V60c0-33.14-26.65-60-59.44-60h-2.7C116.9,0,90.25,26.87,90.25,60V319.59a106.53,106.53,0,0,0-44.16,86.35C46.08,464.39,93.14,512,151,512s105-47.61,105-106.06A106.54,106.54,0,0,0,211.83,319.59ZM151,492.8c-47.29,0-85.77-39-85.77-86.86A87.91,87.91,0,0,1,74.83,366a86.94,86.94,0,0,1,26.6-30.86l8-5.75V60c0-22.54,18-40.81,40.25-40.81h2.7c22.2,0,40.25,18.27,40.25,40.81V329.44l8,5.75A86.92,86.92,0,0,1,227.25,366a87.91,87.91,0,0,1,9.56,39.89C236.81,453.83,198.33,492.8,151,492.8Z"/><path id="_路径_" data-name="&lt;路径&gt;" class="cls-1" d="M169.6,361.43V161.35a18.56,18.56,0,1,0-37.12,0V361.43a51.14,51.14,0,0,0-17.22,11.31,51.67,51.67,0,0,0-.1,72.59,50.41,50.41,0,0,0,71.81,0,51.55,51.55,0,0,0-.15-72.59A51.16,51.16,0,0,0,169.6,361.43Z"/><path id="_路径_2" data-name="&lt;路径&gt;" class="cls-1" d="M5.82,79.36h49c3.17,0,5.76-4.28,5.81-9.6s-2.59-9.6-5.81-9.6h-49C2.59,60.16,0,64.45,0,69.76S2.59,79.36,5.82,79.36Z"/><path id="_路径_3" data-name="&lt;路径&gt;" class="cls-1" d="M21.79,99.84c-3.22,0-5.81,4.28-5.81,9.6s2.59,9.6,5.81,9.6h33c3.17,0,5.76-4.28,5.81-9.6s-2.59-9.6-5.81-9.6Z"/><path id="_路径_4" data-name="&lt;路径&gt;" class="cls-1" d="M5.82,159.36h49c3.17,0,5.81-4.43,5.81-9.92s-2.59-9.92-5.81-9.92h-49c-3.22,0-5.82,4.43-5.82,9.92S2.59,159.36,5.82,159.36Z"/><path id="_路径_5" data-name="&lt;路径&gt;" class="cls-1" d="M21.79,178.56c-3.22,0-5.81,4.28-5.81,9.6s2.59,9.6,5.81,9.6h33c3.17,0,5.76-4.28,5.81-9.6s-2.59-9.6-5.81-9.6Z"/><path id="_路径_6" data-name="&lt;路径&gt;" class="cls-1" d="M60.6,227.84c0-5.32-2.59-9.6-5.81-9.6h-49c-3.22,0-5.82,4.28-5.82,9.6s2.59,9.6,5.82,9.6h49C58,237.44,60.6,233.16,60.6,227.84Z"/></g></svg>