<svg id="图层_1" data-name="图层 1" xmlns="http://www.w3.org/2000/svg" viewBox="0 0 486 512" width="486px" height="512px"><defs><style>.cls-1{fill:#33adff;}</style></defs><title>14</title><path class="cls-1" d="M351.68,24.23H134.32a12.11,12.11,0,1,1,0-24.23H351.68a12.11,12.11,0,1,1,0,24.23Z" transform="translate(0)"/><path class="cls-1" d="M419.56,512H66.44A65.4,65.4,0,0,1,8.17,477.36a65.23,65.23,0,0,1,2.7-67.67L133,222.21A123.41,123.41,0,0,0,153,154.7V12.11A12.12,12.12,0,0,1,165.18,0H320.82A12.12,12.12,0,0,1,333,12.11V154.7A123.41,123.41,0,0,0,353,222.21L475.13,409.7A66.2,66.2,0,0,1,419.56,512ZM177.31,24.23V154.7a147.55,147.55,0,0,1-24,80.73L31.21,422.91a42,42,0,0,0,35.23,64.87H419.56a42,42,0,0,0,35.23-64.87h0L332.67,235.42a147.55,147.55,0,0,1-24-80.73V24.23Z" transform="translate(0)"/><path class="cls-1" d="M178.15,452.57a44.7,44.7,0,1,1,44.76-44.7A44.78,44.78,0,0,1,178.15,452.57Zm0-73.26a28.55,28.55,0,1,0,28.59,28.55A28.6,28.6,0,0,0,178.15,379.32Z" transform="translate(0)"/><path class="cls-1" d="M336.92,463.29a37.11,37.11,0,1,1,37.16-37.11A37.18,37.18,0,0,1,336.92,463.29Zm0-58.07a21,21,0,1,0,21,21A21,21,0,0,0,336.92,405.23Z" transform="translate(0)"/><path class="cls-1" d="M264.47,405.23a31.75,31.75,0,1,1,31.79-31.75A31.81,31.81,0,0,1,264.47,405.23Zm0-47.35a15.6,15.6,0,1,0,15.62,15.6A15.63,15.63,0,0,0,264.47,357.88Z" transform="translate(0)"/><path class="cls-1" d="M291.3,331.08a28.18,28.18,0,1,1,28.21-28.18A28.23,28.23,0,0,1,291.3,331.08Zm0-40.2a12,12,0,1,0,12,12A12,12,0,0,0,291.3,290.88Z" transform="translate(0)"/><path class="cls-1" d="M198.27,331.08a28.18,28.18,0,1,1,28.21-28.18A28.23,28.23,0,0,1,198.27,331.08Zm0-40.2a12,12,0,1,0,12,12A12,12,0,0,0,198.27,290.88Z" transform="translate(0)"/><path class="cls-1" d="M260,256.93a22.82,22.82,0,1,1,22.85-22.82A22.86,22.86,0,0,1,260,256.93Zm0-29.48a6.66,6.66,0,1,0,6.67,6.66A6.68,6.68,0,0,0,260,227.45Z" transform="translate(0)"/></svg>