<svg id="图层_1" data-name="图层 1" xmlns="http://www.w3.org/2000/svg" viewBox="0 0 512 442.01" width="512px" height="442px"><defs><style>.cls-1{fill:#ea4e4e;}</style></defs><title>1</title><path class="cls-1" d="M491.88,156.35A256.06,256.06,0,1,0,75,437a17,17,0,1,0,24.07-24.07A222,222,0,1,1,412.95,99a222,222,0,0,1,0,313.9A17,17,0,0,0,437,437a256.26,256.26,0,0,0,54.86-280.67Z" transform="translate(0 0)"/><polygon class="cls-1" points="264.69 296.75 256 324.54 247.31 296.75 216.92 201.21 195.2 201.21 242.1 342.78 268.16 342.78 315.93 201.21 295.95 201.21 264.69 296.75"/></svg>