<svg id="图层_1" data-name="图层 1" 
    xmlns="http://www.w3.org/2000/svg" viewBox="0 0 64 64"  width="64px" height="64px">
    <defs>
        <style></style>
    </defs>
    <title>音量</title>
    <path class="canChangeFill" style="fill:#586e7c;" d="M36.51,2.91,17,17.89H5a5,5,0,0,0-5,5V41.09a5,5,0,0,0,5,5H17l19.52,15A3.39,3.39,0,0,0,42,58.4V5.6A3.39,3.39,0,0,0,36.51,2.91Z"/>
    <path class="canChangeFill" style="fill:#586e7c;" d="M45.3,21.61a2.51,2.51,0,0,0-.36,3.53,10.71,10.71,0,0,1,2.49,7.27,8.22,8.22,0,0,1-3,6.08,2.51,2.51,0,1,0,3.17,3.89,13.17,13.17,0,0,0,4.8-9.73A15.72,15.72,0,0,0,48.83,22,2.51,2.51,0,0,0,45.3,21.61Z"/>
    <path class="canChangeFill" style="fill:#586e7c;" d="M58.61,16.69a2.51,2.51,0,0,0-4,3A21.21,21.21,0,0,1,59,33.26,13.61,13.61,0,0,1,53.7,43.8a2.51,2.51,0,0,0,3,4A18.54,18.54,0,0,0,64,33.51,26.23,26.23,0,0,0,58.61,16.69Z"/>
</svg>