<svg id="图层_1" data-name="图层 1" xmlns="http://www.w3.org/2000/svg" viewBox="0 0 512 460" width="512px" height="460px"><defs><style>.cls-1{fill:#eaae07;}</style></defs><title>13</title><path class="cls-1" d="M452.36,460H59.64A59.64,59.64,0,0,1,8.07,370.53L204.44,29.82l10.24,5.92-10.24-5.92a59.49,59.49,0,0,1,103.13,0L503.93,370.53A59.64,59.64,0,0,1,452.36,460ZM256,23.69a35.51,35.51,0,0,0-31.08,18L28.55,382.38a36,36,0,0,0,31.08,53.93H452.36a36,36,0,0,0,31.08-53.93L287.08,41.67A35.52,35.52,0,0,0,256,23.69Z" transform="translate(0)"/><path class="cls-1" d="M256.11,316.22a11.83,11.83,0,0,1-11.82-11.85V152.13a11.82,11.82,0,1,1,23.65,0V304.38A11.83,11.83,0,0,1,256.11,316.22Z" transform="translate(0)"/><path class="cls-1" d="M256.11,390.07a11.83,11.83,0,0,1-11.82-11.85V361.47a11.82,11.82,0,1,1,23.65,0v16.75A11.83,11.83,0,0,1,256.11,390.07Z" transform="translate(0)"/></svg>